M48
; DRILL file {KiCad 7.0.10} date 
; FORMAT={-:-/ absolute / metric / decimal}
; #@! TF.CreationDate,2024-01-29T13:32:08+01:00
; #@! TF.GenerationSoftware,Kicad,Pcbnew,7.0.10
; #@! TF.FileFunction,Plated,1,2,PTH
FMAT,2
METRIC
; #@! TA.AperFunction,Plated,PTH,ViaDrill
T1C0.400
; #@! TA.AperFunction,Plated,PTH,ComponentDrill
T2C0.650
; #@! TA.AperFunction,Plated,PTH,ComponentDrill
T3C0.800
; #@! TA.AperFunction,Plated,PTH,ComponentDrill
T4C1.016
; #@! TA.AperFunction,Plated,PTH,ComponentDrill
T5C1.100
; #@! TA.AperFunction,Plated,PTH,ComponentDrill
T6C1.300
; #@! TA.AperFunction,Plated,PTH,ComponentDrill
T7C1.700
; #@! TA.AperFunction,Plated,PTH,ComponentDrill
T8C2.600
%
G90
G05
T1
X28.194Y-114.808
X31.9Y-101.31
X35.56Y-84.45
X37.592Y-43.434
X37.592Y-44.704
X37.592Y-75.692
X37.592Y-77.47
X37.846Y-61.722
X37.846Y-62.992
X38.354Y-29.21
X38.608Y-30.226
X40.132Y-105.918
X46.776Y-87.15
X46.776Y-21.738
X46.776Y-53.313
X54.13Y-87.151
X62.23Y-92.964
X68.072Y-83.058
X69.342Y-105.918
X70.866Y-114.808
X71.374Y-108.204
X77.84Y-75.235
X78.466Y-93.98
X78.994Y-82.55
X80.264Y-76.454
X81.359Y-76.895
X82.221Y-77.724
X82.31Y-98.44
X82.55Y-53.848
X82.655Y-83.417
X82.68Y-76.454
X82.804Y-97.028
X83.064Y-70.155
X83.551Y-43.388
X83.566Y-105.117
X83.82Y-65.786
X84.026Y-26.513
X84.207Y-62.738
X84.582Y-70.104
X84.836Y-95.758
X85.0Y-60.243
X85.506Y-65.217
X85.707Y-36.594
X85.957Y-34.694
X86.106Y-68.072
X86.258Y-32.313
X86.36Y-104.648
X86.614Y-26.416
X86.868Y-27.94
X86.868Y-66.04
X87.122Y-33.782
X87.63Y-52.578
X89.154Y-65.786
X89.443Y-35.057
X89.6Y-102.25
X89.662Y-83.312
X89.662Y-84.582
X89.662Y-85.852
X89.662Y-87.122
X90.054Y-67.394
X90.172Y-100.661
X90.886Y-113.28
X90.932Y-87.122
X91.44Y-68.834
X92.07Y-103.3
X92.202Y-43.942
X92.456Y-55.88
X92.515Y-91.154
X92.622Y-101.857
X92.786Y-98.621
X92.814Y-97.672
X93.098Y-92.304
X93.218Y-100.33
X93.473Y-101.566
X93.93Y-102.88
X94.188Y-99.729
X94.28Y-111.11
X94.299Y-92.939
X94.554Y-107.43
X94.68Y-90.932
X94.742Y-97.282
X94.75Y-98.963
X94.996Y-101.092
X95.076Y-102.868
X95.25Y-67.056
X95.756Y-34.048
X96.326Y-112.438
X96.544Y-102.895
X96.701Y-107.43
X97.536Y-36.322
X97.728Y-99.822
X97.769Y-98.067
X97.79Y-108.458
X98.044Y-101.092
X98.186Y-98.99
X98.451Y-114.87
X98.835Y-36.068
X99.503Y-105.631
X99.822Y-107.442
X99.862Y-95.544
X100.101Y-109.463
X100.33Y-59.436
X100.33Y-103.378
X100.572Y-26.346
X100.838Y-80.264
X100.838Y-86.36
X101.092Y-83.82
X101.092Y-85.09
X101.35Y-113.9
X101.551Y-103.363
X101.651Y-100.713
X101.751Y-101.813
X101.854Y-54.864
X101.854Y-98.552
X102.108Y-90.17
X102.87Y-104.318
X103.124Y-82.55
X103.124Y-102.362
X103.166Y-81.026
X103.886Y-83.566
X103.886Y-104.318
X104.394Y-37.488
X104.648Y-51.308
X105.156Y-22.606
X105.41Y-30.988
X105.41Y-114.808
X106.567Y-107.888
X106.68Y-29.696
X106.934Y-66.548
X107.442Y-31.496
X107.696Y-40.663
X108.204Y-22.606
X108.204Y-72.644
X109.22Y-59.436
X109.478Y-104.318
X110.02Y-34.37
X110.49Y-59.944
X111.252Y-101.346
X112.014Y-93.472
X112.522Y-100.838
X112.925Y-103.763
X114.046Y-98.806
X114.3Y-102.108
X114.554Y-104.14
X115.062Y-101.092
X115.45Y-94.625
X116.332Y-29.972
X117.348Y-102.362
X118.237Y-96.647
X118.294Y-95.247
X118.872Y-100.652
X118.872Y-103.378
X119.634Y-98.552
X119.634Y-101.346
X119.75Y-99.952
X120.396Y-102.87
X120.904Y-101.854
X121.158Y-36.576
X122.174Y-101.854
X122.568Y-100.014
X123.367Y-73.418
X123.444Y-101.854
X124.714Y-101.854
X125.73Y-60.198
X125.96Y-32.514
X125.984Y-101.854
X126.238Y-61.976
X127.0Y-73.406
X127.1Y-31.7
X127.254Y-101.854
X128.524Y-101.854
X128.524Y-99.314
X129.794Y-101.854
X130.025Y-70.8
X130.048Y-71.882
X130.275Y-73.648
X130.81Y-78.994
X131.064Y-101.854
X131.826Y-98.044
X132.025Y-77.724
X132.08Y-93.98
X132.08Y-101.854
X132.501Y-53.063
X132.588Y-36.322
X132.842Y-80.01
X133.096Y-97.864
X133.096Y-101.854
X133.401Y-53.063
X133.674Y-78.924
X134.112Y-101.854
X134.401Y-53.013
X134.496Y-79.881
X134.651Y-63.613
X135.382Y-101.854
X135.542Y-69.917
X135.636Y-67.564
X136.398Y-101.854
X137.101Y-40.663
X137.16Y-72.136
X137.16Y-85.852
X137.414Y-101.854
X138.43Y-101.854
X139.7Y-101.854
X139.925Y-60.8
X140.208Y-65.532
X140.208Y-79.502
X140.208Y-83.82
X141.478Y-79.502
X141.478Y-83.82
X142.201Y-40.613
X142.494Y-101.854
X143.1Y-37.75
X143.51Y-101.854
X143.9Y-72.55
X143.918Y-33.0
X143.951Y-39.238
X144.018Y-96.012
X144.018Y-97.282
X144.018Y-98.552
X144.018Y-99.568
X144.018Y-100.838
X144.025Y-78.3
X144.101Y-69.013
X144.201Y-64.088
X144.526Y-67.31
X144.78Y-94.742
X144.901Y-31.663
X145.796Y-85.598
X145.796Y-87.884
X145.796Y-90.17
X145.796Y-92.202
X145.796Y-93.98
X147.32Y-84.328
X147.574Y-67.213
X149.098Y-84.328
X149.15Y-63.0
X150.801Y-39.163
X150.876Y-84.328
X151.13Y-74.676
X152.101Y-32.763
X152.4Y-84.328
X152.654Y-54.864
X153.924Y-84.328
X155.448Y-84.328
X156.451Y-52.913
X157.734Y-84.328
X159.258Y-84.328
X160.651Y-36.913
X160.782Y-84.328
X162.56Y-84.328
X162.801Y-58.813
X163.83Y-84.328
T2
X43.626Y-46.463
X43.651Y-38.388
X43.67Y-22.25
X43.67Y-30.33
X43.688Y-80.01
X43.744Y-54.842
X43.744Y-63.224
X43.744Y-71.606
X50.626Y-50.063
X50.651Y-41.988
X50.67Y-25.85
X50.67Y-33.93
X50.688Y-83.61
X50.744Y-58.442
X50.744Y-66.824
X50.744Y-75.206
X73.914Y-49.784
X74.422Y-21.082
X76.454Y-52.324
X76.962Y-23.622
X78.994Y-49.784
X79.502Y-21.082
T3
X59.944Y-95.504
X67.444Y-95.504
X74.422Y-86.138
X74.422Y-88.138
X96.401Y-110.213
X98.401Y-110.213
X106.68Y-88.392
X108.68Y-88.392
X121.158Y-90.678
X123.158Y-90.678
X137.551Y-80.613
X137.551Y-82.613
X141.626Y-56.838
X141.626Y-58.838
X144.201Y-80.613
X144.201Y-82.613
X164.051Y-108.313
X164.601Y-94.263
X166.051Y-108.313
X166.601Y-94.263
X166.751Y-58.023
X166.751Y-60.563
X166.751Y-63.103
X166.976Y-30.523
X166.976Y-33.063
X166.976Y-35.603
T4
X85.09Y-107.95
X85.09Y-110.49
X85.09Y-113.03
X91.694Y-82.55
X91.694Y-85.09
X94.234Y-82.55
X94.234Y-85.09
X96.774Y-82.55
X96.774Y-85.09
X99.314Y-82.55
X99.314Y-85.09
X121.076Y-107.898
X121.076Y-110.438
X121.92Y-65.024
X121.92Y-67.564
X121.92Y-70.104
X123.616Y-107.898
X123.616Y-110.438
X126.156Y-107.898
X126.156Y-110.438
X127.254Y-22.352
X127.254Y-24.892
X128.696Y-107.898
X128.696Y-110.438
X128.778Y-89.154
X128.778Y-91.694
X128.778Y-94.234
X128.778Y-96.774
X129.794Y-22.352
X129.794Y-24.892
X131.236Y-107.898
X131.236Y-110.438
X132.334Y-22.352
X132.334Y-24.892
X133.776Y-107.898
X133.776Y-110.438
X134.874Y-22.352
X134.874Y-24.892
X136.316Y-107.898
X136.316Y-110.438
X137.414Y-22.352
X137.414Y-24.892
X138.856Y-107.898
X138.856Y-110.438
X156.972Y-86.36
X156.972Y-88.9
X156.972Y-91.44
X156.972Y-93.98
X156.986Y-100.818
X156.986Y-103.358
X156.986Y-105.898
X156.986Y-108.438
X159.512Y-86.36
X159.512Y-88.9
X159.512Y-91.44
X159.512Y-93.98
X159.526Y-100.818
X159.526Y-103.358
X159.526Y-105.898
X159.526Y-108.438
T5
X21.375Y-86.775
X21.375Y-93.275
X25.875Y-86.775
X25.875Y-93.275
T6
X23.851Y-28.573
X23.851Y-33.653
X23.851Y-43.173
X23.851Y-48.253
X23.87Y-98.11
X23.87Y-103.19
X23.921Y-59.713
X23.921Y-64.793
X24.001Y-74.003
X24.001Y-79.083
T7
X171.45Y-47.0
X171.45Y-74.375
X171.601Y-88.913
X171.626Y-103.413
T8
X171.45Y-42.0
X171.45Y-52.0
X171.45Y-69.375
X171.45Y-79.375
X171.601Y-83.913
X171.601Y-93.913
X171.626Y-98.413
X171.626Y-108.413
X175.95Y-47.0
X175.95Y-74.375
X176.101Y-88.913
X176.126Y-103.413
M30
