G04 #@! TF.GenerationSoftware,KiCad,Pcbnew,7.0.10*
G04 #@! TF.CreationDate,2024-01-29T13:32:04+01:00*
G04 #@! TF.ProjectId,smd_aio,736d645f-6169-46f2-9e6b-696361645f70,rev?*
G04 #@! TF.SameCoordinates,Original*
G04 #@! TF.FileFunction,Soldermask,Top*
G04 #@! TF.FilePolarity,Negative*
%FSLAX46Y46*%
G04 Gerber Fmt 4.6, Leading zero omitted, Abs format (unit mm)*
G04 Created by KiCad (PCBNEW 7.0.10) date 2024-01-29 13:32:04*
%MOMM*%
%LPD*%
G01*
G04 APERTURE LIST*
G04 Aperture macros list*
%AMRoundRect*
0 Rectangle with rounded corners*
0 $1 Rounding radius*
0 $2 $3 $4 $5 $6 $7 $8 $9 X,Y pos of 4 corners*
0 Add a 4 corners polygon primitive as box body*
4,1,4,$2,$3,$4,$5,$6,$7,$8,$9,$2,$3,0*
0 Add four circle primitives for the rounded corners*
1,1,$1+$1,$2,$3*
1,1,$1+$1,$4,$5*
1,1,$1+$1,$6,$7*
1,1,$1+$1,$8,$9*
0 Add four rect primitives between the rounded corners*
20,1,$1+$1,$2,$3,$4,$5,0*
20,1,$1+$1,$4,$5,$6,$7,0*
20,1,$1+$1,$6,$7,$8,$9,0*
20,1,$1+$1,$8,$9,$2,$3,0*%
G04 Aperture macros list end*
%ADD10RoundRect,0.200000X-1.000000X-0.850000X1.000000X-0.850000X1.000000X0.850000X-1.000000X0.850000X0*%
%ADD11RoundRect,0.200000X-1.000000X-0.800000X1.000000X-0.800000X1.000000X0.800000X-1.000000X0.800000X0*%
%ADD12RoundRect,0.200000X0.650000X-0.650000X0.650000X0.650000X-0.650000X0.650000X-0.650000X-0.650000X0*%
%ADD13C,1.700000*%
%ADD14RoundRect,0.200000X0.800000X-1.000000X0.800000X1.000000X-0.800000X1.000000X-0.800000X-1.000000X0*%
%ADD15RoundRect,0.200000X-0.650000X-0.650000X0.650000X-0.650000X0.650000X0.650000X-0.650000X0.650000X0*%
%ADD16RoundRect,0.200000X1.000000X0.800000X-1.000000X0.800000X-1.000000X-0.800000X1.000000X-0.800000X0*%
%ADD17RoundRect,0.200000X-0.800000X1.000000X-0.800000X-1.000000X0.800000X-1.000000X0.800000X1.000000X0*%
%ADD18RoundRect,0.200000X-0.650000X0.650000X-0.650000X-0.650000X0.650000X-0.650000X0.650000X0.650000X0*%
%ADD19RoundRect,0.200000X-1.249680X-0.900430X1.249680X-0.900430X1.249680X0.900430X-1.249680X0.900430X0*%
%ADD20RoundRect,0.200000X1.000000X0.850000X-1.000000X0.850000X-1.000000X-0.850000X1.000000X-0.850000X0*%
%ADD21RoundRect,0.200000X0.850000X-1.000000X0.850000X1.000000X-0.850000X1.000000X-0.850000X-1.000000X0*%
%ADD22RoundRect,0.200000X-0.900430X1.249680X-0.900430X-1.249680X0.900430X-1.249680X0.900430X1.249680X0*%
%ADD23RoundRect,0.200000X0.900430X-1.249680X0.900430X1.249680X-0.900430X1.249680X-0.900430X-1.249680X0*%
%ADD24RoundRect,0.200000X-0.850000X1.000000X-0.850000X-1.000000X0.850000X-1.000000X0.850000X1.000000X0*%
%ADD25RoundRect,0.200000X-0.600000X-0.450000X0.600000X-0.450000X0.600000X0.450000X-0.600000X0.450000X0*%
%ADD26RoundRect,0.200000X0.450000X-0.600000X0.450000X0.600000X-0.450000X0.600000X-0.450000X-0.600000X0*%
%ADD27RoundRect,0.200000X0.625000X-0.750000X0.625000X0.750000X-0.625000X0.750000X-0.625000X-0.750000X0*%
%ADD28O,3.400000X2.700000*%
%ADD29O,4.400000X3.600000*%
%ADD30O,3.600000X4.400000*%
%ADD31C,1.800000*%
%ADD32RoundRect,0.200000X1.016000X0.863600X-1.016000X0.863600X-1.016000X-0.863600X1.016000X-0.863600X0*%
%ADD33O,2.432000X2.127200*%
%ADD34RoundRect,0.200000X-1.016000X-0.863600X1.016000X-0.863600X1.016000X0.863600X-1.016000X0.863600X0*%
%ADD35RoundRect,0.200000X-0.863600X-0.863600X0.863600X-0.863600X0.863600X0.863600X-0.863600X0.863600X0*%
%ADD36O,2.127200X2.127200*%
%ADD37RoundRect,0.200000X0.863600X0.863600X-0.863600X0.863600X-0.863600X-0.863600X0.863600X-0.863600X0*%
%ADD38RoundRect,0.200000X-1.270000X1.270000X-1.270000X-1.270000X1.270000X-1.270000X1.270000X1.270000X0*%
%ADD39C,2.940000*%
%ADD40C,2.500000*%
%ADD41C,2.000000*%
%ADD42C,1.900000*%
%ADD43C,1.600000*%
%ADD44C,2.400000*%
%ADD45RoundRect,0.200000X-0.650000X-0.125000X0.650000X-0.125000X0.650000X0.125000X-0.650000X0.125000X0*%
%ADD46RoundRect,0.200000X0.125000X-0.650000X0.125000X0.650000X-0.125000X0.650000X-0.125000X-0.650000X0*%
%ADD47RoundRect,0.200000X0.775000X0.300000X-0.775000X0.300000X-0.775000X-0.300000X0.775000X-0.300000X0*%
%ADD48RoundRect,0.200000X0.750000X0.300000X-0.750000X0.300000X-0.750000X-0.300000X0.750000X-0.300000X0*%
%ADD49RoundRect,0.200000X0.500000X0.142500X-0.500000X0.142500X-0.500000X-0.142500X0.500000X-0.142500X0*%
%ADD50RoundRect,0.200000X1.800000X3.200000X-1.800000X3.200000X-1.800000X-3.200000X1.800000X-3.200000X0*%
%ADD51RoundRect,0.200000X-0.139700X-0.406400X0.139700X-0.406400X0.139700X0.406400X-0.139700X0.406400X0*%
%ADD52RoundRect,0.200000X-0.406400X0.139700X-0.406400X-0.139700X0.406400X-0.139700X0.406400X0.139700X0*%
%ADD53RoundRect,0.200000X-1.676400X1.676400X-1.676400X-1.676400X1.676400X-1.676400X1.676400X1.676400X0*%
%ADD54RoundRect,0.200000X-0.177800X0.723900X-0.177800X-0.723900X0.177800X-0.723900X0.177800X0.723900X0*%
%ADD55RoundRect,0.200000X0.300000X-0.550000X0.300000X0.550000X-0.300000X0.550000X-0.300000X-0.550000X0*%
%ADD56RoundRect,0.200000X-0.990000X-1.500000X0.990000X-1.500000X0.990000X1.500000X-0.990000X1.500000X0*%
%ADD57RoundRect,0.200000X-0.750000X-0.625000X0.750000X-0.625000X0.750000X0.625000X-0.750000X0.625000X0*%
%ADD58RoundRect,0.200000X1.325000X1.750000X-1.325000X1.750000X-1.325000X-1.750000X1.325000X-1.750000X0*%
%ADD59RoundRect,0.200000X0.863600X-0.863600X0.863600X0.863600X-0.863600X0.863600X-0.863600X-0.863600X0*%
%ADD60RoundRect,0.200000X-0.800000X-0.500000X0.800000X-0.500000X0.800000X0.500000X-0.800000X0.500000X0*%
%ADD61RoundRect,0.200000X0.500000X-0.800000X0.500000X0.800000X-0.500000X0.800000X-0.500000X-0.800000X0*%
%ADD62RoundRect,0.200000X2.335000X2.080000X-2.335000X2.080000X-2.335000X-2.080000X2.335000X-2.080000X0*%
%ADD63RoundRect,0.200000X0.580000X0.730000X-0.580000X0.730000X-0.580000X-0.730000X0.580000X-0.730000X0*%
%ADD64RoundRect,0.225000X0.225000X-0.925000X0.225000X0.925000X-0.225000X0.925000X-0.225000X-0.925000X0*%
%ADD65RoundRect,0.200000X-1.000000X-0.750000X1.000000X-0.750000X1.000000X0.750000X-1.000000X0.750000X0*%
%ADD66RoundRect,0.200000X-1.000000X-1.900000X1.000000X-1.900000X1.000000X1.900000X-1.000000X1.900000X0*%
G04 APERTURE END LIST*
D10*
X91218000Y-23876000D03*
X95218000Y-23876000D03*
X91218000Y-20828000D03*
X95218000Y-20828000D03*
D11*
X29750000Y-87275000D03*
X33750000Y-87275000D03*
D12*
X74422000Y-88138000D03*
D13*
X74422000Y-86138000D03*
D14*
X85051000Y-101963000D03*
X85051000Y-97963000D03*
X87951000Y-101963000D03*
X87951000Y-97963000D03*
D15*
X96401000Y-110213000D03*
D13*
X98401000Y-110213000D03*
D14*
X92800000Y-112610000D03*
X92800000Y-108610000D03*
D15*
X121158000Y-90678000D03*
D13*
X123158000Y-90678000D03*
D16*
X110151000Y-94763000D03*
X106151000Y-94763000D03*
D17*
X112776000Y-87916000D03*
X112776000Y-91916000D03*
X116586000Y-87916000D03*
X116586000Y-91916000D03*
D16*
X86328000Y-85852000D03*
X82328000Y-85852000D03*
X86328000Y-89662000D03*
X82328000Y-89662000D03*
D15*
X106680000Y-88392000D03*
D13*
X108680000Y-88392000D03*
D16*
X112401000Y-111963000D03*
X108401000Y-111963000D03*
D14*
X99060000Y-92170000D03*
X99060000Y-88170000D03*
X102108000Y-92170000D03*
X102108000Y-88170000D03*
X96266000Y-92163000D03*
X96266000Y-88163000D03*
D16*
X109442000Y-102870000D03*
X105442000Y-102870000D03*
X109442000Y-100213000D03*
X105442000Y-100213000D03*
D15*
X164601000Y-94263000D03*
D13*
X166601000Y-94263000D03*
D15*
X164051000Y-108313000D03*
D13*
X166051000Y-108313000D03*
D11*
X107726000Y-34388000D03*
X111726000Y-34388000D03*
D17*
X114076000Y-25763000D03*
X114076000Y-29763000D03*
D14*
X93726000Y-32553000D03*
X93726000Y-28553000D03*
X89531000Y-32553000D03*
X89531000Y-28553000D03*
D16*
X90576000Y-41868000D03*
X86576000Y-41868000D03*
X90551000Y-38593000D03*
X86551000Y-38593000D03*
D14*
X87630000Y-46260000D03*
X87630000Y-50260000D03*
D11*
X74201000Y-44288000D03*
X78201000Y-44288000D03*
D17*
X70181000Y-43093000D03*
X70181000Y-47093000D03*
D14*
X70251000Y-27613000D03*
X70251000Y-23613000D03*
D16*
X67041000Y-50293000D03*
X63041000Y-50293000D03*
X67426000Y-21563000D03*
X63426000Y-21563000D03*
D14*
X33782000Y-48704000D03*
X33782000Y-44704000D03*
D17*
X30988000Y-40672000D03*
X30988000Y-44672000D03*
D14*
X33782000Y-33750000D03*
X33782000Y-29750000D03*
D17*
X30988000Y-25940000D03*
X30988000Y-29940000D03*
D14*
X137176000Y-59338000D03*
X137176000Y-55338000D03*
D17*
X139310999Y-72598000D03*
X139310999Y-76598000D03*
D12*
X141626000Y-58838000D03*
D13*
X141626000Y-56838000D03*
D18*
X137551000Y-80613000D03*
D13*
X137551000Y-82613000D03*
D14*
X145926000Y-59338000D03*
X145926000Y-55338000D03*
X145876000Y-76613000D03*
X145876000Y-72613000D03*
D17*
X141900000Y-72600000D03*
X141900000Y-76600000D03*
D18*
X144201000Y-80613000D03*
D13*
X144201000Y-82613000D03*
D16*
X152801000Y-26963000D03*
X148801000Y-26963000D03*
X152801000Y-39163000D03*
X148801000Y-39163000D03*
D14*
X160639001Y-35000000D03*
X160639001Y-31000000D03*
D11*
X153751000Y-62013000D03*
X157751000Y-62013000D03*
D17*
X160876000Y-58838000D03*
X160876000Y-62838000D03*
X149201000Y-55363000D03*
X149201000Y-59363000D03*
D14*
X38100000Y-92678000D03*
X38100000Y-88678000D03*
X42164000Y-92678000D03*
X42164000Y-88678000D03*
X49400000Y-102050000D03*
X49400000Y-98050000D03*
X52100000Y-102050000D03*
X52100000Y-98050000D03*
D11*
X46260000Y-112014000D03*
X50260000Y-112014000D03*
X38050000Y-102870000D03*
X42050000Y-102870000D03*
X38050000Y-99822000D03*
X42050000Y-99822000D03*
X38050000Y-96774000D03*
X42050000Y-96774000D03*
D14*
X87630000Y-62960000D03*
X87630000Y-58960000D03*
D16*
X89598000Y-75184000D03*
X85598000Y-75184000D03*
X89623000Y-72644000D03*
X85623000Y-72644000D03*
D11*
X74323000Y-78939000D03*
X78323000Y-78939000D03*
D17*
X70223000Y-76764000D03*
X70223000Y-80764000D03*
D14*
X70813000Y-61714000D03*
X70813000Y-57714000D03*
D17*
X64262000Y-78518000D03*
X64262000Y-82518000D03*
D16*
X67024000Y-55880000D03*
X63024000Y-55880000D03*
D14*
X34036000Y-80486000D03*
X34036000Y-76486000D03*
D17*
X31242000Y-72168000D03*
X31242000Y-76168000D03*
D14*
X33782000Y-66583000D03*
X33782000Y-62583000D03*
D17*
X31242000Y-58353000D03*
X31242000Y-62353000D03*
X114251000Y-53963000D03*
X114251000Y-57963000D03*
D16*
X114251000Y-46813000D03*
X110251000Y-46813000D03*
D19*
X114079020Y-19812000D03*
X118076980Y-19812000D03*
D20*
X99536000Y-51562000D03*
X95536000Y-51562000D03*
D21*
X149176000Y-76613000D03*
X149176000Y-72613000D03*
D20*
X132576499Y-65898500D03*
X128576499Y-65898500D03*
D22*
X30450000Y-90701020D03*
X30450000Y-94698980D03*
D23*
X45825000Y-101873980D03*
X45825000Y-97876020D03*
D20*
X99282000Y-61468000D03*
X95282000Y-61468000D03*
X66262000Y-112014000D03*
X62262000Y-112014000D03*
D24*
X29925000Y-99600000D03*
X29925000Y-103600000D03*
D25*
X154228833Y-54962500D03*
X156428833Y-54962500D03*
D26*
X46736000Y-92794000D03*
X46736000Y-90594000D03*
D27*
X111151000Y-56363000D03*
X111151000Y-53863000D03*
D28*
X171601000Y-88913000D03*
D29*
X171601000Y-83913000D03*
D30*
X176101000Y-88913000D03*
D29*
X171601000Y-93913000D03*
D28*
X171626000Y-103413000D03*
D29*
X171626000Y-98413000D03*
D30*
X176126000Y-103413000D03*
D29*
X171626000Y-108413000D03*
D31*
X50626000Y-50063000D03*
X43626000Y-46463000D03*
X50651000Y-41988000D03*
X43651000Y-38388000D03*
X50670000Y-33930000D03*
X43670000Y-30330000D03*
X50670000Y-25850000D03*
X43670000Y-22250000D03*
X50688000Y-83610000D03*
X43688000Y-80010000D03*
X50744000Y-75206000D03*
X43744000Y-71606000D03*
X50744000Y-66824000D03*
X43744000Y-63224000D03*
X50744000Y-58442000D03*
X43744000Y-54842000D03*
D32*
X128778000Y-96774000D03*
D33*
X128778000Y-94234000D03*
X128778000Y-91694000D03*
X128778000Y-89154000D03*
D34*
X85090000Y-107950000D03*
D33*
X85090000Y-110490000D03*
X85090000Y-113030000D03*
D35*
X127254000Y-24892000D03*
D36*
X127254000Y-22352000D03*
X129794000Y-24892000D03*
X129794000Y-22352000D03*
X132334000Y-24892000D03*
X132334000Y-22352000D03*
X134874000Y-24892000D03*
X134874000Y-22352000D03*
X137414000Y-24892000D03*
X137414000Y-22352000D03*
D35*
X121076000Y-110438000D03*
D36*
X121076000Y-107898000D03*
X123616000Y-110438000D03*
X123616000Y-107898000D03*
X126156000Y-110438000D03*
X126156000Y-107898000D03*
X128696000Y-110438000D03*
X128696000Y-107898000D03*
X131236000Y-110438000D03*
X131236000Y-107898000D03*
X133776000Y-110438000D03*
X133776000Y-107898000D03*
X136316000Y-110438000D03*
X136316000Y-107898000D03*
X138856000Y-110438000D03*
X138856000Y-107898000D03*
D37*
X159512000Y-93980000D03*
D36*
X156972000Y-93980000D03*
X159512000Y-91440000D03*
X156972000Y-91440000D03*
X159512000Y-88900000D03*
X156972000Y-88900000D03*
X159512000Y-86360000D03*
X156972000Y-86360000D03*
D37*
X159526000Y-108438000D03*
D36*
X156986000Y-108438000D03*
X159526000Y-105898000D03*
X156986000Y-105898000D03*
X159526000Y-103358000D03*
X156986000Y-103358000D03*
X159526000Y-100818000D03*
X156986000Y-100818000D03*
D38*
X23851000Y-43173000D03*
D39*
X23851000Y-48253000D03*
D38*
X23851000Y-28573000D03*
D39*
X23851000Y-33653000D03*
D40*
X164876000Y-37663000D03*
X170876000Y-33063000D03*
X164876000Y-28463000D03*
D41*
X166976000Y-30523000D03*
X166976000Y-33063000D03*
X166976000Y-35603000D03*
D40*
X164651000Y-65163000D03*
X170651000Y-60563000D03*
X164651000Y-55963000D03*
D41*
X166751000Y-58023000D03*
X166751000Y-60563000D03*
X166751000Y-63103000D03*
D38*
X23870000Y-98110000D03*
D39*
X23870000Y-103190000D03*
D38*
X24001000Y-74003000D03*
D39*
X24001000Y-79083000D03*
D38*
X23921000Y-59713000D03*
D39*
X23921000Y-64793000D03*
D42*
X130810000Y-52324000D03*
X84811000Y-32123000D03*
X135382000Y-64770000D03*
X145666381Y-35591000D03*
X106934000Y-43688000D03*
X126100000Y-52350000D03*
X132334000Y-74676000D03*
X85500000Y-29900000D03*
X82051000Y-26453000D03*
X145451000Y-28813000D03*
X112301000Y-51313000D03*
X114901000Y-49713000D03*
X110551000Y-49363000D03*
D20*
X33750000Y-84450000D03*
X29750000Y-84450000D03*
D21*
X88900000Y-112490000D03*
X88900000Y-108490000D03*
D20*
X86328000Y-93472000D03*
X82328000Y-93472000D03*
D21*
X105156000Y-111728000D03*
X105156000Y-107728000D03*
D10*
X105442000Y-97513000D03*
X109442000Y-97513000D03*
D21*
X102108000Y-111813000D03*
X102108000Y-107813000D03*
X166573000Y-88691000D03*
X166573000Y-84691000D03*
X166101000Y-103013000D03*
X166101000Y-99013000D03*
D10*
X148622000Y-94663000D03*
X152622000Y-94663000D03*
X148622000Y-89094000D03*
X152622000Y-89094000D03*
X148779000Y-108889000D03*
X152779000Y-108889000D03*
X148779000Y-103393000D03*
X152779000Y-103393000D03*
X148622000Y-91913000D03*
X152622000Y-91913000D03*
X148622000Y-86350000D03*
X152622000Y-86350000D03*
X148801000Y-106063000D03*
X152801000Y-106063000D03*
X148751000Y-100613000D03*
X152751000Y-100613000D03*
D20*
X99536000Y-48768000D03*
X95536000Y-48768000D03*
D24*
X134026000Y-55363000D03*
X134026000Y-59363000D03*
X130651000Y-55338000D03*
X130651000Y-59338000D03*
D21*
X135301000Y-76663000D03*
X135301000Y-72663000D03*
D10*
X128615501Y-68893500D03*
X132615501Y-68893500D03*
D21*
X146001000Y-69088000D03*
X146001000Y-65088000D03*
D10*
X128551000Y-62913000D03*
X132551000Y-62913000D03*
D20*
X157576000Y-58738000D03*
X153576000Y-58738000D03*
D10*
X54642000Y-112050000D03*
X58642000Y-112050000D03*
D20*
X58642000Y-109150000D03*
X54642000Y-109150000D03*
X99282000Y-64770000D03*
X95282000Y-64770000D03*
X130901000Y-43713000D03*
X126901000Y-43713000D03*
D10*
X110101000Y-40663000D03*
X114101000Y-40663000D03*
X110101000Y-43713000D03*
X114101000Y-43713000D03*
D20*
X130901000Y-49813000D03*
X126901000Y-49813000D03*
X130951000Y-46813000D03*
X126951000Y-46813000D03*
X130951000Y-40663000D03*
X126951000Y-40663000D03*
D10*
X62262000Y-109220000D03*
X66262000Y-109220000D03*
D43*
X78994000Y-49784000D03*
X76454000Y-52324000D03*
X73914000Y-49784000D03*
D44*
X21375000Y-93275000D03*
X21375000Y-86775000D03*
X25875000Y-93275000D03*
X25875000Y-86775000D03*
D45*
X91426000Y-97163000D03*
X91426000Y-97663000D03*
X91426000Y-98163000D03*
X91426000Y-98663000D03*
X91426000Y-99163000D03*
X91426000Y-99663000D03*
X91426000Y-100163000D03*
X91426000Y-100663000D03*
X91426000Y-101163000D03*
X91426000Y-101663000D03*
X91426000Y-102163000D03*
X91426000Y-102663000D03*
D46*
X93026000Y-104263000D03*
X93526000Y-104263000D03*
X94026000Y-104263000D03*
X94526000Y-104263000D03*
X95026000Y-104263000D03*
X95526000Y-104263000D03*
X96026000Y-104263000D03*
X96526000Y-104263000D03*
X97026000Y-104263000D03*
X97526000Y-104263000D03*
X98026000Y-104263000D03*
X98526000Y-104263000D03*
D45*
X100126000Y-102663000D03*
X100126000Y-102163000D03*
X100126000Y-101663000D03*
X100126000Y-101163000D03*
X100126000Y-100663000D03*
X100126000Y-100163000D03*
X100126000Y-99663000D03*
X100126000Y-99163000D03*
X100126000Y-98663000D03*
X100126000Y-98163000D03*
X100126000Y-97663000D03*
X100126000Y-97163000D03*
D46*
X98526000Y-95563000D03*
X98026000Y-95563000D03*
X97526000Y-95563000D03*
X97026000Y-95563000D03*
X96526000Y-95563000D03*
X96026000Y-95563000D03*
X95526000Y-95563000D03*
X95026000Y-95563000D03*
X94526000Y-95563000D03*
X94026000Y-95563000D03*
X93526000Y-95563000D03*
X93026000Y-95563000D03*
D47*
X113792905Y-109363000D03*
X113792905Y-108093000D03*
X113792905Y-106823000D03*
X113792905Y-105553000D03*
X108392905Y-105553000D03*
X108392905Y-106823000D03*
X108392905Y-108093000D03*
X108392905Y-109363000D03*
D48*
X103026000Y-34048000D03*
X103026000Y-32778000D03*
X103026000Y-31508000D03*
X103026000Y-30238000D03*
X103026000Y-28968000D03*
X103026000Y-27698000D03*
X103026000Y-26428000D03*
X97626000Y-26428000D03*
X97626000Y-27698000D03*
X97626000Y-28968000D03*
X97626000Y-30238000D03*
X97626000Y-31508000D03*
X97626000Y-32778000D03*
X97626000Y-34048000D03*
D49*
X80676000Y-40513000D03*
X80676000Y-40013000D03*
X80676000Y-39513000D03*
X80676000Y-39013000D03*
X80676000Y-38513000D03*
X80676000Y-38013000D03*
X80676000Y-37513000D03*
X80676000Y-37013000D03*
X80676000Y-36513000D03*
X80676000Y-36013000D03*
X80676000Y-35513000D03*
X80676000Y-35013000D03*
X80676000Y-34513000D03*
X80676000Y-34013000D03*
X80676000Y-33513000D03*
X80676000Y-33013000D03*
X80676000Y-32513000D03*
X80676000Y-32013000D03*
X80676000Y-31513000D03*
X80676000Y-31013000D03*
X80676000Y-30513000D03*
X80676000Y-30013000D03*
X80676000Y-29513000D03*
X80676000Y-29013000D03*
X73176000Y-29013000D03*
X73176000Y-29513000D03*
X73176000Y-30013000D03*
X73176000Y-30513000D03*
X73176000Y-31013000D03*
X73176000Y-31513000D03*
X73176000Y-32013000D03*
X73176000Y-32513000D03*
X73176000Y-33013000D03*
X73176000Y-33513000D03*
X73176000Y-34013000D03*
X73176000Y-34513000D03*
X73176000Y-35013000D03*
X73176000Y-35513000D03*
X73176000Y-36013000D03*
X73176000Y-36513000D03*
X73176000Y-37013000D03*
X73176000Y-37513000D03*
X73176000Y-38013000D03*
X73176000Y-38513000D03*
X73176000Y-39013000D03*
X73176000Y-39513000D03*
X73176000Y-40013000D03*
X73176000Y-40513000D03*
D50*
X76926000Y-34763000D03*
D51*
X141900999Y-63112700D03*
X141401000Y-63112700D03*
X140901001Y-63112700D03*
X140401000Y-63112700D03*
X139901000Y-63112700D03*
X139400999Y-63112700D03*
X138901000Y-63112700D03*
X138401001Y-63112700D03*
D52*
X137750700Y-63763001D03*
X137750700Y-64263000D03*
X137750700Y-64762999D03*
X137750700Y-65263000D03*
X137750700Y-65763000D03*
X137750700Y-66263001D03*
X137750700Y-66763000D03*
X137750700Y-67262999D03*
D51*
X138401001Y-67913300D03*
X138901000Y-67913300D03*
X139400999Y-67913300D03*
X139901000Y-67913300D03*
X140401000Y-67913300D03*
X140901001Y-67913300D03*
X141401000Y-67913300D03*
X141900999Y-67913300D03*
D52*
X142551300Y-67262999D03*
X142551300Y-66763000D03*
X142551300Y-66263001D03*
X142551300Y-65763000D03*
X142551300Y-65263000D03*
X142551300Y-64762999D03*
X142551300Y-64263000D03*
X142551300Y-63763001D03*
D53*
X140151000Y-65513000D03*
D54*
X156356381Y-30013501D03*
X155706380Y-30013501D03*
X155056381Y-30013501D03*
X154406380Y-30013501D03*
X153756382Y-30013501D03*
X153106380Y-30013501D03*
X152456382Y-30013501D03*
X151806383Y-30013501D03*
X151156382Y-30013501D03*
X150506383Y-30013501D03*
X149856382Y-30013501D03*
X149206383Y-30013501D03*
X148556382Y-30013501D03*
X147906383Y-30013501D03*
X147906381Y-35779301D03*
X148556382Y-35779301D03*
X149206381Y-35779301D03*
X149856382Y-35779301D03*
X150506380Y-35779301D03*
X151156382Y-35779301D03*
X151806380Y-35779301D03*
X152456382Y-35779301D03*
X153106380Y-35779301D03*
X153756382Y-35779301D03*
X154406380Y-35779301D03*
X155056381Y-35779301D03*
X155706380Y-35779301D03*
X156356381Y-35779301D03*
D55*
X48580000Y-108030000D03*
X49530000Y-108030000D03*
X50480000Y-108030000D03*
X50480000Y-105330000D03*
X49530000Y-105330000D03*
X48580000Y-105330000D03*
D49*
X80648000Y-73714000D03*
X80648000Y-73214000D03*
X80648000Y-72714000D03*
X80648000Y-72214000D03*
X80648000Y-71714000D03*
X80648000Y-71214000D03*
X80648000Y-70714000D03*
X80648000Y-70214000D03*
X80648000Y-69714000D03*
X80648000Y-69214000D03*
X80648000Y-68714000D03*
X80648000Y-68214000D03*
X80648000Y-67714000D03*
X80648000Y-67214000D03*
X80648000Y-66714000D03*
X80648000Y-66214000D03*
X80648000Y-65714000D03*
X80648000Y-65214000D03*
X80648000Y-64714000D03*
X80648000Y-64214000D03*
X80648000Y-63714000D03*
X80648000Y-63214000D03*
X80648000Y-62714000D03*
X80648000Y-62214000D03*
X73148000Y-62214000D03*
X73148000Y-62714000D03*
X73148000Y-63214000D03*
X73148000Y-63714000D03*
X73148000Y-64214000D03*
X73148000Y-64714000D03*
X73148000Y-65214000D03*
X73148000Y-65714000D03*
X73148000Y-66214000D03*
X73148000Y-66714000D03*
X73148000Y-67214000D03*
X73148000Y-67714000D03*
X73148000Y-68214000D03*
X73148000Y-68714000D03*
X73148000Y-69214000D03*
X73148000Y-69714000D03*
X73148000Y-70214000D03*
X73148000Y-70714000D03*
X73148000Y-71214000D03*
X73148000Y-71714000D03*
X73148000Y-72214000D03*
X73148000Y-72714000D03*
X73148000Y-73214000D03*
X73148000Y-73714000D03*
D50*
X76898000Y-67964000D03*
D48*
X123201000Y-49958000D03*
X123201000Y-48688000D03*
X123201000Y-47418000D03*
X123201000Y-46148000D03*
X123201000Y-44878000D03*
X123201000Y-43608000D03*
X123201000Y-42338000D03*
X123201000Y-41068000D03*
X117801000Y-41068000D03*
X117801000Y-42338000D03*
X117801000Y-43608000D03*
X117801000Y-44878000D03*
X117801000Y-46148000D03*
X117801000Y-47418000D03*
X117801000Y-48688000D03*
X117801000Y-49958000D03*
D56*
X118171000Y-59263000D03*
X123431000Y-59263000D03*
X123431000Y-54263000D03*
X118171000Y-54263000D03*
D42*
X34544000Y-99314000D03*
D15*
X59944000Y-95504000D03*
D13*
X67444000Y-95504000D03*
D57*
X60551000Y-36788000D03*
X63051000Y-36788000D03*
X67451000Y-39443000D03*
X69951000Y-39443000D03*
X67426000Y-32113000D03*
X69926000Y-32113000D03*
X60526000Y-34638000D03*
X63026000Y-34638000D03*
X60663000Y-70224000D03*
X63163000Y-70224000D03*
X67163000Y-73054000D03*
X69663000Y-73054000D03*
X67163000Y-65204000D03*
X69663000Y-65204000D03*
X60703000Y-68014000D03*
X63203000Y-68014000D03*
D58*
X42333000Y-109982000D03*
X34883000Y-109982000D03*
D59*
X91694000Y-85090000D03*
D36*
X91694000Y-82550000D03*
X94234000Y-85090000D03*
X94234000Y-82550000D03*
X96774000Y-85090000D03*
X96774000Y-82550000D03*
X99314000Y-85090000D03*
X99314000Y-82550000D03*
D16*
X146775000Y-42950000D03*
X142775000Y-42950000D03*
D17*
X166725000Y-44350000D03*
X166725000Y-48350000D03*
X163775000Y-72150000D03*
X163775000Y-76150000D03*
D14*
X149200000Y-69075000D03*
X149200000Y-65075000D03*
X127675000Y-59300000D03*
X127675000Y-55300000D03*
D28*
X171450000Y-47000000D03*
D29*
X171450000Y-42000000D03*
D30*
X175950000Y-47000000D03*
D29*
X171450000Y-52000000D03*
D28*
X171450000Y-74375000D03*
D29*
X171450000Y-69375000D03*
D30*
X175950000Y-74375000D03*
D29*
X171450000Y-79375000D03*
D32*
X121920000Y-70104000D03*
D33*
X121920000Y-67564000D03*
X121920000Y-65024000D03*
D10*
X142775000Y-46225000D03*
X146775000Y-46225000D03*
D20*
X146775000Y-49425000D03*
X142775000Y-49425000D03*
D24*
X167200000Y-72100000D03*
X167200000Y-76100000D03*
D60*
X150850000Y-44260000D03*
X150850000Y-46800000D03*
X150850000Y-49340000D03*
X162350000Y-49340000D03*
X162350000Y-46800000D03*
X162350000Y-44260000D03*
D61*
X154585000Y-79075000D03*
X157125000Y-79075000D03*
X159665000Y-79075000D03*
X159665000Y-67575000D03*
X157125000Y-67575000D03*
X154585000Y-67575000D03*
D62*
X28702000Y-110744000D03*
D63*
X24952000Y-111729000D03*
X24952000Y-109759000D03*
D42*
X104394000Y-59690000D03*
X84074000Y-27940000D03*
D20*
X87598000Y-23876000D03*
X83598000Y-23876000D03*
X119316000Y-34438000D03*
X115316000Y-34438000D03*
D43*
X79502000Y-21082000D03*
X76962000Y-23622000D03*
X74422000Y-21082000D03*
D21*
X109220000Y-29686000D03*
X109220000Y-25686000D03*
D19*
X95537020Y-39370000D03*
X99534980Y-39370000D03*
D42*
X104902000Y-55118000D03*
D64*
X105025000Y-69794000D03*
X105675000Y-69794000D03*
X106325000Y-69794000D03*
X106975000Y-69794000D03*
X107625000Y-69794000D03*
X108275000Y-69794000D03*
X108925000Y-69794000D03*
X109575000Y-69794000D03*
X110225000Y-69794000D03*
X110875000Y-69794000D03*
X110875000Y-62794000D03*
X110225000Y-62794000D03*
X109575000Y-62794000D03*
X108925000Y-62794000D03*
X108275000Y-62794000D03*
X107625000Y-62794000D03*
X106975000Y-62794000D03*
X106325000Y-62794000D03*
X105675000Y-62794000D03*
X105025000Y-62794000D03*
D42*
X106172000Y-28194000D03*
X106426000Y-57404000D03*
D10*
X83598000Y-21082000D03*
X87598000Y-21082000D03*
D65*
X74066000Y-108444000D03*
X74066000Y-110744000D03*
D66*
X80366000Y-110744000D03*
D65*
X74066000Y-113044000D03*
D42*
X92456000Y-45974000D03*
D65*
X74066000Y-97014000D03*
X74066000Y-99314000D03*
D66*
X80366000Y-99314000D03*
D65*
X74066000Y-101614000D03*
D19*
X95537020Y-43942000D03*
X99534980Y-43942000D03*
M02*
