G04 #@! TF.GenerationSoftware,KiCad,Pcbnew,7.0.1*
G04 #@! TF.CreationDate,2024-01-30T15:52:28+01:00*
G04 #@! TF.ProjectId,smd_aio,736d645f-6169-46f2-9e6b-696361645f70,rev?*
G04 #@! TF.SameCoordinates,Original*
G04 #@! TF.FileFunction,Soldermask,Top*
G04 #@! TF.FilePolarity,Negative*
%FSLAX46Y46*%
G04 Gerber Fmt 4.6, Leading zero omitted, Abs format (unit mm)*
G04 Created by KiCad (PCBNEW 7.0.1) date 2024-01-30 15:52:28*
%MOMM*%
%LPD*%
G01*
G04 APERTURE LIST*
G04 Aperture macros list*
%AMRoundRect*
0 Rectangle with rounded corners*
0 $1 Rounding radius*
0 $2 $3 $4 $5 $6 $7 $8 $9 X,Y pos of 4 corners*
0 Add a 4 corners polygon primitive as box body*
4,1,4,$2,$3,$4,$5,$6,$7,$8,$9,$2,$3,0*
0 Add four circle primitives for the rounded corners*
1,1,$1+$1,$2,$3*
1,1,$1+$1,$4,$5*
1,1,$1+$1,$6,$7*
1,1,$1+$1,$8,$9*
0 Add four rect primitives between the rounded corners*
20,1,$1+$1,$2,$3,$4,$5,0*
20,1,$1+$1,$4,$5,$6,$7,0*
20,1,$1+$1,$6,$7,$8,$9,0*
20,1,$1+$1,$8,$9,$2,$3,0*%
G04 Aperture macros list end*
%ADD10R,3.352800X3.352800*%
%ADD11R,1.506100X0.279400*%
%ADD12R,0.279400X1.506100*%
%ADD13R,1.503050X0.279400*%
%ADD14C,1.500000*%
%ADD15R,1.800860X2.499360*%
%ADD16R,1.000000X0.285000*%
%ADD17R,3.600000X6.400000*%
%ADD18C,1.200000*%
%ADD19R,2.000000X1.600000*%
%ADD20R,1.300000X1.300000*%
%ADD21C,1.300000*%
%ADD22R,1.600000X2.000000*%
%ADD23R,2.499360X1.800860*%
%ADD24R,2.000000X1.700000*%
%ADD25R,1.700000X2.000000*%
%ADD26R,1.200000X0.900000*%
%ADD27R,1.250000X1.500000*%
%ADD28O,3.000000X2.300000*%
%ADD29O,4.000000X3.200000*%
%ADD30O,3.200000X4.000000*%
%ADD31C,1.400000*%
%ADD32R,2.032000X1.727200*%
%ADD33O,2.032000X1.727200*%
%ADD34R,1.727200X1.727200*%
%ADD35O,1.727200X1.727200*%
%ADD36R,2.540000X2.540000*%
%ADD37C,2.540000*%
%ADD38C,2.100000*%
%ADD39C,1.600000*%
%ADD40C,2.000000*%
%ADD41R,1.300000X0.250000*%
%ADD42R,0.250000X1.300000*%
%ADD43R,1.550000X0.600000*%
%ADD44R,1.500000X0.600000*%
%ADD45R,0.355600X1.447800*%
%ADD46R,1.100000X0.600000*%
%ADD47R,1.980000X3.000000*%
%ADD48R,1.500000X1.250000*%
%ADD49R,2.650000X3.500000*%
%ADD50R,1.600000X1.000000*%
%ADD51R,1.000000X1.600000*%
%ADD52R,4.670000X4.160000*%
%ADD53R,1.160000X1.460000*%
%ADD54RoundRect,0.125000X0.125000X-0.825000X0.125000X0.825000X-0.125000X0.825000X-0.125000X-0.825000X0*%
%ADD55R,2.000000X1.500000*%
%ADD56R,2.000000X3.800000*%
G04 APERTURE END LIST*
D10*
X140151000Y-65513000D03*
D11*
X142897950Y-63763001D03*
X142897950Y-64263000D03*
X142897950Y-64762999D03*
X142897950Y-65263000D03*
X142897950Y-65763000D03*
X142897950Y-66263001D03*
X142897950Y-66763000D03*
X142897950Y-67262999D03*
D12*
X141900999Y-68259950D03*
X141401000Y-68259950D03*
X140901001Y-68259950D03*
X140401000Y-68259950D03*
X139901000Y-68259950D03*
X139400999Y-68259950D03*
X138901000Y-68259950D03*
X138401001Y-68259950D03*
D11*
X137404050Y-67262999D03*
X137404050Y-66763000D03*
D13*
X137402525Y-66263001D03*
D11*
X137404050Y-65763000D03*
X137404050Y-65263000D03*
X137404050Y-64762999D03*
X137404050Y-64263000D03*
X137404050Y-63763001D03*
D12*
X138401001Y-62766050D03*
X138901000Y-62766050D03*
X139400999Y-62766050D03*
X139901000Y-62766050D03*
X140401000Y-62766050D03*
X140901001Y-62766050D03*
X141401000Y-62766050D03*
X141900999Y-62766050D03*
D14*
X70231000Y-102108000D03*
D15*
X91440000Y-52357020D03*
X91440000Y-56354980D03*
D16*
X80676000Y-40513000D03*
X80676000Y-40013000D03*
X80676000Y-39513000D03*
X80676000Y-39013000D03*
X80676000Y-38513000D03*
X80676000Y-38013000D03*
X80676000Y-37513000D03*
X80676000Y-37013000D03*
X80676000Y-36513000D03*
X80676000Y-36013000D03*
X80676000Y-35513000D03*
X80676000Y-35013000D03*
X80676000Y-34513000D03*
X80676000Y-34013000D03*
X80676000Y-33513000D03*
X80676000Y-33013000D03*
X80676000Y-32513000D03*
X80676000Y-32013000D03*
X80676000Y-31513000D03*
X80676000Y-31013000D03*
X80676000Y-30513000D03*
X80676000Y-30013000D03*
X80676000Y-29513000D03*
X80676000Y-29013000D03*
X73176000Y-29013000D03*
X73176000Y-29513000D03*
X73176000Y-30013000D03*
X73176000Y-30513000D03*
X73176000Y-31013000D03*
X73176000Y-31513000D03*
X73176000Y-32013000D03*
X73176000Y-32513000D03*
X73176000Y-33013000D03*
X73176000Y-33513000D03*
X73176000Y-34013000D03*
X73176000Y-34513000D03*
X73176000Y-35013000D03*
X73176000Y-35513000D03*
X73176000Y-36013000D03*
X73176000Y-36513000D03*
X73176000Y-37013000D03*
X73176000Y-37513000D03*
X73176000Y-38013000D03*
X73176000Y-38513000D03*
X73176000Y-39013000D03*
X73176000Y-39513000D03*
X73176000Y-40013000D03*
X73176000Y-40513000D03*
D17*
X76926000Y-34763000D03*
D16*
X80648000Y-73714000D03*
X80648000Y-73214000D03*
X80648000Y-72714000D03*
X80648000Y-72214000D03*
X80648000Y-71714000D03*
X80648000Y-71214000D03*
X80648000Y-70714000D03*
X80648000Y-70214000D03*
X80648000Y-69714000D03*
X80648000Y-69214000D03*
X80648000Y-68714000D03*
X80648000Y-68214000D03*
X80648000Y-67714000D03*
X80648000Y-67214000D03*
X80648000Y-66714000D03*
X80648000Y-66214000D03*
X80648000Y-65714000D03*
X80648000Y-65214000D03*
X80648000Y-64714000D03*
X80648000Y-64214000D03*
X80648000Y-63714000D03*
X80648000Y-63214000D03*
X80648000Y-62714000D03*
X80648000Y-62214000D03*
X73148000Y-62214000D03*
X73148000Y-62714000D03*
X73148000Y-63214000D03*
X73148000Y-63714000D03*
X73148000Y-64214000D03*
X73148000Y-64714000D03*
X73148000Y-65214000D03*
X73148000Y-65714000D03*
X73148000Y-66214000D03*
X73148000Y-66714000D03*
X73148000Y-67214000D03*
X73148000Y-67714000D03*
X73148000Y-68214000D03*
X73148000Y-68714000D03*
X73148000Y-69214000D03*
X73148000Y-69714000D03*
X73148000Y-70214000D03*
X73148000Y-70714000D03*
X73148000Y-71214000D03*
X73148000Y-71714000D03*
X73148000Y-72214000D03*
X73148000Y-72714000D03*
X73148000Y-73214000D03*
X73148000Y-73714000D03*
D17*
X76898000Y-67964000D03*
D18*
X78994000Y-49784000D03*
X76454000Y-52324000D03*
X76454000Y-49824000D03*
X73914000Y-49784000D03*
X79502000Y-21082000D03*
X76962000Y-23622000D03*
X76962000Y-21122000D03*
X74422000Y-21082000D03*
D19*
X157512000Y-23876000D03*
X161512000Y-23876000D03*
D20*
X74676000Y-91186000D03*
D21*
X74676000Y-89186000D03*
D22*
X85051000Y-101963000D03*
X85051000Y-97963000D03*
X87951000Y-101963000D03*
X87951000Y-97963000D03*
D20*
X96401000Y-110213000D03*
D21*
X98401000Y-110213000D03*
D22*
X92800000Y-112610000D03*
X92800000Y-108610000D03*
D20*
X121158000Y-90678000D03*
D21*
X123158000Y-90678000D03*
D19*
X110151000Y-94763000D03*
X106151000Y-94763000D03*
D22*
X113411000Y-87916000D03*
X113411000Y-91916000D03*
X117094000Y-87916000D03*
X117094000Y-91916000D03*
D19*
X86328000Y-85852000D03*
X82328000Y-85852000D03*
X86328000Y-89662000D03*
X82328000Y-89662000D03*
D20*
X106680000Y-88392000D03*
D21*
X108680000Y-88392000D03*
D19*
X112401000Y-111963000D03*
X108401000Y-111963000D03*
D22*
X99060000Y-92170000D03*
X99060000Y-88170000D03*
X102108000Y-92170000D03*
X102108000Y-88170000D03*
X96266000Y-92163000D03*
X96266000Y-88163000D03*
D19*
X109442000Y-102870000D03*
X105442000Y-102870000D03*
X109442000Y-100213000D03*
X105442000Y-100213000D03*
D20*
X164601000Y-94263000D03*
D21*
X166601000Y-94263000D03*
D20*
X164051000Y-108313000D03*
D21*
X166051000Y-108313000D03*
D19*
X107726000Y-34388000D03*
X111726000Y-34388000D03*
D22*
X114076000Y-25763000D03*
X114076000Y-29763000D03*
X93726000Y-32553000D03*
X93726000Y-28553000D03*
X89531000Y-32553000D03*
X89531000Y-28553000D03*
D19*
X90576000Y-41868000D03*
X86576000Y-41868000D03*
X90551000Y-38593000D03*
X86551000Y-38593000D03*
D22*
X87630000Y-50260000D03*
X87630000Y-46260000D03*
D19*
X74201000Y-44288000D03*
X78201000Y-44288000D03*
D22*
X70181000Y-43093000D03*
X70181000Y-47093000D03*
X70251000Y-27613000D03*
X70251000Y-23613000D03*
D19*
X67041000Y-50293000D03*
X63041000Y-50293000D03*
X67426000Y-21563000D03*
X63426000Y-21563000D03*
D22*
X33782000Y-48704000D03*
X33782000Y-44704000D03*
X30988000Y-40672000D03*
X30988000Y-44672000D03*
X33782000Y-33750000D03*
X33782000Y-29750000D03*
X30988000Y-25940000D03*
X30988000Y-29940000D03*
X137414000Y-58261000D03*
X137414000Y-54261000D03*
X139310999Y-72598000D03*
X139310999Y-76598000D03*
D20*
X141626000Y-58838000D03*
D21*
X141626000Y-56838000D03*
D20*
X137551000Y-80613000D03*
D21*
X137551000Y-82613000D03*
D22*
X145926000Y-59338000D03*
X145926000Y-55338000D03*
X145876000Y-76613000D03*
X145876000Y-72613000D03*
X141900000Y-72600000D03*
X141900000Y-76600000D03*
D20*
X144201000Y-80613000D03*
D21*
X144201000Y-82613000D03*
D19*
X152801000Y-26963000D03*
X148801000Y-26963000D03*
X152801000Y-39163000D03*
X148801000Y-39163000D03*
D22*
X160639001Y-35000000D03*
X160639001Y-31000000D03*
D19*
X153751000Y-62013000D03*
X157751000Y-62013000D03*
D22*
X160876000Y-58838000D03*
X160876000Y-62838000D03*
X149201000Y-55363000D03*
X149201000Y-59363000D03*
X35560000Y-89313000D03*
X35560000Y-93313000D03*
X39624000Y-89313000D03*
X39624000Y-93313000D03*
X56134000Y-85122000D03*
X56134000Y-89122000D03*
X60198000Y-85122000D03*
X60198000Y-89122000D03*
X62818000Y-99282000D03*
X62818000Y-95282000D03*
D19*
X71660000Y-84582000D03*
X75660000Y-84582000D03*
X70834000Y-99568000D03*
X66834000Y-99568000D03*
X70834000Y-96266000D03*
X66834000Y-96266000D03*
D22*
X87630000Y-62960000D03*
X87630000Y-58960000D03*
D19*
X89598000Y-75184000D03*
X85598000Y-75184000D03*
X89623000Y-72644000D03*
X85623000Y-72644000D03*
X74323000Y-78939000D03*
X78323000Y-78939000D03*
D22*
X70104000Y-76867000D03*
X70104000Y-80867000D03*
X70813000Y-61714000D03*
X70813000Y-57714000D03*
X65532000Y-76994000D03*
X65532000Y-80994000D03*
D19*
X67024000Y-55880000D03*
X63024000Y-55880000D03*
D22*
X34036000Y-80486000D03*
X34036000Y-76486000D03*
X31242000Y-72168000D03*
X31242000Y-76168000D03*
X33782000Y-66583000D03*
X33782000Y-62583000D03*
X31242000Y-58353000D03*
X31242000Y-62353000D03*
X114251000Y-53963000D03*
X114251000Y-57963000D03*
D19*
X114251000Y-46813000D03*
X110251000Y-46813000D03*
D23*
X114079020Y-19812000D03*
X118076980Y-19812000D03*
D24*
X99536000Y-51562000D03*
X95536000Y-51562000D03*
D25*
X149176000Y-76613000D03*
X149176000Y-72613000D03*
D24*
X132576499Y-65898500D03*
X128576499Y-65898500D03*
D15*
X29718000Y-85885020D03*
X29718000Y-89882980D03*
X54864000Y-103665020D03*
X54864000Y-107662980D03*
D24*
X99282000Y-61468000D03*
X95282000Y-61468000D03*
X52864000Y-113538000D03*
X56864000Y-113538000D03*
D25*
X29925000Y-99600000D03*
X29925000Y-103600000D03*
D26*
X154228833Y-54962500D03*
X156428833Y-54962500D03*
X44493000Y-91313000D03*
X46693000Y-91313000D03*
D27*
X111151000Y-56363000D03*
X111151000Y-53863000D03*
D28*
X171601000Y-88913000D03*
D29*
X171601000Y-83913000D03*
D30*
X176101000Y-88913000D03*
D29*
X171601000Y-93913000D03*
D28*
X171626000Y-103413000D03*
D29*
X171626000Y-98413000D03*
D30*
X176126000Y-103413000D03*
D29*
X171626000Y-108413000D03*
D31*
X50626000Y-50063000D03*
X43626000Y-46463000D03*
X50651000Y-41988000D03*
X43651000Y-38388000D03*
X50670000Y-33930000D03*
X43670000Y-30330000D03*
X50670000Y-25850000D03*
X43670000Y-22250000D03*
X50688000Y-83610000D03*
X43688000Y-80010000D03*
X50744000Y-75206000D03*
X43744000Y-71606000D03*
X50744000Y-66824000D03*
X43744000Y-63224000D03*
X50744000Y-58442000D03*
X43744000Y-54842000D03*
D32*
X128778000Y-96774000D03*
D33*
X128778000Y-94234000D03*
X128778000Y-91694000D03*
X128778000Y-89154000D03*
D32*
X85090000Y-107950000D03*
D33*
X85090000Y-110490000D03*
X85090000Y-113030000D03*
D34*
X127254000Y-24892000D03*
D35*
X127254000Y-22352000D03*
X129794000Y-24892000D03*
X129794000Y-22352000D03*
X132334000Y-24892000D03*
X132334000Y-22352000D03*
X134874000Y-24892000D03*
X134874000Y-22352000D03*
X137414000Y-24892000D03*
X137414000Y-22352000D03*
D34*
X121076000Y-110438000D03*
D35*
X121076000Y-107898000D03*
X123616000Y-110438000D03*
X123616000Y-107898000D03*
X126156000Y-110438000D03*
X126156000Y-107898000D03*
X128696000Y-110438000D03*
X128696000Y-107898000D03*
X131236000Y-110438000D03*
X131236000Y-107898000D03*
X133776000Y-110438000D03*
X133776000Y-107898000D03*
X136316000Y-110438000D03*
X136316000Y-107898000D03*
X138856000Y-110438000D03*
X138856000Y-107898000D03*
D34*
X159512000Y-93980000D03*
D35*
X156972000Y-93980000D03*
X159512000Y-91440000D03*
X156972000Y-91440000D03*
X159512000Y-88900000D03*
X156972000Y-88900000D03*
X159512000Y-86360000D03*
X156972000Y-86360000D03*
D34*
X159526000Y-108438000D03*
D35*
X156986000Y-108438000D03*
X159526000Y-105898000D03*
X156986000Y-105898000D03*
X159526000Y-103358000D03*
X156986000Y-103358000D03*
X159526000Y-100818000D03*
X156986000Y-100818000D03*
D36*
X23851000Y-43173000D03*
D37*
X23851000Y-48253000D03*
D36*
X23851000Y-28573000D03*
D37*
X23851000Y-33653000D03*
D38*
X164876000Y-37663000D03*
X170876000Y-33063000D03*
X164876000Y-28463000D03*
D39*
X166976000Y-30523000D03*
X166976000Y-33063000D03*
X166976000Y-35603000D03*
D38*
X164651000Y-65163000D03*
X170651000Y-60563000D03*
X164651000Y-55963000D03*
D39*
X166751000Y-58023000D03*
X166751000Y-60563000D03*
X166751000Y-63103000D03*
D36*
X23870000Y-98110000D03*
D37*
X23870000Y-103190000D03*
D36*
X24001000Y-74003000D03*
D37*
X24001000Y-79083000D03*
D36*
X23921000Y-59713000D03*
D37*
X23921000Y-64793000D03*
D14*
X136398000Y-47752000D03*
X84811000Y-32123000D03*
X137033000Y-45720000D03*
X145666381Y-35591000D03*
X106934000Y-43688000D03*
X125857000Y-52324000D03*
X132334000Y-74676000D03*
X85500000Y-29900000D03*
X82051000Y-26453000D03*
X145451000Y-28813000D03*
X112301000Y-51313000D03*
X114901000Y-49713000D03*
X110551000Y-49363000D03*
D24*
X157512000Y-20066000D03*
X161512000Y-20066000D03*
D25*
X88900000Y-112490000D03*
X88900000Y-108490000D03*
D24*
X86328000Y-93472000D03*
X82328000Y-93472000D03*
D25*
X105156000Y-111728000D03*
X105156000Y-107728000D03*
D24*
X105442000Y-97513000D03*
X109442000Y-97513000D03*
D25*
X102108000Y-111813000D03*
X102108000Y-107813000D03*
X166573000Y-88691000D03*
X166573000Y-84691000D03*
X166101000Y-103013000D03*
X166101000Y-99013000D03*
D24*
X148622000Y-94663000D03*
X152622000Y-94663000D03*
X148622000Y-89094000D03*
X152622000Y-89094000D03*
X148779000Y-108889000D03*
X152779000Y-108889000D03*
X148779000Y-103393000D03*
X152779000Y-103393000D03*
X148622000Y-91913000D03*
X152622000Y-91913000D03*
X148622000Y-86350000D03*
X152622000Y-86350000D03*
X148801000Y-106063000D03*
X152801000Y-106063000D03*
X148751000Y-100613000D03*
X152751000Y-100613000D03*
X99536000Y-48768000D03*
X95536000Y-48768000D03*
D25*
X134026000Y-54261000D03*
X134026000Y-58261000D03*
X130683000Y-54261000D03*
X130683000Y-58261000D03*
X135301000Y-76663000D03*
X135301000Y-72663000D03*
D24*
X128615501Y-68893500D03*
X132615501Y-68893500D03*
D25*
X147574000Y-69088000D03*
X147574000Y-65088000D03*
D24*
X128551000Y-62913000D03*
X132551000Y-62913000D03*
X157576000Y-58738000D03*
X153576000Y-58738000D03*
D25*
X67924000Y-91154000D03*
X67924000Y-87154000D03*
X65024000Y-87154000D03*
X65024000Y-91154000D03*
D24*
X99282000Y-64770000D03*
X95282000Y-64770000D03*
X130901000Y-43713000D03*
X126901000Y-43713000D03*
X110101000Y-40663000D03*
X114101000Y-40663000D03*
X110101000Y-43713000D03*
X114101000Y-43713000D03*
X130901000Y-49813000D03*
X126901000Y-49813000D03*
X130951000Y-46813000D03*
X126951000Y-46813000D03*
X130951000Y-40663000D03*
X126951000Y-40663000D03*
X66516000Y-113792000D03*
X62516000Y-113792000D03*
D40*
X172668000Y-24094000D03*
X166168000Y-24094000D03*
X172668000Y-19594000D03*
X166168000Y-19594000D03*
D41*
X91426000Y-97163000D03*
X91426000Y-97663000D03*
X91426000Y-98163000D03*
X91426000Y-98663000D03*
X91426000Y-99163000D03*
X91426000Y-99663000D03*
X91426000Y-100163000D03*
X91426000Y-100663000D03*
X91426000Y-101163000D03*
X91426000Y-101663000D03*
X91426000Y-102163000D03*
X91426000Y-102663000D03*
D42*
X93026000Y-104263000D03*
X93526000Y-104263000D03*
X94026000Y-104263000D03*
X94526000Y-104263000D03*
X95026000Y-104263000D03*
X95526000Y-104263000D03*
X96026000Y-104263000D03*
X96526000Y-104263000D03*
X97026000Y-104263000D03*
X97526000Y-104263000D03*
X98026000Y-104263000D03*
X98526000Y-104263000D03*
D41*
X100126000Y-102663000D03*
X100126000Y-102163000D03*
X100126000Y-101663000D03*
X100126000Y-101163000D03*
X100126000Y-100663000D03*
X100126000Y-100163000D03*
X100126000Y-99663000D03*
X100126000Y-99163000D03*
X100126000Y-98663000D03*
X100126000Y-98163000D03*
X100126000Y-97663000D03*
X100126000Y-97163000D03*
D42*
X98526000Y-95563000D03*
X98026000Y-95563000D03*
X97526000Y-95563000D03*
X97026000Y-95563000D03*
X96526000Y-95563000D03*
X96026000Y-95563000D03*
X95526000Y-95563000D03*
X95026000Y-95563000D03*
X94526000Y-95563000D03*
X94026000Y-95563000D03*
X93526000Y-95563000D03*
X93026000Y-95563000D03*
D43*
X113792905Y-109363000D03*
X113792905Y-108093000D03*
X113792905Y-106823000D03*
X113792905Y-105553000D03*
X108392905Y-105553000D03*
X108392905Y-106823000D03*
X108392905Y-108093000D03*
X108392905Y-109363000D03*
D44*
X103026000Y-34048000D03*
X103026000Y-32778000D03*
X103026000Y-31508000D03*
X103026000Y-30238000D03*
X103026000Y-28968000D03*
X103026000Y-27698000D03*
X103026000Y-26428000D03*
X97626000Y-26428000D03*
X97626000Y-27698000D03*
X97626000Y-28968000D03*
X97626000Y-30238000D03*
X97626000Y-31508000D03*
X97626000Y-32778000D03*
X97626000Y-34048000D03*
D45*
X156356381Y-30013501D03*
X155706380Y-30013501D03*
X155056381Y-30013501D03*
X154406380Y-30013501D03*
X153756382Y-30013501D03*
X153106380Y-30013501D03*
X152456382Y-30013501D03*
X151806383Y-30013501D03*
X151156382Y-30013501D03*
X150506383Y-30013501D03*
X149856382Y-30013501D03*
X149206383Y-30013501D03*
X148556382Y-30013501D03*
X147906383Y-30013501D03*
X147906381Y-35779301D03*
X148556382Y-35779301D03*
X149206381Y-35779301D03*
X149856382Y-35779301D03*
X150506380Y-35779301D03*
X151156382Y-35779301D03*
X151806380Y-35779301D03*
X152456382Y-35779301D03*
X153106380Y-35779301D03*
X153756382Y-35779301D03*
X154406380Y-35779301D03*
X155056381Y-35779301D03*
X155706380Y-35779301D03*
X156356381Y-35779301D03*
D46*
X58834000Y-96962000D03*
X58834000Y-96012000D03*
X58834000Y-95062000D03*
X56134000Y-95062000D03*
X56134000Y-96012000D03*
X56134000Y-96962000D03*
D44*
X123201000Y-49958000D03*
X123201000Y-48688000D03*
X123201000Y-47418000D03*
X123201000Y-46148000D03*
X123201000Y-44878000D03*
X123201000Y-43608000D03*
X123201000Y-42338000D03*
X123201000Y-41068000D03*
X117801000Y-41068000D03*
X117801000Y-42338000D03*
X117801000Y-43608000D03*
X117801000Y-44878000D03*
X117801000Y-46148000D03*
X117801000Y-47418000D03*
X117801000Y-48688000D03*
X117801000Y-49958000D03*
D47*
X118171000Y-59263000D03*
X123431000Y-59263000D03*
X123431000Y-54263000D03*
X118171000Y-54263000D03*
D20*
X42000000Y-102500000D03*
D21*
X42000000Y-110000000D03*
D48*
X60551000Y-36788000D03*
X63051000Y-36788000D03*
X67451000Y-39443000D03*
X69951000Y-39443000D03*
X67426000Y-32113000D03*
X69926000Y-32113000D03*
X60526000Y-34638000D03*
X63026000Y-34638000D03*
X60663000Y-70224000D03*
X63163000Y-70224000D03*
X67163000Y-73054000D03*
X69663000Y-73054000D03*
X67163000Y-65204000D03*
X69663000Y-65204000D03*
X60703000Y-68014000D03*
X63203000Y-68014000D03*
D49*
X59267000Y-106426000D03*
X66717000Y-106426000D03*
D34*
X91694000Y-85090000D03*
D35*
X91694000Y-82550000D03*
X94234000Y-85090000D03*
X94234000Y-82550000D03*
X96774000Y-85090000D03*
X96774000Y-82550000D03*
X99314000Y-85090000D03*
X99314000Y-82550000D03*
D19*
X146775000Y-42950000D03*
X142775000Y-42950000D03*
D22*
X166725000Y-44350000D03*
X166725000Y-48350000D03*
X163775000Y-72150000D03*
X163775000Y-76150000D03*
X150622000Y-69056000D03*
X150622000Y-65056000D03*
X127762000Y-58261000D03*
X127762000Y-54261000D03*
D28*
X171450000Y-47000000D03*
D29*
X171450000Y-42000000D03*
D30*
X175950000Y-47000000D03*
D29*
X171450000Y-52000000D03*
D28*
X171450000Y-74375000D03*
D29*
X171450000Y-69375000D03*
D30*
X175950000Y-74375000D03*
D29*
X171450000Y-79375000D03*
D32*
X121920000Y-70104000D03*
D33*
X121920000Y-67564000D03*
X121920000Y-65024000D03*
D24*
X142775000Y-46225000D03*
X146775000Y-46225000D03*
X146775000Y-49425000D03*
X142775000Y-49425000D03*
D25*
X167200000Y-72100000D03*
X167200000Y-76100000D03*
D50*
X150850000Y-44260000D03*
X150850000Y-46800000D03*
X150850000Y-49340000D03*
X162350000Y-49340000D03*
X162350000Y-46800000D03*
X162350000Y-44260000D03*
D51*
X154585000Y-79075000D03*
X157125000Y-79075000D03*
X159665000Y-79075000D03*
X159665000Y-67575000D03*
X157125000Y-67575000D03*
X154585000Y-67575000D03*
D52*
X28702000Y-110744000D03*
D53*
X24952000Y-111729000D03*
X24952000Y-109759000D03*
D14*
X104394000Y-59690000D03*
X84074000Y-27940000D03*
D24*
X87598000Y-23876000D03*
X83598000Y-23876000D03*
X119316000Y-34438000D03*
X115316000Y-34438000D03*
D25*
X109220000Y-29686000D03*
X109220000Y-25686000D03*
D23*
X95537020Y-39370000D03*
X99534980Y-39370000D03*
D14*
X104902000Y-55118000D03*
D54*
X105025000Y-69794000D03*
X105675000Y-69794000D03*
X106325000Y-69794000D03*
X106975000Y-69794000D03*
X107625000Y-69794000D03*
X108275000Y-69794000D03*
X108925000Y-69794000D03*
X109575000Y-69794000D03*
X110225000Y-69794000D03*
X110875000Y-69794000D03*
X110875000Y-62794000D03*
X110225000Y-62794000D03*
X109575000Y-62794000D03*
X108925000Y-62794000D03*
X108275000Y-62794000D03*
X107625000Y-62794000D03*
X106975000Y-62794000D03*
X106325000Y-62794000D03*
X105675000Y-62794000D03*
X105025000Y-62794000D03*
D14*
X106172000Y-28194000D03*
X106426000Y-57404000D03*
D24*
X83598000Y-21082000D03*
X87598000Y-21082000D03*
D55*
X74066000Y-108444000D03*
X74066000Y-110744000D03*
D56*
X80366000Y-110744000D03*
D55*
X74066000Y-113044000D03*
D14*
X92456000Y-45974000D03*
D24*
X91218000Y-23876000D03*
X95218000Y-23876000D03*
D55*
X74066000Y-97014000D03*
X74066000Y-99314000D03*
D56*
X80366000Y-99314000D03*
D55*
X74066000Y-101614000D03*
D23*
X95537020Y-43942000D03*
X99534980Y-43942000D03*
D24*
X91218000Y-20828000D03*
X95218000Y-20828000D03*
M02*
