%TF.GenerationSoftware,KiCad,Pcbnew,7.0.1*%
%TF.CreationDate,2024-01-30T15:51:58+01:00*%
%TF.ProjectId,smd_aio,736d645f-6169-46f2-9e6b-696361645f70,rev?*%
%TF.SameCoordinates,Original*%
%TF.FileFunction,Drillmap*%
%TF.FilePolarity,Positive*%
%FSLAX45Y45*%
G04 Gerber Fmt 4.5, Leading zero omitted, Abs format (unit mm)*
G04 Created by KiCad (PCBNEW 7.0.1) date 2024-01-30 15:51:58*
%MOMM*%
%LPD*%
G01*
G04 APERTURE LIST*
%ADD10C,0.150000*%
%ADD11C,0.200000*%
%ADD12C,0.040000*%
%ADD13C,0.065000*%
%ADD14C,0.080000*%
%ADD15C,0.100000*%
%ADD16C,0.101600*%
%ADD17C,0.110000*%
%ADD18C,0.130000*%
%ADD19C,0.170000*%
%ADD20C,0.260000*%
G04 APERTURE END LIST*
D10*
X1879600Y-1701800D02*
X17856200Y-1701800D01*
X17856200Y-11684000D01*
X1879600Y-11684000D01*
X1879600Y-1701800D01*
D11*
D12*
X3231200Y-9949500D02*
X3271200Y-9989500D01*
X3271200Y-9949500D02*
X3231200Y-9989500D01*
X3739200Y-4323400D02*
X3779200Y-4363400D01*
X3779200Y-4323400D02*
X3739200Y-4363400D01*
X3739200Y-4450400D02*
X3779200Y-4490400D01*
X3779200Y-4450400D02*
X3739200Y-4490400D01*
X3739200Y-7549200D02*
X3779200Y-7589200D01*
X3779200Y-7549200D02*
X3739200Y-7589200D01*
X3739200Y-7727000D02*
X3779200Y-7767000D01*
X3779200Y-7727000D02*
X3739200Y-7767000D01*
X3764600Y-6152200D02*
X3804600Y-6192200D01*
X3804600Y-6152200D02*
X3764600Y-6192200D01*
X3764600Y-6279200D02*
X3804600Y-6319200D01*
X3804600Y-6279200D02*
X3764600Y-6319200D01*
X3815400Y-2901000D02*
X3855400Y-2941000D01*
X3855400Y-2901000D02*
X3815400Y-2941000D01*
X3830000Y-10930000D02*
X3870000Y-10970000D01*
X3870000Y-10930000D02*
X3830000Y-10970000D01*
X3830000Y-11080000D02*
X3870000Y-11120000D01*
X3870000Y-11080000D02*
X3830000Y-11120000D01*
X3840800Y-3002600D02*
X3880800Y-3042600D01*
X3880800Y-3002600D02*
X3840800Y-3042600D01*
X4526600Y-10927400D02*
X4566600Y-10967400D01*
X4566600Y-10927400D02*
X4526600Y-10967400D01*
X4530000Y-11080000D02*
X4570000Y-11120000D01*
X4570000Y-11080000D02*
X4530000Y-11120000D01*
X4657599Y-8695050D02*
X4697599Y-8735050D01*
X4697599Y-8695050D02*
X4657599Y-8735050D01*
X4657600Y-2153800D02*
X4697600Y-2193800D01*
X4697600Y-2153800D02*
X4657600Y-2193800D01*
X4657600Y-5311300D02*
X4697600Y-5351300D01*
X4697600Y-5311300D02*
X4657600Y-5351300D01*
X5288600Y-11054400D02*
X5328600Y-11094400D01*
X5328600Y-11054400D02*
X5288600Y-11094400D01*
X5466400Y-11156000D02*
X5506400Y-11196000D01*
X5506400Y-11156000D02*
X5466400Y-11196000D01*
X5669600Y-11054400D02*
X5709600Y-11094400D01*
X5709600Y-11054400D02*
X5669600Y-11094400D01*
X6634800Y-9352600D02*
X6674800Y-9392600D01*
X6674800Y-9352600D02*
X6634800Y-9392600D01*
X6787200Y-8285800D02*
X6827200Y-8325800D01*
X6827200Y-8285800D02*
X6787200Y-8325800D01*
X7117400Y-10800400D02*
X7157400Y-10840400D01*
X7157400Y-10800400D02*
X7117400Y-10840400D01*
X7371400Y-9352600D02*
X7411400Y-9392600D01*
X7411400Y-9352600D02*
X7371400Y-9392600D01*
X7764000Y-7503500D02*
X7804000Y-7543500D01*
X7804000Y-7503500D02*
X7764000Y-7543500D01*
X7826600Y-9378000D02*
X7866600Y-9418000D01*
X7866600Y-9378000D02*
X7826600Y-9418000D01*
X7879400Y-8234999D02*
X7919400Y-8274999D01*
X7919400Y-8234999D02*
X7879400Y-8274999D01*
X8006400Y-7625400D02*
X8046400Y-7665400D01*
X8046400Y-7625400D02*
X8006400Y-7665400D01*
X8115938Y-7669511D02*
X8155938Y-7709511D01*
X8155938Y-7669511D02*
X8115938Y-7709511D01*
X8202067Y-7752400D02*
X8242067Y-7792400D01*
X8242067Y-7752400D02*
X8202067Y-7792400D01*
X8211000Y-9824000D02*
X8251000Y-9864000D01*
X8251000Y-9824000D02*
X8211000Y-9864000D01*
X8235000Y-5364800D02*
X8275000Y-5404800D01*
X8275000Y-5364800D02*
X8235000Y-5404800D01*
X8245467Y-8321667D02*
X8285467Y-8361667D01*
X8285467Y-8321667D02*
X8245467Y-8361667D01*
X8248000Y-7625400D02*
X8288000Y-7665400D01*
X8288000Y-7625400D02*
X8248000Y-7665400D01*
X8260400Y-9682800D02*
X8300400Y-9722800D01*
X8300400Y-9682800D02*
X8260400Y-9722800D01*
X8286401Y-6995500D02*
X8326401Y-7035500D01*
X8326401Y-6995500D02*
X8286401Y-7035500D01*
X8335100Y-4318800D02*
X8375100Y-4358800D01*
X8375100Y-4318800D02*
X8335100Y-4358800D01*
X8336600Y-10491739D02*
X8376600Y-10531739D01*
X8376600Y-10491739D02*
X8336600Y-10531739D01*
X8362000Y-6558600D02*
X8402000Y-6598600D01*
X8402000Y-6558600D02*
X8362000Y-6598600D01*
X8382600Y-2631300D02*
X8422600Y-2671300D01*
X8422600Y-2631300D02*
X8382600Y-2671300D01*
X8400667Y-6253800D02*
X8440667Y-6293800D01*
X8440667Y-6253800D02*
X8400667Y-6293800D01*
X8438200Y-6990400D02*
X8478200Y-7030400D01*
X8478200Y-6990400D02*
X8438200Y-7030400D01*
X8463600Y-9555800D02*
X8503600Y-9595800D01*
X8503600Y-9555800D02*
X8463600Y-9595800D01*
X8480000Y-6004334D02*
X8520000Y-6044334D01*
X8520000Y-6004334D02*
X8480000Y-6044334D01*
X8530571Y-6501653D02*
X8570571Y-6541653D01*
X8570571Y-6501653D02*
X8530571Y-6541653D01*
X8550725Y-3639368D02*
X8590725Y-3679368D01*
X8590725Y-3639368D02*
X8550725Y-3679368D01*
X8575702Y-3449368D02*
X8615702Y-3489368D01*
X8615702Y-3449368D02*
X8575702Y-3489368D01*
X8590600Y-6787200D02*
X8630600Y-6827200D01*
X8630600Y-6787200D02*
X8590600Y-6827200D01*
X8605766Y-3211299D02*
X8645766Y-3251299D01*
X8645766Y-3211299D02*
X8605766Y-3251299D01*
X8616000Y-10444800D02*
X8656000Y-10484800D01*
X8656000Y-10444800D02*
X8616000Y-10484800D01*
X8641400Y-2621600D02*
X8681400Y-2661600D01*
X8681400Y-2621600D02*
X8641400Y-2661600D01*
X8666800Y-2774000D02*
X8706800Y-2814000D01*
X8706800Y-2774000D02*
X8666800Y-2814000D01*
X8666800Y-6584000D02*
X8706800Y-6624000D01*
X8706800Y-6584000D02*
X8666800Y-6624000D01*
X8692200Y-3358200D02*
X8732200Y-3398200D01*
X8732200Y-3358200D02*
X8692200Y-3398200D01*
X8743000Y-4412300D02*
X8783000Y-4452300D01*
X8783000Y-4412300D02*
X8743000Y-4452300D01*
X8895400Y-6558600D02*
X8935400Y-6598600D01*
X8935400Y-6558600D02*
X8895400Y-6598600D01*
X8924326Y-3485674D02*
X8964326Y-3525674D01*
X8964326Y-3485674D02*
X8924326Y-3525674D01*
X8940000Y-10205000D02*
X8980000Y-10245000D01*
X8980000Y-10205000D02*
X8940000Y-10245000D01*
X8946200Y-8311200D02*
X8986200Y-8351200D01*
X8986200Y-8311200D02*
X8946200Y-8351200D01*
X8946200Y-8438200D02*
X8986200Y-8478200D01*
X8986200Y-8438200D02*
X8946200Y-8478200D01*
X8946200Y-8565200D02*
X8986200Y-8605200D01*
X8986200Y-8565200D02*
X8946200Y-8605200D01*
X8946200Y-8692200D02*
X8986200Y-8732200D01*
X8986200Y-8692200D02*
X8946200Y-8732200D01*
X8985400Y-6719400D02*
X9025400Y-6759400D01*
X9025400Y-6719400D02*
X8985400Y-6759400D01*
X8997222Y-10046064D02*
X9037222Y-10086064D01*
X9037222Y-10046064D02*
X8997222Y-10086064D01*
X9068566Y-11308000D02*
X9108566Y-11348000D01*
X9108566Y-11308000D02*
X9068566Y-11348000D01*
X9073200Y-8692200D02*
X9113200Y-8732200D01*
X9113200Y-8692200D02*
X9073200Y-8732200D01*
X9124000Y-6863400D02*
X9164000Y-6903400D01*
X9164000Y-6863400D02*
X9124000Y-6903400D01*
X9136700Y-5949000D02*
X9176700Y-5989000D01*
X9176700Y-5949000D02*
X9136700Y-5989000D01*
X9187000Y-10310000D02*
X9227000Y-10350000D01*
X9227000Y-10310000D02*
X9187000Y-10350000D01*
X9200200Y-4374200D02*
X9240200Y-4414200D01*
X9240200Y-4374200D02*
X9200200Y-4414200D01*
X9231542Y-9095376D02*
X9271542Y-9135376D01*
X9271542Y-9095376D02*
X9231542Y-9135376D01*
X9242161Y-10165746D02*
X9282161Y-10205746D01*
X9282161Y-10165746D02*
X9242161Y-10205746D01*
X9258556Y-9842149D02*
X9298556Y-9882149D01*
X9298556Y-9842149D02*
X9258556Y-9882149D01*
X9261366Y-9747190D02*
X9301366Y-9787190D01*
X9301366Y-9747190D02*
X9261366Y-9787190D01*
X9289773Y-9210409D02*
X9329773Y-9250409D01*
X9329773Y-9210409D02*
X9289773Y-9250409D01*
X9301799Y-10013000D02*
X9341799Y-10053000D01*
X9341799Y-10013000D02*
X9301799Y-10053000D01*
X9327319Y-10136619D02*
X9367319Y-10176619D01*
X9367319Y-10136619D02*
X9327319Y-10176619D01*
X9373000Y-10268000D02*
X9413000Y-10308000D01*
X9413000Y-10268000D02*
X9373000Y-10308000D01*
X9398777Y-9952899D02*
X9438777Y-9992899D01*
X9438777Y-9952899D02*
X9398777Y-9992899D01*
X9408000Y-11091000D02*
X9448000Y-11131000D01*
X9448000Y-11091000D02*
X9408000Y-11131000D01*
X9409862Y-9273930D02*
X9449862Y-9313930D01*
X9449862Y-9273930D02*
X9409862Y-9313930D01*
X9435353Y-10723000D02*
X9475353Y-10763000D01*
X9475353Y-10723000D02*
X9435353Y-10763000D01*
X9448000Y-9073200D02*
X9488000Y-9113200D01*
X9488000Y-9073200D02*
X9448000Y-9113200D01*
X9454200Y-9708200D02*
X9494200Y-9748200D01*
X9494200Y-9708200D02*
X9454200Y-9748200D01*
X9454970Y-9876299D02*
X9494970Y-9916299D01*
X9494970Y-9876299D02*
X9454970Y-9916299D01*
X9479600Y-10089200D02*
X9519600Y-10129200D01*
X9519600Y-10089200D02*
X9479600Y-10129200D01*
X9487600Y-10266788D02*
X9527600Y-10306788D01*
X9527600Y-10266788D02*
X9487600Y-10306788D01*
X9505000Y-6685600D02*
X9545000Y-6725600D01*
X9545000Y-6685600D02*
X9505000Y-6725600D01*
X9555601Y-3384800D02*
X9595601Y-3424800D01*
X9595601Y-3384800D02*
X9555601Y-3424800D01*
X9612600Y-11223800D02*
X9652600Y-11263800D01*
X9652600Y-11223800D02*
X9612600Y-11263800D01*
X9634449Y-10269451D02*
X9674449Y-10309451D01*
X9674449Y-10269451D02*
X9634449Y-10309451D01*
X9650100Y-10723000D02*
X9690100Y-10763000D01*
X9690100Y-10723000D02*
X9650100Y-10763000D01*
X9733600Y-3612200D02*
X9773600Y-3652200D01*
X9773600Y-3612200D02*
X9733600Y-3652200D01*
X9752800Y-9962200D02*
X9792800Y-10002200D01*
X9792800Y-9962200D02*
X9752800Y-10002200D01*
X9756933Y-9786668D02*
X9796933Y-9826668D01*
X9796933Y-9786668D02*
X9756933Y-9826668D01*
X9759000Y-10825800D02*
X9799000Y-10865800D01*
X9799000Y-10825800D02*
X9759000Y-10865800D01*
X9784400Y-10089200D02*
X9824400Y-10129200D01*
X9824400Y-10089200D02*
X9784400Y-10129200D01*
X9798600Y-9878969D02*
X9838600Y-9918969D01*
X9838600Y-9878969D02*
X9798600Y-9918969D01*
X9825100Y-11467000D02*
X9865100Y-11507000D01*
X9865100Y-11467000D02*
X9825100Y-11507000D01*
X9863498Y-3586800D02*
X9903498Y-3626800D01*
X9903498Y-3586800D02*
X9863498Y-3626800D01*
X9930318Y-10543082D02*
X9970318Y-10583082D01*
X9970318Y-10543082D02*
X9930318Y-10583082D01*
X9962200Y-10724199D02*
X10002200Y-10764199D01*
X10002200Y-10724199D02*
X9962200Y-10764199D01*
X9966220Y-9534420D02*
X10006220Y-9574420D01*
X10006220Y-9534420D02*
X9966220Y-9574420D01*
X9990100Y-10926300D02*
X10030100Y-10966300D01*
X10030100Y-10926300D02*
X9990100Y-10966300D01*
X10013000Y-5923600D02*
X10053000Y-5963600D01*
X10053000Y-5923600D02*
X10013000Y-5963600D01*
X10013000Y-10317800D02*
X10053000Y-10357800D01*
X10053000Y-10317800D02*
X10013000Y-10357800D01*
X10037200Y-2614593D02*
X10077200Y-2654593D01*
X10077200Y-2614593D02*
X10037200Y-2654593D01*
X10063800Y-8006400D02*
X10103800Y-8046400D01*
X10103800Y-8006400D02*
X10063800Y-8046400D01*
X10063800Y-8616000D02*
X10103800Y-8656000D01*
X10103800Y-8616000D02*
X10063800Y-8656000D01*
X10089200Y-8362000D02*
X10129200Y-8402000D01*
X10129200Y-8362000D02*
X10089200Y-8402000D01*
X10089200Y-8489000D02*
X10129200Y-8529000D01*
X10129200Y-8489000D02*
X10089200Y-8529000D01*
X10114600Y-5631500D02*
X10154600Y-5671500D01*
X10154600Y-5631500D02*
X10114600Y-5671500D01*
X10115000Y-11370000D02*
X10155000Y-11410000D01*
X10155000Y-11370000D02*
X10115000Y-11410000D01*
X10135100Y-10316300D02*
X10175100Y-10356300D01*
X10175100Y-10316300D02*
X10135100Y-10356300D01*
X10145100Y-10051300D02*
X10185100Y-10091300D01*
X10185100Y-10051300D02*
X10145100Y-10091300D01*
X10155100Y-10161300D02*
X10195100Y-10201300D01*
X10195100Y-10161300D02*
X10155100Y-10201300D01*
X10165400Y-5466400D02*
X10205400Y-5506400D01*
X10205400Y-5466400D02*
X10165400Y-5506400D01*
X10165400Y-9835200D02*
X10205400Y-9875200D01*
X10205400Y-9835200D02*
X10165400Y-9875200D01*
X10190800Y-8997000D02*
X10230800Y-9037000D01*
X10230800Y-8997000D02*
X10190800Y-9037000D01*
X10267000Y-10411800D02*
X10307000Y-10451800D01*
X10307000Y-10411800D02*
X10267000Y-10451800D01*
X10292400Y-8235000D02*
X10332400Y-8275000D01*
X10332400Y-8235000D02*
X10292400Y-8275000D01*
X10292400Y-10216200D02*
X10332400Y-10256200D01*
X10332400Y-10216200D02*
X10292400Y-10256200D01*
X10296600Y-8082600D02*
X10336600Y-8122600D01*
X10336600Y-8082600D02*
X10296600Y-8122600D01*
X10343200Y-6088700D02*
X10383200Y-6128700D01*
X10383200Y-6088700D02*
X10343200Y-6128700D01*
X10368600Y-8336600D02*
X10408600Y-8376600D01*
X10408600Y-8336600D02*
X10368600Y-8376600D01*
X10368600Y-10411800D02*
X10408600Y-10451800D01*
X10408600Y-10411800D02*
X10368600Y-10451800D01*
X10419400Y-3728800D02*
X10459400Y-3768800D01*
X10459400Y-3728800D02*
X10419400Y-3768800D01*
X10444800Y-5110800D02*
X10484800Y-5150800D01*
X10484800Y-5110800D02*
X10444800Y-5150800D01*
X10495600Y-2240600D02*
X10535600Y-2280600D01*
X10535600Y-2240600D02*
X10495600Y-2280600D01*
X10521000Y-3078800D02*
X10561000Y-3118800D01*
X10561000Y-3078800D02*
X10521000Y-3118800D01*
X10521000Y-11460801D02*
X10561000Y-11500801D01*
X10561000Y-11460801D02*
X10521000Y-11500801D01*
X10636676Y-10768800D02*
X10676676Y-10808800D01*
X10676676Y-10768800D02*
X10636676Y-10808800D01*
X10648000Y-2949600D02*
X10688000Y-2989600D01*
X10688000Y-2949600D02*
X10648000Y-2989600D01*
X10673399Y-6634800D02*
X10713399Y-6674800D01*
X10713399Y-6634800D02*
X10673399Y-6674800D01*
X10724200Y-3129600D02*
X10764200Y-3169600D01*
X10764200Y-3129600D02*
X10724200Y-3169600D01*
X10749600Y-4046300D02*
X10789600Y-4086300D01*
X10789600Y-4046300D02*
X10749600Y-4086300D01*
X10800400Y-2240600D02*
X10840400Y-2280600D01*
X10840400Y-2240600D02*
X10800400Y-2280600D01*
X10800400Y-7244400D02*
X10840400Y-7284400D01*
X10840400Y-7244400D02*
X10800400Y-7284400D01*
X10902000Y-5923600D02*
X10942000Y-5963600D01*
X10942000Y-5923600D02*
X10902000Y-5963600D01*
X10927805Y-10411800D02*
X10967805Y-10451800D01*
X10967805Y-10411800D02*
X10927805Y-10451800D01*
X10982000Y-3417000D02*
X11022000Y-3457000D01*
X11022000Y-3417000D02*
X10982000Y-3457000D01*
X11029000Y-5974400D02*
X11069000Y-6014400D01*
X11069000Y-5974400D02*
X11029000Y-6014400D01*
X11105200Y-10114599D02*
X11145200Y-10154599D01*
X11145200Y-10114599D02*
X11105200Y-10154599D01*
X11181401Y-9327200D02*
X11221401Y-9367200D01*
X11221401Y-9327200D02*
X11181401Y-9367200D01*
X11232200Y-10063800D02*
X11272200Y-10103800D01*
X11272200Y-10063800D02*
X11232200Y-10103800D01*
X11272454Y-10356300D02*
X11312454Y-10396300D01*
X11312454Y-10356300D02*
X11272454Y-10396300D01*
X11384600Y-9860600D02*
X11424600Y-9900600D01*
X11424600Y-9860600D02*
X11384600Y-9900600D01*
X11410000Y-10190800D02*
X11450000Y-10230800D01*
X11450000Y-10190800D02*
X11410000Y-10230800D01*
X11435400Y-10394000D02*
X11475400Y-10434000D01*
X11475400Y-10394000D02*
X11435400Y-10434000D01*
X11486200Y-10089199D02*
X11526200Y-10129199D01*
X11526200Y-10089199D02*
X11486200Y-10129199D01*
X11524970Y-9442453D02*
X11564970Y-9482453D01*
X11564970Y-9442453D02*
X11524970Y-9482453D01*
X11613200Y-2977200D02*
X11653200Y-3017200D01*
X11653200Y-2977200D02*
X11613200Y-3017200D01*
X11714800Y-10216200D02*
X11754800Y-10256200D01*
X11754800Y-10216200D02*
X11714800Y-10256200D01*
X11803700Y-9644700D02*
X11843700Y-9684700D01*
X11843700Y-9644700D02*
X11803700Y-9684700D01*
X11803700Y-10419400D02*
X11843700Y-10459400D01*
X11843700Y-10419400D02*
X11803700Y-10459400D01*
X11809448Y-9504659D02*
X11849448Y-9544659D01*
X11849448Y-9504659D02*
X11809448Y-9544659D01*
X11867200Y-10045200D02*
X11907200Y-10085200D01*
X11907200Y-10045200D02*
X11867200Y-10085200D01*
X11867201Y-10317800D02*
X11907201Y-10357800D01*
X11907201Y-10317800D02*
X11867201Y-10357800D01*
X11943400Y-9835200D02*
X11983400Y-9875200D01*
X11983400Y-9835200D02*
X11943400Y-9875200D01*
X11943400Y-10114600D02*
X11983400Y-10154600D01*
X11983400Y-10114600D02*
X11943400Y-10154600D01*
X11954990Y-9975200D02*
X11994990Y-10015200D01*
X11994990Y-9975200D02*
X11954990Y-10015200D01*
X11956100Y-10419400D02*
X11996100Y-10459400D01*
X11996100Y-10419400D02*
X11956100Y-10459400D01*
X12019600Y-10267000D02*
X12059600Y-10307000D01*
X12059600Y-10267000D02*
X12019600Y-10307000D01*
X12057700Y-10419400D02*
X12097700Y-10459400D01*
X12097700Y-10419400D02*
X12057700Y-10459400D01*
X12070400Y-10165400D02*
X12110400Y-10205400D01*
X12110400Y-10165400D02*
X12070400Y-10205400D01*
X12095800Y-3637600D02*
X12135800Y-3677600D01*
X12135800Y-3637600D02*
X12095800Y-3677600D01*
X12159300Y-10419400D02*
X12199300Y-10459400D01*
X12199300Y-10419400D02*
X12159300Y-10459400D01*
X12197400Y-10165400D02*
X12237400Y-10205400D01*
X12237400Y-10165400D02*
X12197400Y-10205400D01*
X12236821Y-9981400D02*
X12276821Y-10021400D01*
X12276821Y-9981400D02*
X12236821Y-10021400D01*
X12260900Y-10419400D02*
X12300900Y-10459400D01*
X12300900Y-10419400D02*
X12260900Y-10459400D01*
X12316667Y-7321800D02*
X12356667Y-7361800D01*
X12356667Y-7321800D02*
X12316667Y-7361800D01*
X12324400Y-10165400D02*
X12364400Y-10205400D01*
X12364400Y-10165400D02*
X12324400Y-10205400D01*
X12362500Y-10419400D02*
X12402500Y-10459400D01*
X12402500Y-10419400D02*
X12362500Y-10459400D01*
X12451400Y-10165400D02*
X12491400Y-10205400D01*
X12491400Y-10165400D02*
X12451400Y-10205400D01*
X12476800Y-10419400D02*
X12516800Y-10459400D01*
X12516800Y-10419400D02*
X12476800Y-10459400D01*
X12553000Y-5999800D02*
X12593000Y-6039800D01*
X12593000Y-5999800D02*
X12553000Y-6039800D01*
X12576044Y-3231421D02*
X12616044Y-3271421D01*
X12616044Y-3231421D02*
X12576044Y-3271421D01*
X12578400Y-10165400D02*
X12618400Y-10205400D01*
X12618400Y-10165400D02*
X12578400Y-10205400D01*
X12591100Y-10419400D02*
X12631100Y-10459400D01*
X12631100Y-10419400D02*
X12591100Y-10459400D01*
X12603800Y-6177600D02*
X12643800Y-6217600D01*
X12643800Y-6177600D02*
X12603800Y-6217600D01*
X12680000Y-7320600D02*
X12720000Y-7360600D01*
X12720000Y-7320600D02*
X12680000Y-7360600D01*
X12690001Y-3150000D02*
X12730001Y-3190000D01*
X12730001Y-3150000D02*
X12690001Y-3190000D01*
X12705400Y-10165400D02*
X12745400Y-10205400D01*
X12745400Y-10165400D02*
X12705400Y-10205400D01*
X12705400Y-10419400D02*
X12745400Y-10459400D01*
X12745400Y-10419400D02*
X12705400Y-10459400D01*
X12819700Y-10419400D02*
X12859700Y-10459400D01*
X12859700Y-10419400D02*
X12819700Y-10459400D01*
X12832400Y-10165400D02*
X12872400Y-10205400D01*
X12872400Y-10165400D02*
X12832400Y-10205400D01*
X12832401Y-9911400D02*
X12872401Y-9951400D01*
X12872401Y-9911400D02*
X12832401Y-9951400D01*
X12921300Y-10419400D02*
X12961300Y-10459400D01*
X12961300Y-10419400D02*
X12921300Y-10459400D01*
X12959400Y-10165400D02*
X12999400Y-10205400D01*
X12999400Y-10165400D02*
X12959400Y-10205400D01*
X12982500Y-7060000D02*
X13022500Y-7100000D01*
X13022500Y-7060000D02*
X12982500Y-7100000D01*
X12984800Y-7168200D02*
X13024800Y-7208200D01*
X13024800Y-7168200D02*
X12984800Y-7208200D01*
X13007484Y-7344800D02*
X13047484Y-7384800D01*
X13047484Y-7344800D02*
X13007484Y-7384800D01*
X13061000Y-7879400D02*
X13101000Y-7919400D01*
X13101000Y-7879400D02*
X13061000Y-7919400D01*
X13086400Y-10165400D02*
X13126400Y-10205400D01*
X13126400Y-10165400D02*
X13086400Y-10205400D01*
X13162600Y-9784400D02*
X13202600Y-9824400D01*
X13202600Y-9784400D02*
X13162600Y-9824400D01*
X13182539Y-7752400D02*
X13222539Y-7792400D01*
X13222539Y-7752400D02*
X13182539Y-7792400D01*
X13188000Y-9378000D02*
X13228000Y-9418000D01*
X13228000Y-9378000D02*
X13188000Y-9418000D01*
X13188000Y-10165400D02*
X13228000Y-10205400D01*
X13228000Y-10165400D02*
X13188000Y-10205400D01*
X13238800Y-3612200D02*
X13278800Y-3652200D01*
X13278800Y-3612200D02*
X13238800Y-3652200D01*
X13238800Y-4831400D02*
X13278800Y-4871400D01*
X13278800Y-4831400D02*
X13238800Y-4871400D01*
X13264200Y-7981000D02*
X13304200Y-8021000D01*
X13304200Y-7981000D02*
X13264200Y-8021000D01*
X13289600Y-9766410D02*
X13329600Y-9806410D01*
X13329600Y-9766410D02*
X13289600Y-9806410D01*
X13289600Y-10165400D02*
X13329600Y-10205400D01*
X13329600Y-10165400D02*
X13289600Y-10205400D01*
X13347400Y-7872400D02*
X13387400Y-7912400D01*
X13387400Y-7872400D02*
X13347400Y-7912400D01*
X13387350Y-4805636D02*
X13427350Y-4845636D01*
X13427350Y-4805636D02*
X13387350Y-4845636D01*
X13391200Y-10165400D02*
X13431200Y-10205400D01*
X13431200Y-10165400D02*
X13391200Y-10205400D01*
X13429600Y-7968112D02*
X13469600Y-8008112D01*
X13469600Y-7968112D02*
X13429600Y-8008112D01*
X13445100Y-6341300D02*
X13485100Y-6381300D01*
X13485100Y-6341300D02*
X13445100Y-6381300D01*
X13518200Y-4552000D02*
X13558200Y-4592000D01*
X13558200Y-4552000D02*
X13518200Y-4592000D01*
X13518200Y-10165400D02*
X13558200Y-10205400D01*
X13558200Y-10165400D02*
X13518200Y-10205400D01*
X13534247Y-6971748D02*
X13574247Y-7011748D01*
X13574247Y-6971748D02*
X13534247Y-7011748D01*
X13619800Y-10165400D02*
X13659800Y-10205400D01*
X13659800Y-10165400D02*
X13619800Y-10205400D01*
X13657900Y-6876100D02*
X13697900Y-6916100D01*
X13697900Y-6876100D02*
X13657900Y-6916100D01*
X13690100Y-4046300D02*
X13730100Y-4086300D01*
X13730100Y-4046300D02*
X13690100Y-4086300D01*
X13696000Y-7193600D02*
X13736000Y-7233600D01*
X13736000Y-7193600D02*
X13696000Y-7233600D01*
X13696000Y-8565200D02*
X13736000Y-8605200D01*
X13736000Y-8565200D02*
X13696000Y-8605200D01*
X13721400Y-10165400D02*
X13761400Y-10205400D01*
X13761400Y-10165400D02*
X13721400Y-10205400D01*
X13823000Y-10165400D02*
X13863000Y-10205400D01*
X13863000Y-10165400D02*
X13823000Y-10205400D01*
X13950000Y-10165400D02*
X13990000Y-10205400D01*
X13990000Y-10165400D02*
X13950000Y-10205400D01*
X13962700Y-5987100D02*
X14002700Y-6027100D01*
X14002700Y-5987100D02*
X13962700Y-6027100D01*
X14000800Y-6533200D02*
X14040800Y-6573200D01*
X14040800Y-6533200D02*
X14000800Y-6573200D01*
X14000800Y-7993700D02*
X14040800Y-8033700D01*
X14040800Y-7993700D02*
X14000800Y-8033700D01*
X14000800Y-8362000D02*
X14040800Y-8402000D01*
X14040800Y-8362000D02*
X14000800Y-8402000D01*
X14127800Y-7993700D02*
X14167800Y-8033700D01*
X14167800Y-7993700D02*
X14127800Y-8033700D01*
X14127800Y-8362000D02*
X14167800Y-8402000D01*
X14167800Y-8362000D02*
X14127800Y-8402000D01*
X14200100Y-4041300D02*
X14240100Y-4081300D01*
X14240100Y-4041300D02*
X14200100Y-4081300D01*
X14229400Y-10165400D02*
X14269400Y-10205400D01*
X14269400Y-10165400D02*
X14229400Y-10205400D01*
X14290000Y-3755000D02*
X14330000Y-3795000D01*
X14330000Y-3755000D02*
X14290000Y-3795000D01*
X14331000Y-10165400D02*
X14371000Y-10205400D01*
X14371000Y-10165400D02*
X14331000Y-10205400D01*
X14370000Y-7235000D02*
X14410000Y-7275000D01*
X14410000Y-7235000D02*
X14370000Y-7275000D01*
X14371831Y-3280001D02*
X14411831Y-3320001D01*
X14411831Y-3280001D02*
X14371831Y-3320001D01*
X14375100Y-3903800D02*
X14415100Y-3943800D01*
X14415100Y-3903800D02*
X14375100Y-3943800D01*
X14381800Y-9581200D02*
X14421800Y-9621200D01*
X14421800Y-9581200D02*
X14381800Y-9621200D01*
X14381800Y-9708200D02*
X14421800Y-9748200D01*
X14421800Y-9708200D02*
X14381800Y-9748200D01*
X14381800Y-9835200D02*
X14421800Y-9875200D01*
X14421800Y-9835200D02*
X14381800Y-9875200D01*
X14381800Y-9936800D02*
X14421800Y-9976800D01*
X14421800Y-9936800D02*
X14381800Y-9976800D01*
X14381800Y-10063800D02*
X14421800Y-10103800D01*
X14421800Y-10063800D02*
X14381800Y-10103800D01*
X14382500Y-7810000D02*
X14422500Y-7850000D01*
X14422500Y-7810000D02*
X14382500Y-7850000D01*
X14390100Y-6881300D02*
X14430100Y-6921300D01*
X14430100Y-6881300D02*
X14390100Y-6921300D01*
X14445300Y-6355400D02*
X14485300Y-6395400D01*
X14485300Y-6355400D02*
X14445300Y-6395400D01*
X14458000Y-9454200D02*
X14498000Y-9494200D01*
X14498000Y-9454200D02*
X14458000Y-9494200D01*
X14470100Y-3146300D02*
X14510100Y-3186300D01*
X14510100Y-3146300D02*
X14470100Y-3186300D01*
X14521500Y-6711000D02*
X14561500Y-6751000D01*
X14561500Y-6711000D02*
X14521500Y-6751000D01*
X14559600Y-8539800D02*
X14599600Y-8579800D01*
X14599600Y-8539800D02*
X14559600Y-8579800D01*
X14559600Y-8768400D02*
X14599600Y-8808400D01*
X14599600Y-8768400D02*
X14559600Y-8808400D01*
X14559600Y-8997000D02*
X14599600Y-9037000D01*
X14599600Y-8997000D02*
X14559600Y-9037000D01*
X14559600Y-9200200D02*
X14599600Y-9240200D01*
X14599600Y-9200200D02*
X14559600Y-9240200D01*
X14559600Y-9378000D02*
X14599600Y-9418000D01*
X14599600Y-9378000D02*
X14559600Y-9418000D01*
X14712000Y-8412800D02*
X14752000Y-8452800D01*
X14752000Y-8412800D02*
X14712000Y-8452800D01*
X14737400Y-6701300D02*
X14777400Y-6741300D01*
X14777400Y-6701300D02*
X14737400Y-6741300D01*
X14889800Y-8412800D02*
X14929800Y-8452800D01*
X14929800Y-8412800D02*
X14889800Y-8452800D01*
X14895000Y-6280000D02*
X14935000Y-6320000D01*
X14935000Y-6280000D02*
X14895000Y-6320000D01*
X15060100Y-3896300D02*
X15100100Y-3936300D01*
X15100100Y-3896300D02*
X15060100Y-3936300D01*
X15067600Y-8412800D02*
X15107600Y-8452800D01*
X15107600Y-8412800D02*
X15067600Y-8452800D01*
X15093000Y-7447600D02*
X15133000Y-7487600D01*
X15133000Y-7447600D02*
X15093000Y-7487600D01*
X15190100Y-3256300D02*
X15230100Y-3296300D01*
X15230100Y-3256300D02*
X15190100Y-3296300D01*
X15220000Y-8412800D02*
X15260000Y-8452800D01*
X15260000Y-8412800D02*
X15220000Y-8452800D01*
X15245400Y-5466400D02*
X15285400Y-5506400D01*
X15285400Y-5466400D02*
X15245400Y-5506400D01*
X15372400Y-8412800D02*
X15412400Y-8452800D01*
X15412400Y-8412800D02*
X15372400Y-8452800D01*
X15524800Y-8412800D02*
X15564800Y-8452800D01*
X15564800Y-8412800D02*
X15524800Y-8452800D01*
X15625100Y-5271300D02*
X15665100Y-5311300D01*
X15665100Y-5271300D02*
X15625100Y-5311300D01*
X15753400Y-8412800D02*
X15793400Y-8452800D01*
X15793400Y-8412800D02*
X15753400Y-8452800D01*
X15905800Y-8412800D02*
X15945800Y-8452800D01*
X15945800Y-8412800D02*
X15905800Y-8452800D01*
X16045100Y-3671300D02*
X16085100Y-3711300D01*
X16085100Y-3671300D02*
X16045100Y-3711300D01*
X16058200Y-8412800D02*
X16098200Y-8452800D01*
X16098200Y-8412800D02*
X16058200Y-8452800D01*
X16236000Y-8412800D02*
X16276000Y-8452800D01*
X16276000Y-8412800D02*
X16236000Y-8452800D01*
X16260100Y-5861300D02*
X16300100Y-5901300D01*
X16300100Y-5861300D02*
X16260100Y-5901300D01*
X16363000Y-8412800D02*
X16403000Y-8452800D01*
X16403000Y-8412800D02*
X16363000Y-8452800D01*
D13*
X4395100Y-4646300D02*
G75*
G03*
X4395100Y-4646300I-32500J0D01*
G01*
X4397600Y-3838800D02*
G75*
G03*
X4397600Y-3838800I-32500J0D01*
G01*
X4399500Y-2225000D02*
G75*
G03*
X4399500Y-2225000I-32500J0D01*
G01*
X4399500Y-3033000D02*
G75*
G03*
X4399500Y-3033000I-32500J0D01*
G01*
X4401300Y-8001000D02*
G75*
G03*
X4401300Y-8001000I-32500J0D01*
G01*
X4406900Y-5484200D02*
G75*
G03*
X4406900Y-5484200I-32500J0D01*
G01*
X4406900Y-6322400D02*
G75*
G03*
X4406900Y-6322400I-32500J0D01*
G01*
X4406900Y-7160600D02*
G75*
G03*
X4406900Y-7160600I-32500J0D01*
G01*
X5095100Y-5006300D02*
G75*
G03*
X5095100Y-5006300I-32500J0D01*
G01*
X5097600Y-4198800D02*
G75*
G03*
X5097600Y-4198800I-32500J0D01*
G01*
X5099500Y-2585000D02*
G75*
G03*
X5099500Y-2585000I-32500J0D01*
G01*
X5099500Y-3393000D02*
G75*
G03*
X5099500Y-3393000I-32500J0D01*
G01*
X5101300Y-8361000D02*
G75*
G03*
X5101300Y-8361000I-32500J0D01*
G01*
X5106900Y-5844200D02*
G75*
G03*
X5106900Y-5844200I-32500J0D01*
G01*
X5106900Y-6682400D02*
G75*
G03*
X5106900Y-6682400I-32500J0D01*
G01*
X5106900Y-7520600D02*
G75*
G03*
X5106900Y-7520600I-32500J0D01*
G01*
X7423900Y-4978400D02*
G75*
G03*
X7423900Y-4978400I-32500J0D01*
G01*
X7474700Y-2108200D02*
G75*
G03*
X7474700Y-2108200I-32500J0D01*
G01*
X7677900Y-4982400D02*
G75*
G03*
X7677900Y-4982400I-32500J0D01*
G01*
X7677900Y-5232400D02*
G75*
G03*
X7677900Y-5232400I-32500J0D01*
G01*
X7728700Y-2112200D02*
G75*
G03*
X7728700Y-2112200I-32500J0D01*
G01*
X7728700Y-2362200D02*
G75*
G03*
X7728700Y-2362200I-32500J0D01*
G01*
X7931900Y-4978400D02*
G75*
G03*
X7931900Y-4978400I-32500J0D01*
G01*
X7982700Y-2108200D02*
G75*
G03*
X7982700Y-2108200I-32500J0D01*
G01*
D14*
X4200000Y-10210000D02*
X4200000Y-10290000D01*
X4160000Y-10250000D02*
X4240000Y-10250000D01*
X4200000Y-10960000D02*
X4200000Y-11040000D01*
X4160000Y-11000000D02*
X4240000Y-11000000D01*
X7467600Y-8878600D02*
X7467600Y-8958600D01*
X7427600Y-8918600D02*
X7507600Y-8918600D01*
X7467600Y-9078600D02*
X7467600Y-9158600D01*
X7427600Y-9118600D02*
X7507600Y-9118600D01*
X9640100Y-10981300D02*
X9640100Y-11061300D01*
X9600100Y-11021300D02*
X9680100Y-11021300D01*
X9840100Y-10981300D02*
X9840100Y-11061300D01*
X9800100Y-11021300D02*
X9880100Y-11021300D01*
X10668000Y-8799200D02*
X10668000Y-8879200D01*
X10628000Y-8839200D02*
X10708000Y-8839200D01*
X10868000Y-8799200D02*
X10868000Y-8879200D01*
X10828000Y-8839200D02*
X10908000Y-8839200D01*
X12115800Y-9027800D02*
X12115800Y-9107800D01*
X12075800Y-9067800D02*
X12155800Y-9067800D01*
X12315800Y-9027800D02*
X12315800Y-9107800D01*
X12275800Y-9067800D02*
X12355800Y-9067800D01*
X13755100Y-8021300D02*
X13755100Y-8101300D01*
X13715100Y-8061300D02*
X13795100Y-8061300D01*
X13755100Y-8221300D02*
X13755100Y-8301300D01*
X13715100Y-8261300D02*
X13795100Y-8261300D01*
X14162600Y-5643800D02*
X14162600Y-5723800D01*
X14122600Y-5683800D02*
X14202600Y-5683800D01*
X14162600Y-5843800D02*
X14162600Y-5923800D01*
X14122600Y-5883800D02*
X14202600Y-5883800D01*
X14420100Y-8021300D02*
X14420100Y-8101300D01*
X14380100Y-8061300D02*
X14460100Y-8061300D01*
X14420100Y-8221300D02*
X14420100Y-8301300D01*
X14380100Y-8261300D02*
X14460100Y-8261300D01*
X16405100Y-10791300D02*
X16405100Y-10871300D01*
X16365100Y-10831300D02*
X16445100Y-10831300D01*
X16460100Y-9386300D02*
X16460100Y-9466300D01*
X16420100Y-9426300D02*
X16500100Y-9426300D01*
X16605100Y-10791300D02*
X16605100Y-10871300D01*
X16565100Y-10831300D02*
X16645100Y-10831300D01*
X16660100Y-9386300D02*
X16660100Y-9466300D01*
X16620100Y-9426300D02*
X16700100Y-9426300D01*
X16675100Y-5762300D02*
X16675100Y-5842300D01*
X16635100Y-5802300D02*
X16715100Y-5802300D01*
X16675100Y-6016300D02*
X16675100Y-6096300D01*
X16635100Y-6056300D02*
X16715100Y-6056300D01*
X16675100Y-6270300D02*
X16675100Y-6350300D01*
X16635100Y-6310300D02*
X16715100Y-6310300D01*
X16697600Y-3012300D02*
X16697600Y-3092300D01*
X16657600Y-3052300D02*
X16737600Y-3052300D01*
X16697600Y-3266300D02*
X16697600Y-3346300D01*
X16657600Y-3306300D02*
X16737600Y-3306300D01*
X16697600Y-3520300D02*
X16697600Y-3600300D01*
X16657600Y-3560300D02*
X16737600Y-3560300D01*
D15*
X4235356Y-10535356D02*
X4235356Y-10464644D01*
X4164644Y-10464644D01*
X4164644Y-10535356D01*
X4235356Y-10535356D01*
D16*
X8509000Y-10845800D02*
X8559800Y-10795000D01*
X8509000Y-10744200D01*
X8458200Y-10795000D01*
X8509000Y-10845800D01*
X8509000Y-11099800D02*
X8559800Y-11049000D01*
X8509000Y-10998200D01*
X8458200Y-11049000D01*
X8509000Y-11099800D01*
X8509000Y-11353800D02*
X8559800Y-11303000D01*
X8509000Y-11252200D01*
X8458200Y-11303000D01*
X8509000Y-11353800D01*
X9169400Y-8305800D02*
X9220200Y-8255000D01*
X9169400Y-8204200D01*
X9118600Y-8255000D01*
X9169400Y-8305800D01*
X9169400Y-8559800D02*
X9220200Y-8509000D01*
X9169400Y-8458200D01*
X9118600Y-8509000D01*
X9169400Y-8559800D01*
X9423400Y-8305800D02*
X9474200Y-8255000D01*
X9423400Y-8204200D01*
X9372600Y-8255000D01*
X9423400Y-8305800D01*
X9423400Y-8559800D02*
X9474200Y-8509000D01*
X9423400Y-8458200D01*
X9372600Y-8509000D01*
X9423400Y-8559800D01*
X9677400Y-8305800D02*
X9728200Y-8255000D01*
X9677400Y-8204200D01*
X9626600Y-8255000D01*
X9677400Y-8305800D01*
X9677400Y-8559800D02*
X9728200Y-8509000D01*
X9677400Y-8458200D01*
X9626600Y-8509000D01*
X9677400Y-8559800D01*
X9931400Y-8305800D02*
X9982200Y-8255000D01*
X9931400Y-8204200D01*
X9880600Y-8255000D01*
X9931400Y-8305800D01*
X9931400Y-8559800D02*
X9982200Y-8509000D01*
X9931400Y-8458200D01*
X9880600Y-8509000D01*
X9931400Y-8559800D01*
X12107600Y-10840600D02*
X12158400Y-10789800D01*
X12107600Y-10739000D01*
X12056800Y-10789800D01*
X12107600Y-10840600D01*
X12107600Y-11094600D02*
X12158400Y-11043800D01*
X12107600Y-10993000D01*
X12056800Y-11043800D01*
X12107600Y-11094600D01*
X12192000Y-6553200D02*
X12242800Y-6502400D01*
X12192000Y-6451600D01*
X12141200Y-6502400D01*
X12192000Y-6553200D01*
X12192000Y-6807200D02*
X12242800Y-6756400D01*
X12192000Y-6705600D01*
X12141200Y-6756400D01*
X12192000Y-6807200D01*
X12192000Y-7061200D02*
X12242800Y-7010400D01*
X12192000Y-6959600D01*
X12141200Y-7010400D01*
X12192000Y-7061200D01*
X12361600Y-10840600D02*
X12412400Y-10789800D01*
X12361600Y-10739000D01*
X12310800Y-10789800D01*
X12361600Y-10840600D01*
X12361600Y-11094600D02*
X12412400Y-11043800D01*
X12361600Y-10993000D01*
X12310800Y-11043800D01*
X12361600Y-11094600D01*
X12615600Y-10840600D02*
X12666400Y-10789800D01*
X12615600Y-10739000D01*
X12564800Y-10789800D01*
X12615600Y-10840600D01*
X12615600Y-11094600D02*
X12666400Y-11043800D01*
X12615600Y-10993000D01*
X12564800Y-11043800D01*
X12615600Y-11094600D01*
X12725400Y-2286000D02*
X12776200Y-2235200D01*
X12725400Y-2184400D01*
X12674600Y-2235200D01*
X12725400Y-2286000D01*
X12725400Y-2540000D02*
X12776200Y-2489200D01*
X12725400Y-2438400D01*
X12674600Y-2489200D01*
X12725400Y-2540000D01*
X12869600Y-10840600D02*
X12920400Y-10789800D01*
X12869600Y-10739000D01*
X12818800Y-10789800D01*
X12869600Y-10840600D01*
X12869600Y-11094600D02*
X12920400Y-11043800D01*
X12869600Y-10993000D01*
X12818800Y-11043800D01*
X12869600Y-11094600D01*
X12877800Y-8966200D02*
X12928600Y-8915400D01*
X12877800Y-8864600D01*
X12827000Y-8915400D01*
X12877800Y-8966200D01*
X12877800Y-9220200D02*
X12928600Y-9169400D01*
X12877800Y-9118600D01*
X12827000Y-9169400D01*
X12877800Y-9220200D01*
X12877800Y-9474200D02*
X12928600Y-9423400D01*
X12877800Y-9372600D01*
X12827000Y-9423400D01*
X12877800Y-9474200D01*
X12877800Y-9728200D02*
X12928600Y-9677400D01*
X12877800Y-9626600D01*
X12827000Y-9677400D01*
X12877800Y-9728200D01*
X12979400Y-2286000D02*
X13030200Y-2235200D01*
X12979400Y-2184400D01*
X12928600Y-2235200D01*
X12979400Y-2286000D01*
X12979400Y-2540000D02*
X13030200Y-2489200D01*
X12979400Y-2438400D01*
X12928600Y-2489200D01*
X12979400Y-2540000D01*
X13123600Y-10840600D02*
X13174400Y-10789800D01*
X13123600Y-10739000D01*
X13072800Y-10789800D01*
X13123600Y-10840600D01*
X13123600Y-11094600D02*
X13174400Y-11043800D01*
X13123600Y-10993000D01*
X13072800Y-11043800D01*
X13123600Y-11094600D01*
X13233400Y-2286000D02*
X13284200Y-2235200D01*
X13233400Y-2184400D01*
X13182600Y-2235200D01*
X13233400Y-2286000D01*
X13233400Y-2540000D02*
X13284200Y-2489200D01*
X13233400Y-2438400D01*
X13182600Y-2489200D01*
X13233400Y-2540000D01*
X13377600Y-10840600D02*
X13428400Y-10789800D01*
X13377600Y-10739000D01*
X13326800Y-10789800D01*
X13377600Y-10840600D01*
X13377600Y-11094600D02*
X13428400Y-11043800D01*
X13377600Y-10993000D01*
X13326800Y-11043800D01*
X13377600Y-11094600D01*
X13487400Y-2286000D02*
X13538200Y-2235200D01*
X13487400Y-2184400D01*
X13436600Y-2235200D01*
X13487400Y-2286000D01*
X13487400Y-2540000D02*
X13538200Y-2489200D01*
X13487400Y-2438400D01*
X13436600Y-2489200D01*
X13487400Y-2540000D01*
X13631600Y-10840600D02*
X13682400Y-10789800D01*
X13631600Y-10739000D01*
X13580800Y-10789800D01*
X13631600Y-10840600D01*
X13631600Y-11094600D02*
X13682400Y-11043800D01*
X13631600Y-10993000D01*
X13580800Y-11043800D01*
X13631600Y-11094600D01*
X13741400Y-2286000D02*
X13792200Y-2235200D01*
X13741400Y-2184400D01*
X13690600Y-2235200D01*
X13741400Y-2286000D01*
X13741400Y-2540000D02*
X13792200Y-2489200D01*
X13741400Y-2438400D01*
X13690600Y-2489200D01*
X13741400Y-2540000D01*
X13885600Y-10840600D02*
X13936400Y-10789800D01*
X13885600Y-10739000D01*
X13834800Y-10789800D01*
X13885600Y-10840600D01*
X13885600Y-11094600D02*
X13936400Y-11043800D01*
X13885600Y-10993000D01*
X13834800Y-11043800D01*
X13885600Y-11094600D01*
X15697200Y-8686800D02*
X15748000Y-8636000D01*
X15697200Y-8585200D01*
X15646400Y-8636000D01*
X15697200Y-8686800D01*
X15697200Y-8940800D02*
X15748000Y-8890000D01*
X15697200Y-8839200D01*
X15646400Y-8890000D01*
X15697200Y-8940800D01*
X15697200Y-9194800D02*
X15748000Y-9144000D01*
X15697200Y-9093200D01*
X15646400Y-9144000D01*
X15697200Y-9194800D01*
X15697200Y-9448800D02*
X15748000Y-9398000D01*
X15697200Y-9347200D01*
X15646400Y-9398000D01*
X15697200Y-9448800D01*
X15698600Y-10132600D02*
X15749400Y-10081800D01*
X15698600Y-10031000D01*
X15647800Y-10081800D01*
X15698600Y-10132600D01*
X15698600Y-10386600D02*
X15749400Y-10335800D01*
X15698600Y-10285000D01*
X15647800Y-10335800D01*
X15698600Y-10386600D01*
X15698600Y-10640600D02*
X15749400Y-10589800D01*
X15698600Y-10539000D01*
X15647800Y-10589800D01*
X15698600Y-10640600D01*
X15698600Y-10894600D02*
X15749400Y-10843800D01*
X15698600Y-10793000D01*
X15647800Y-10843800D01*
X15698600Y-10894600D01*
X15951200Y-8686800D02*
X16002000Y-8636000D01*
X15951200Y-8585200D01*
X15900400Y-8636000D01*
X15951200Y-8686800D01*
X15951200Y-8940800D02*
X16002000Y-8890000D01*
X15951200Y-8839200D01*
X15900400Y-8890000D01*
X15951200Y-8940800D01*
X15951200Y-9194800D02*
X16002000Y-9144000D01*
X15951200Y-9093200D01*
X15900400Y-9144000D01*
X15951200Y-9194800D01*
X15951200Y-9448800D02*
X16002000Y-9398000D01*
X15951200Y-9347200D01*
X15900400Y-9398000D01*
X15951200Y-9448800D01*
X15952600Y-10132600D02*
X16003400Y-10081800D01*
X15952600Y-10031000D01*
X15901800Y-10081800D01*
X15952600Y-10132600D01*
X15952600Y-10386600D02*
X16003400Y-10335800D01*
X15952600Y-10285000D01*
X15901800Y-10335800D01*
X15952600Y-10386600D01*
X15952600Y-10640600D02*
X16003400Y-10589800D01*
X15952600Y-10539000D01*
X15901800Y-10589800D01*
X15952600Y-10640600D01*
X15952600Y-10894600D02*
X16003400Y-10843800D01*
X15952600Y-10793000D01*
X15901800Y-10843800D01*
X15952600Y-10894600D01*
D17*
X16561800Y-1904400D02*
X16671800Y-2014400D01*
X16671800Y-1904400D02*
X16561800Y-2014400D01*
X16671800Y-1959400D02*
G75*
G03*
X16671800Y-1959400I-55000J0D01*
G01*
X16561800Y-2354400D02*
X16671800Y-2464400D01*
X16671800Y-2354400D02*
X16561800Y-2464400D01*
X16671800Y-2409400D02*
G75*
G03*
X16671800Y-2409400I-55000J0D01*
G01*
X17211800Y-1904400D02*
X17321800Y-2014400D01*
X17321800Y-1904400D02*
X17211800Y-2014400D01*
X17321800Y-1959400D02*
G75*
G03*
X17321800Y-1959400I-55000J0D01*
G01*
X17211800Y-2354400D02*
X17321800Y-2464400D01*
X17321800Y-2354400D02*
X17211800Y-2464400D01*
X17321800Y-2409400D02*
G75*
G03*
X17321800Y-2409400I-55000J0D01*
G01*
D18*
X2320100Y-2792300D02*
X2450100Y-2922300D01*
X2450100Y-2792300D02*
X2320100Y-2922300D01*
X2385100Y-2792300D02*
X2385100Y-2922300D01*
X2320100Y-2857300D02*
X2450100Y-2857300D01*
X2320100Y-3300300D02*
X2450100Y-3430300D01*
X2450100Y-3300300D02*
X2320100Y-3430300D01*
X2385100Y-3300300D02*
X2385100Y-3430300D01*
X2320100Y-3365300D02*
X2450100Y-3365300D01*
X2320100Y-4252300D02*
X2450100Y-4382300D01*
X2450100Y-4252300D02*
X2320100Y-4382300D01*
X2385100Y-4252300D02*
X2385100Y-4382300D01*
X2320100Y-4317300D02*
X2450100Y-4317300D01*
X2320100Y-4760300D02*
X2450100Y-4890300D01*
X2450100Y-4760300D02*
X2320100Y-4890300D01*
X2385100Y-4760300D02*
X2385100Y-4890300D01*
X2320100Y-4825300D02*
X2450100Y-4825300D01*
X2322000Y-9746000D02*
X2452000Y-9876000D01*
X2452000Y-9746000D02*
X2322000Y-9876000D01*
X2387000Y-9746000D02*
X2387000Y-9876000D01*
X2322000Y-9811000D02*
X2452000Y-9811000D01*
X2322000Y-10254000D02*
X2452000Y-10384000D01*
X2452000Y-10254000D02*
X2322000Y-10384000D01*
X2387000Y-10254000D02*
X2387000Y-10384000D01*
X2322000Y-10319000D02*
X2452000Y-10319000D01*
X2327100Y-5906300D02*
X2457100Y-6036300D01*
X2457100Y-5906300D02*
X2327100Y-6036300D01*
X2392100Y-5906300D02*
X2392100Y-6036300D01*
X2327100Y-5971300D02*
X2457100Y-5971300D01*
X2327100Y-6414300D02*
X2457100Y-6544300D01*
X2457100Y-6414300D02*
X2327100Y-6544300D01*
X2392100Y-6414300D02*
X2392100Y-6544300D01*
X2327100Y-6479300D02*
X2457100Y-6479300D01*
X2335100Y-7335300D02*
X2465100Y-7465300D01*
X2465100Y-7335300D02*
X2335100Y-7465300D01*
X2400100Y-7335300D02*
X2400100Y-7465300D01*
X2335100Y-7400300D02*
X2465100Y-7400300D01*
X2335100Y-7843300D02*
X2465100Y-7973300D01*
X2465100Y-7843300D02*
X2335100Y-7973300D01*
X2400100Y-7843300D02*
X2400100Y-7973300D01*
X2335100Y-7908300D02*
X2465100Y-7908300D01*
D19*
X17060000Y-4615000D02*
X17230000Y-4785000D01*
X17230000Y-4615000D02*
X17060000Y-4785000D01*
X17205105Y-4760105D02*
X17205105Y-4639895D01*
X17084895Y-4639895D01*
X17084895Y-4760105D01*
X17205105Y-4760105D01*
X17060000Y-7352500D02*
X17230000Y-7522500D01*
X17230000Y-7352500D02*
X17060000Y-7522500D01*
X17205105Y-7497605D02*
X17205105Y-7377395D01*
X17084895Y-7377395D01*
X17084895Y-7497605D01*
X17205105Y-7497605D01*
X17075100Y-8806300D02*
X17245100Y-8976300D01*
X17245100Y-8806300D02*
X17075100Y-8976300D01*
X17220205Y-8951405D02*
X17220205Y-8831195D01*
X17099995Y-8831195D01*
X17099995Y-8951405D01*
X17220205Y-8951405D01*
X17077600Y-10256300D02*
X17247600Y-10426300D01*
X17247600Y-10256300D02*
X17077600Y-10426300D01*
X17222705Y-10401405D02*
X17222705Y-10281195D01*
X17102495Y-10281195D01*
X17102495Y-10401405D01*
X17222705Y-10401405D01*
D20*
X17015000Y-4070000D02*
X17275000Y-4330000D01*
X17275000Y-4070000D02*
X17015000Y-4330000D01*
X17145000Y-4330000D02*
X17275000Y-4200000D01*
X17145000Y-4070000D01*
X17015000Y-4200000D01*
X17145000Y-4330000D01*
X17015000Y-5070000D02*
X17275000Y-5330000D01*
X17275000Y-5070000D02*
X17015000Y-5330000D01*
X17145000Y-5330000D02*
X17275000Y-5200000D01*
X17145000Y-5070000D01*
X17015000Y-5200000D01*
X17145000Y-5330000D01*
X17015000Y-6807500D02*
X17275000Y-7067500D01*
X17275000Y-6807500D02*
X17015000Y-7067500D01*
X17145000Y-7067500D02*
X17275000Y-6937500D01*
X17145000Y-6807500D01*
X17015000Y-6937500D01*
X17145000Y-7067500D01*
X17015000Y-7807500D02*
X17275000Y-8067500D01*
X17275000Y-7807500D02*
X17015000Y-8067500D01*
X17145000Y-8067500D02*
X17275000Y-7937500D01*
X17145000Y-7807500D01*
X17015000Y-7937500D01*
X17145000Y-8067500D01*
X17030100Y-8261300D02*
X17290100Y-8521300D01*
X17290100Y-8261300D02*
X17030100Y-8521300D01*
X17160100Y-8521300D02*
X17290100Y-8391300D01*
X17160100Y-8261300D01*
X17030100Y-8391300D01*
X17160100Y-8521300D01*
X17030100Y-9261300D02*
X17290100Y-9521300D01*
X17290100Y-9261300D02*
X17030100Y-9521300D01*
X17160100Y-9521300D02*
X17290100Y-9391300D01*
X17160100Y-9261300D01*
X17030100Y-9391300D01*
X17160100Y-9521300D01*
X17032600Y-9711300D02*
X17292600Y-9971300D01*
X17292600Y-9711300D02*
X17032600Y-9971300D01*
X17162600Y-9971300D02*
X17292600Y-9841300D01*
X17162600Y-9711300D01*
X17032600Y-9841300D01*
X17162600Y-9971300D01*
X17032600Y-10711300D02*
X17292600Y-10971300D01*
X17292600Y-10711300D02*
X17032600Y-10971300D01*
X17162600Y-10971300D02*
X17292600Y-10841300D01*
X17162600Y-10711300D01*
X17032600Y-10841300D01*
X17162600Y-10971300D01*
X17465000Y-4570000D02*
X17725000Y-4830000D01*
X17725000Y-4570000D02*
X17465000Y-4830000D01*
X17595000Y-4830000D02*
X17725000Y-4700000D01*
X17595000Y-4570000D01*
X17465000Y-4700000D01*
X17595000Y-4830000D01*
X17465000Y-7307500D02*
X17725000Y-7567500D01*
X17725000Y-7307500D02*
X17465000Y-7567500D01*
X17595000Y-7567500D02*
X17725000Y-7437500D01*
X17595000Y-7307500D01*
X17465000Y-7437500D01*
X17595000Y-7567500D01*
X17480100Y-8761300D02*
X17740100Y-9021300D01*
X17740100Y-8761300D02*
X17480100Y-9021300D01*
X17610100Y-9021300D02*
X17740100Y-8891300D01*
X17610100Y-8761300D01*
X17480100Y-8891300D01*
X17610100Y-9021300D01*
X17482600Y-10211300D02*
X17742600Y-10471300D01*
X17742600Y-10211300D02*
X17482600Y-10471300D01*
X17612600Y-10471300D02*
X17742600Y-10341300D01*
X17612600Y-10211300D01*
X17482600Y-10341300D01*
X17612600Y-10471300D01*
D11*
X2119719Y-12004024D02*
X2119719Y-11804024D01*
X2119719Y-11804024D02*
X2167338Y-11804024D01*
X2167338Y-11804024D02*
X2195910Y-11813548D01*
X2195910Y-11813548D02*
X2214957Y-11832595D01*
X2214957Y-11832595D02*
X2224481Y-11851643D01*
X2224481Y-11851643D02*
X2234005Y-11889738D01*
X2234005Y-11889738D02*
X2234005Y-11918309D01*
X2234005Y-11918309D02*
X2224481Y-11956405D01*
X2224481Y-11956405D02*
X2214957Y-11975452D01*
X2214957Y-11975452D02*
X2195910Y-11994500D01*
X2195910Y-11994500D02*
X2167338Y-12004024D01*
X2167338Y-12004024D02*
X2119719Y-12004024D01*
X2319719Y-12004024D02*
X2319719Y-11870690D01*
X2319719Y-11908786D02*
X2329243Y-11889738D01*
X2329243Y-11889738D02*
X2338767Y-11880214D01*
X2338767Y-11880214D02*
X2357814Y-11870690D01*
X2357814Y-11870690D02*
X2376862Y-11870690D01*
X2443529Y-12004024D02*
X2443529Y-11870690D01*
X2443529Y-11804024D02*
X2434005Y-11813548D01*
X2434005Y-11813548D02*
X2443529Y-11823071D01*
X2443529Y-11823071D02*
X2453052Y-11813548D01*
X2453052Y-11813548D02*
X2443529Y-11804024D01*
X2443529Y-11804024D02*
X2443529Y-11823071D01*
X2567338Y-12004024D02*
X2548290Y-11994500D01*
X2548290Y-11994500D02*
X2538767Y-11975452D01*
X2538767Y-11975452D02*
X2538767Y-11804024D01*
X2672100Y-12004024D02*
X2653052Y-11994500D01*
X2653052Y-11994500D02*
X2643529Y-11975452D01*
X2643529Y-11975452D02*
X2643529Y-11804024D01*
X2900671Y-12004024D02*
X2900671Y-11804024D01*
X2900671Y-11804024D02*
X2967338Y-11946881D01*
X2967338Y-11946881D02*
X3034005Y-11804024D01*
X3034005Y-11804024D02*
X3034005Y-12004024D01*
X3214957Y-12004024D02*
X3214957Y-11899262D01*
X3214957Y-11899262D02*
X3205433Y-11880214D01*
X3205433Y-11880214D02*
X3186386Y-11870690D01*
X3186386Y-11870690D02*
X3148290Y-11870690D01*
X3148290Y-11870690D02*
X3129243Y-11880214D01*
X3214957Y-11994500D02*
X3195909Y-12004024D01*
X3195909Y-12004024D02*
X3148290Y-12004024D01*
X3148290Y-12004024D02*
X3129243Y-11994500D01*
X3129243Y-11994500D02*
X3119719Y-11975452D01*
X3119719Y-11975452D02*
X3119719Y-11956405D01*
X3119719Y-11956405D02*
X3129243Y-11937357D01*
X3129243Y-11937357D02*
X3148290Y-11927833D01*
X3148290Y-11927833D02*
X3195909Y-11927833D01*
X3195909Y-11927833D02*
X3214957Y-11918309D01*
X3310195Y-11870690D02*
X3310195Y-12070690D01*
X3310195Y-11880214D02*
X3329243Y-11870690D01*
X3329243Y-11870690D02*
X3367338Y-11870690D01*
X3367338Y-11870690D02*
X3386386Y-11880214D01*
X3386386Y-11880214D02*
X3395909Y-11889738D01*
X3395909Y-11889738D02*
X3405433Y-11908786D01*
X3405433Y-11908786D02*
X3405433Y-11965928D01*
X3405433Y-11965928D02*
X3395909Y-11984976D01*
X3395909Y-11984976D02*
X3386386Y-11994500D01*
X3386386Y-11994500D02*
X3367338Y-12004024D01*
X3367338Y-12004024D02*
X3329243Y-12004024D01*
X3329243Y-12004024D02*
X3310195Y-11994500D01*
X3491148Y-11984976D02*
X3500671Y-11994500D01*
X3500671Y-11994500D02*
X3491148Y-12004024D01*
X3491148Y-12004024D02*
X3481624Y-11994500D01*
X3481624Y-11994500D02*
X3491148Y-11984976D01*
X3491148Y-11984976D02*
X3491148Y-12004024D01*
X3491148Y-11880214D02*
X3500671Y-11889738D01*
X3500671Y-11889738D02*
X3491148Y-11899262D01*
X3491148Y-11899262D02*
X3481624Y-11889738D01*
X3481624Y-11889738D02*
X3491148Y-11880214D01*
X3491148Y-11880214D02*
X3491148Y-11899262D01*
D12*
X1832100Y-12311500D02*
X1872100Y-12351500D01*
X1872100Y-12311500D02*
X1832100Y-12351500D01*
D11*
X2157814Y-12224024D02*
X2176862Y-12224024D01*
X2176862Y-12224024D02*
X2195910Y-12233548D01*
X2195910Y-12233548D02*
X2205433Y-12243071D01*
X2205433Y-12243071D02*
X2214957Y-12262119D01*
X2214957Y-12262119D02*
X2224481Y-12300214D01*
X2224481Y-12300214D02*
X2224481Y-12347833D01*
X2224481Y-12347833D02*
X2214957Y-12385928D01*
X2214957Y-12385928D02*
X2205433Y-12404976D01*
X2205433Y-12404976D02*
X2195910Y-12414500D01*
X2195910Y-12414500D02*
X2176862Y-12424024D01*
X2176862Y-12424024D02*
X2157814Y-12424024D01*
X2157814Y-12424024D02*
X2138767Y-12414500D01*
X2138767Y-12414500D02*
X2129243Y-12404976D01*
X2129243Y-12404976D02*
X2119719Y-12385928D01*
X2119719Y-12385928D02*
X2110195Y-12347833D01*
X2110195Y-12347833D02*
X2110195Y-12300214D01*
X2110195Y-12300214D02*
X2119719Y-12262119D01*
X2119719Y-12262119D02*
X2129243Y-12243071D01*
X2129243Y-12243071D02*
X2138767Y-12233548D01*
X2138767Y-12233548D02*
X2157814Y-12224024D01*
X2310195Y-12404976D02*
X2319719Y-12414500D01*
X2319719Y-12414500D02*
X2310195Y-12424024D01*
X2310195Y-12424024D02*
X2300671Y-12414500D01*
X2300671Y-12414500D02*
X2310195Y-12404976D01*
X2310195Y-12404976D02*
X2310195Y-12424024D01*
X2491148Y-12290690D02*
X2491148Y-12424024D01*
X2443529Y-12214500D02*
X2395910Y-12357357D01*
X2395910Y-12357357D02*
X2519719Y-12357357D01*
X2634005Y-12224024D02*
X2653052Y-12224024D01*
X2653052Y-12224024D02*
X2672100Y-12233548D01*
X2672100Y-12233548D02*
X2681624Y-12243071D01*
X2681624Y-12243071D02*
X2691148Y-12262119D01*
X2691148Y-12262119D02*
X2700671Y-12300214D01*
X2700671Y-12300214D02*
X2700671Y-12347833D01*
X2700671Y-12347833D02*
X2691148Y-12385928D01*
X2691148Y-12385928D02*
X2681624Y-12404976D01*
X2681624Y-12404976D02*
X2672100Y-12414500D01*
X2672100Y-12414500D02*
X2653052Y-12424024D01*
X2653052Y-12424024D02*
X2634005Y-12424024D01*
X2634005Y-12424024D02*
X2614957Y-12414500D01*
X2614957Y-12414500D02*
X2605433Y-12404976D01*
X2605433Y-12404976D02*
X2595910Y-12385928D01*
X2595910Y-12385928D02*
X2586386Y-12347833D01*
X2586386Y-12347833D02*
X2586386Y-12300214D01*
X2586386Y-12300214D02*
X2595910Y-12262119D01*
X2595910Y-12262119D02*
X2605433Y-12243071D01*
X2605433Y-12243071D02*
X2614957Y-12233548D01*
X2614957Y-12233548D02*
X2634005Y-12224024D01*
X2824481Y-12224024D02*
X2843529Y-12224024D01*
X2843529Y-12224024D02*
X2862576Y-12233548D01*
X2862576Y-12233548D02*
X2872100Y-12243071D01*
X2872100Y-12243071D02*
X2881624Y-12262119D01*
X2881624Y-12262119D02*
X2891148Y-12300214D01*
X2891148Y-12300214D02*
X2891148Y-12347833D01*
X2891148Y-12347833D02*
X2881624Y-12385928D01*
X2881624Y-12385928D02*
X2872100Y-12404976D01*
X2872100Y-12404976D02*
X2862576Y-12414500D01*
X2862576Y-12414500D02*
X2843529Y-12424024D01*
X2843529Y-12424024D02*
X2824481Y-12424024D01*
X2824481Y-12424024D02*
X2805433Y-12414500D01*
X2805433Y-12414500D02*
X2795910Y-12404976D01*
X2795910Y-12404976D02*
X2786386Y-12385928D01*
X2786386Y-12385928D02*
X2776862Y-12347833D01*
X2776862Y-12347833D02*
X2776862Y-12300214D01*
X2776862Y-12300214D02*
X2786386Y-12262119D01*
X2786386Y-12262119D02*
X2795910Y-12243071D01*
X2795910Y-12243071D02*
X2805433Y-12233548D01*
X2805433Y-12233548D02*
X2824481Y-12224024D01*
X2976862Y-12424024D02*
X2976862Y-12290690D01*
X2976862Y-12309738D02*
X2986386Y-12300214D01*
X2986386Y-12300214D02*
X3005433Y-12290690D01*
X3005433Y-12290690D02*
X3034005Y-12290690D01*
X3034005Y-12290690D02*
X3053052Y-12300214D01*
X3053052Y-12300214D02*
X3062576Y-12319262D01*
X3062576Y-12319262D02*
X3062576Y-12424024D01*
X3062576Y-12319262D02*
X3072100Y-12300214D01*
X3072100Y-12300214D02*
X3091148Y-12290690D01*
X3091148Y-12290690D02*
X3119719Y-12290690D01*
X3119719Y-12290690D02*
X3138767Y-12300214D01*
X3138767Y-12300214D02*
X3148290Y-12319262D01*
X3148290Y-12319262D02*
X3148290Y-12424024D01*
X3243529Y-12424024D02*
X3243529Y-12290690D01*
X3243529Y-12309738D02*
X3253052Y-12300214D01*
X3253052Y-12300214D02*
X3272100Y-12290690D01*
X3272100Y-12290690D02*
X3300671Y-12290690D01*
X3300671Y-12290690D02*
X3319719Y-12300214D01*
X3319719Y-12300214D02*
X3329243Y-12319262D01*
X3329243Y-12319262D02*
X3329243Y-12424024D01*
X3329243Y-12319262D02*
X3338767Y-12300214D01*
X3338767Y-12300214D02*
X3357814Y-12290690D01*
X3357814Y-12290690D02*
X3386386Y-12290690D01*
X3386386Y-12290690D02*
X3405433Y-12300214D01*
X3405433Y-12300214D02*
X3414957Y-12319262D01*
X3414957Y-12319262D02*
X3414957Y-12424024D01*
X3805433Y-12214500D02*
X3634005Y-12471643D01*
X4062576Y-12224024D02*
X4081624Y-12224024D01*
X4081624Y-12224024D02*
X4100672Y-12233548D01*
X4100672Y-12233548D02*
X4110195Y-12243071D01*
X4110195Y-12243071D02*
X4119719Y-12262119D01*
X4119719Y-12262119D02*
X4129243Y-12300214D01*
X4129243Y-12300214D02*
X4129243Y-12347833D01*
X4129243Y-12347833D02*
X4119719Y-12385928D01*
X4119719Y-12385928D02*
X4110195Y-12404976D01*
X4110195Y-12404976D02*
X4100672Y-12414500D01*
X4100672Y-12414500D02*
X4081624Y-12424024D01*
X4081624Y-12424024D02*
X4062576Y-12424024D01*
X4062576Y-12424024D02*
X4043529Y-12414500D01*
X4043529Y-12414500D02*
X4034005Y-12404976D01*
X4034005Y-12404976D02*
X4024481Y-12385928D01*
X4024481Y-12385928D02*
X4014957Y-12347833D01*
X4014957Y-12347833D02*
X4014957Y-12300214D01*
X4014957Y-12300214D02*
X4024481Y-12262119D01*
X4024481Y-12262119D02*
X4034005Y-12243071D01*
X4034005Y-12243071D02*
X4043529Y-12233548D01*
X4043529Y-12233548D02*
X4062576Y-12224024D01*
X4214957Y-12404976D02*
X4224481Y-12414500D01*
X4224481Y-12414500D02*
X4214957Y-12424024D01*
X4214957Y-12424024D02*
X4205434Y-12414500D01*
X4205434Y-12414500D02*
X4214957Y-12404976D01*
X4214957Y-12404976D02*
X4214957Y-12424024D01*
X4348291Y-12224024D02*
X4367338Y-12224024D01*
X4367338Y-12224024D02*
X4386386Y-12233548D01*
X4386386Y-12233548D02*
X4395910Y-12243071D01*
X4395910Y-12243071D02*
X4405434Y-12262119D01*
X4405434Y-12262119D02*
X4414957Y-12300214D01*
X4414957Y-12300214D02*
X4414957Y-12347833D01*
X4414957Y-12347833D02*
X4405434Y-12385928D01*
X4405434Y-12385928D02*
X4395910Y-12404976D01*
X4395910Y-12404976D02*
X4386386Y-12414500D01*
X4386386Y-12414500D02*
X4367338Y-12424024D01*
X4367338Y-12424024D02*
X4348291Y-12424024D01*
X4348291Y-12424024D02*
X4329243Y-12414500D01*
X4329243Y-12414500D02*
X4319719Y-12404976D01*
X4319719Y-12404976D02*
X4310195Y-12385928D01*
X4310195Y-12385928D02*
X4300672Y-12347833D01*
X4300672Y-12347833D02*
X4300672Y-12300214D01*
X4300672Y-12300214D02*
X4310195Y-12262119D01*
X4310195Y-12262119D02*
X4319719Y-12243071D01*
X4319719Y-12243071D02*
X4329243Y-12233548D01*
X4329243Y-12233548D02*
X4348291Y-12224024D01*
X4605434Y-12424024D02*
X4491148Y-12424024D01*
X4548291Y-12424024D02*
X4548291Y-12224024D01*
X4548291Y-12224024D02*
X4529243Y-12252595D01*
X4529243Y-12252595D02*
X4510195Y-12271643D01*
X4510195Y-12271643D02*
X4491148Y-12281167D01*
X4786386Y-12224024D02*
X4691148Y-12224024D01*
X4691148Y-12224024D02*
X4681624Y-12319262D01*
X4681624Y-12319262D02*
X4691148Y-12309738D01*
X4691148Y-12309738D02*
X4710195Y-12300214D01*
X4710195Y-12300214D02*
X4757815Y-12300214D01*
X4757815Y-12300214D02*
X4776862Y-12309738D01*
X4776862Y-12309738D02*
X4786386Y-12319262D01*
X4786386Y-12319262D02*
X4795910Y-12338309D01*
X4795910Y-12338309D02*
X4795910Y-12385928D01*
X4795910Y-12385928D02*
X4786386Y-12404976D01*
X4786386Y-12404976D02*
X4776862Y-12414500D01*
X4776862Y-12414500D02*
X4757815Y-12424024D01*
X4757815Y-12424024D02*
X4710195Y-12424024D01*
X4710195Y-12424024D02*
X4691148Y-12414500D01*
X4691148Y-12414500D02*
X4681624Y-12404976D01*
X4862576Y-12224024D02*
X4995910Y-12224024D01*
X4995910Y-12224024D02*
X4910195Y-12424024D01*
X5062576Y-12224024D02*
X5062576Y-12262119D01*
X5138767Y-12224024D02*
X5138767Y-12262119D01*
X5434005Y-12500214D02*
X5424481Y-12490690D01*
X5424481Y-12490690D02*
X5405434Y-12462119D01*
X5405434Y-12462119D02*
X5395910Y-12443071D01*
X5395910Y-12443071D02*
X5386386Y-12414500D01*
X5386386Y-12414500D02*
X5376862Y-12366881D01*
X5376862Y-12366881D02*
X5376862Y-12328786D01*
X5376862Y-12328786D02*
X5386386Y-12281167D01*
X5386386Y-12281167D02*
X5395910Y-12252595D01*
X5395910Y-12252595D02*
X5405434Y-12233548D01*
X5405434Y-12233548D02*
X5424481Y-12204976D01*
X5424481Y-12204976D02*
X5434005Y-12195452D01*
X5500672Y-12243071D02*
X5510196Y-12233548D01*
X5510196Y-12233548D02*
X5529243Y-12224024D01*
X5529243Y-12224024D02*
X5576862Y-12224024D01*
X5576862Y-12224024D02*
X5595910Y-12233548D01*
X5595910Y-12233548D02*
X5605434Y-12243071D01*
X5605434Y-12243071D02*
X5614957Y-12262119D01*
X5614957Y-12262119D02*
X5614957Y-12281167D01*
X5614957Y-12281167D02*
X5605434Y-12309738D01*
X5605434Y-12309738D02*
X5491148Y-12424024D01*
X5491148Y-12424024D02*
X5614957Y-12424024D01*
X5786386Y-12224024D02*
X5748291Y-12224024D01*
X5748291Y-12224024D02*
X5729243Y-12233548D01*
X5729243Y-12233548D02*
X5719719Y-12243071D01*
X5719719Y-12243071D02*
X5700672Y-12271643D01*
X5700672Y-12271643D02*
X5691148Y-12309738D01*
X5691148Y-12309738D02*
X5691148Y-12385928D01*
X5691148Y-12385928D02*
X5700672Y-12404976D01*
X5700672Y-12404976D02*
X5710195Y-12414500D01*
X5710195Y-12414500D02*
X5729243Y-12424024D01*
X5729243Y-12424024D02*
X5767338Y-12424024D01*
X5767338Y-12424024D02*
X5786386Y-12414500D01*
X5786386Y-12414500D02*
X5795910Y-12404976D01*
X5795910Y-12404976D02*
X5805434Y-12385928D01*
X5805434Y-12385928D02*
X5805434Y-12338309D01*
X5805434Y-12338309D02*
X5795910Y-12319262D01*
X5795910Y-12319262D02*
X5786386Y-12309738D01*
X5786386Y-12309738D02*
X5767338Y-12300214D01*
X5767338Y-12300214D02*
X5729243Y-12300214D01*
X5729243Y-12300214D02*
X5710195Y-12309738D01*
X5710195Y-12309738D02*
X5700672Y-12319262D01*
X5700672Y-12319262D02*
X5691148Y-12338309D01*
X5872100Y-12224024D02*
X6005434Y-12224024D01*
X6005434Y-12224024D02*
X5919719Y-12424024D01*
X6234005Y-12424024D02*
X6234005Y-12224024D01*
X6319719Y-12424024D02*
X6319719Y-12319262D01*
X6319719Y-12319262D02*
X6310196Y-12300214D01*
X6310196Y-12300214D02*
X6291148Y-12290690D01*
X6291148Y-12290690D02*
X6262576Y-12290690D01*
X6262576Y-12290690D02*
X6243529Y-12300214D01*
X6243529Y-12300214D02*
X6234005Y-12309738D01*
X6443529Y-12424024D02*
X6424481Y-12414500D01*
X6424481Y-12414500D02*
X6414957Y-12404976D01*
X6414957Y-12404976D02*
X6405434Y-12385928D01*
X6405434Y-12385928D02*
X6405434Y-12328786D01*
X6405434Y-12328786D02*
X6414957Y-12309738D01*
X6414957Y-12309738D02*
X6424481Y-12300214D01*
X6424481Y-12300214D02*
X6443529Y-12290690D01*
X6443529Y-12290690D02*
X6472100Y-12290690D01*
X6472100Y-12290690D02*
X6491148Y-12300214D01*
X6491148Y-12300214D02*
X6500672Y-12309738D01*
X6500672Y-12309738D02*
X6510196Y-12328786D01*
X6510196Y-12328786D02*
X6510196Y-12385928D01*
X6510196Y-12385928D02*
X6500672Y-12404976D01*
X6500672Y-12404976D02*
X6491148Y-12414500D01*
X6491148Y-12414500D02*
X6472100Y-12424024D01*
X6472100Y-12424024D02*
X6443529Y-12424024D01*
X6624481Y-12424024D02*
X6605434Y-12414500D01*
X6605434Y-12414500D02*
X6595910Y-12395452D01*
X6595910Y-12395452D02*
X6595910Y-12224024D01*
X6776862Y-12414500D02*
X6757815Y-12424024D01*
X6757815Y-12424024D02*
X6719719Y-12424024D01*
X6719719Y-12424024D02*
X6700672Y-12414500D01*
X6700672Y-12414500D02*
X6691148Y-12395452D01*
X6691148Y-12395452D02*
X6691148Y-12319262D01*
X6691148Y-12319262D02*
X6700672Y-12300214D01*
X6700672Y-12300214D02*
X6719719Y-12290690D01*
X6719719Y-12290690D02*
X6757815Y-12290690D01*
X6757815Y-12290690D02*
X6776862Y-12300214D01*
X6776862Y-12300214D02*
X6786386Y-12319262D01*
X6786386Y-12319262D02*
X6786386Y-12338309D01*
X6786386Y-12338309D02*
X6691148Y-12357357D01*
X6862577Y-12414500D02*
X6881624Y-12424024D01*
X6881624Y-12424024D02*
X6919719Y-12424024D01*
X6919719Y-12424024D02*
X6938767Y-12414500D01*
X6938767Y-12414500D02*
X6948291Y-12395452D01*
X6948291Y-12395452D02*
X6948291Y-12385928D01*
X6948291Y-12385928D02*
X6938767Y-12366881D01*
X6938767Y-12366881D02*
X6919719Y-12357357D01*
X6919719Y-12357357D02*
X6891148Y-12357357D01*
X6891148Y-12357357D02*
X6872100Y-12347833D01*
X6872100Y-12347833D02*
X6862577Y-12328786D01*
X6862577Y-12328786D02*
X6862577Y-12319262D01*
X6862577Y-12319262D02*
X6872100Y-12300214D01*
X6872100Y-12300214D02*
X6891148Y-12290690D01*
X6891148Y-12290690D02*
X6919719Y-12290690D01*
X6919719Y-12290690D02*
X6938767Y-12300214D01*
X7014958Y-12500214D02*
X7024481Y-12490690D01*
X7024481Y-12490690D02*
X7043529Y-12462119D01*
X7043529Y-12462119D02*
X7053053Y-12443071D01*
X7053053Y-12443071D02*
X7062577Y-12414500D01*
X7062577Y-12414500D02*
X7072100Y-12366881D01*
X7072100Y-12366881D02*
X7072100Y-12328786D01*
X7072100Y-12328786D02*
X7062577Y-12281167D01*
X7062577Y-12281167D02*
X7053053Y-12252595D01*
X7053053Y-12252595D02*
X7043529Y-12233548D01*
X7043529Y-12233548D02*
X7024481Y-12204976D01*
X7024481Y-12204976D02*
X7014958Y-12195452D01*
D13*
X1872100Y-12595500D02*
G75*
G03*
X1872100Y-12595500I-32500J0D01*
G01*
D11*
X2157814Y-12488024D02*
X2176862Y-12488024D01*
X2176862Y-12488024D02*
X2195910Y-12497548D01*
X2195910Y-12497548D02*
X2205433Y-12507071D01*
X2205433Y-12507071D02*
X2214957Y-12526119D01*
X2214957Y-12526119D02*
X2224481Y-12564214D01*
X2224481Y-12564214D02*
X2224481Y-12611833D01*
X2224481Y-12611833D02*
X2214957Y-12649928D01*
X2214957Y-12649928D02*
X2205433Y-12668976D01*
X2205433Y-12668976D02*
X2195910Y-12678500D01*
X2195910Y-12678500D02*
X2176862Y-12688024D01*
X2176862Y-12688024D02*
X2157814Y-12688024D01*
X2157814Y-12688024D02*
X2138767Y-12678500D01*
X2138767Y-12678500D02*
X2129243Y-12668976D01*
X2129243Y-12668976D02*
X2119719Y-12649928D01*
X2119719Y-12649928D02*
X2110195Y-12611833D01*
X2110195Y-12611833D02*
X2110195Y-12564214D01*
X2110195Y-12564214D02*
X2119719Y-12526119D01*
X2119719Y-12526119D02*
X2129243Y-12507071D01*
X2129243Y-12507071D02*
X2138767Y-12497548D01*
X2138767Y-12497548D02*
X2157814Y-12488024D01*
X2310195Y-12668976D02*
X2319719Y-12678500D01*
X2319719Y-12678500D02*
X2310195Y-12688024D01*
X2310195Y-12688024D02*
X2300671Y-12678500D01*
X2300671Y-12678500D02*
X2310195Y-12668976D01*
X2310195Y-12668976D02*
X2310195Y-12688024D01*
X2491148Y-12488024D02*
X2453052Y-12488024D01*
X2453052Y-12488024D02*
X2434005Y-12497548D01*
X2434005Y-12497548D02*
X2424481Y-12507071D01*
X2424481Y-12507071D02*
X2405433Y-12535643D01*
X2405433Y-12535643D02*
X2395910Y-12573738D01*
X2395910Y-12573738D02*
X2395910Y-12649928D01*
X2395910Y-12649928D02*
X2405433Y-12668976D01*
X2405433Y-12668976D02*
X2414957Y-12678500D01*
X2414957Y-12678500D02*
X2434005Y-12688024D01*
X2434005Y-12688024D02*
X2472100Y-12688024D01*
X2472100Y-12688024D02*
X2491148Y-12678500D01*
X2491148Y-12678500D02*
X2500671Y-12668976D01*
X2500671Y-12668976D02*
X2510195Y-12649928D01*
X2510195Y-12649928D02*
X2510195Y-12602309D01*
X2510195Y-12602309D02*
X2500671Y-12583262D01*
X2500671Y-12583262D02*
X2491148Y-12573738D01*
X2491148Y-12573738D02*
X2472100Y-12564214D01*
X2472100Y-12564214D02*
X2434005Y-12564214D01*
X2434005Y-12564214D02*
X2414957Y-12573738D01*
X2414957Y-12573738D02*
X2405433Y-12583262D01*
X2405433Y-12583262D02*
X2395910Y-12602309D01*
X2691148Y-12488024D02*
X2595910Y-12488024D01*
X2595910Y-12488024D02*
X2586386Y-12583262D01*
X2586386Y-12583262D02*
X2595910Y-12573738D01*
X2595910Y-12573738D02*
X2614957Y-12564214D01*
X2614957Y-12564214D02*
X2662576Y-12564214D01*
X2662576Y-12564214D02*
X2681624Y-12573738D01*
X2681624Y-12573738D02*
X2691148Y-12583262D01*
X2691148Y-12583262D02*
X2700671Y-12602309D01*
X2700671Y-12602309D02*
X2700671Y-12649928D01*
X2700671Y-12649928D02*
X2691148Y-12668976D01*
X2691148Y-12668976D02*
X2681624Y-12678500D01*
X2681624Y-12678500D02*
X2662576Y-12688024D01*
X2662576Y-12688024D02*
X2614957Y-12688024D01*
X2614957Y-12688024D02*
X2595910Y-12678500D01*
X2595910Y-12678500D02*
X2586386Y-12668976D01*
X2824481Y-12488024D02*
X2843529Y-12488024D01*
X2843529Y-12488024D02*
X2862576Y-12497548D01*
X2862576Y-12497548D02*
X2872100Y-12507071D01*
X2872100Y-12507071D02*
X2881624Y-12526119D01*
X2881624Y-12526119D02*
X2891148Y-12564214D01*
X2891148Y-12564214D02*
X2891148Y-12611833D01*
X2891148Y-12611833D02*
X2881624Y-12649928D01*
X2881624Y-12649928D02*
X2872100Y-12668976D01*
X2872100Y-12668976D02*
X2862576Y-12678500D01*
X2862576Y-12678500D02*
X2843529Y-12688024D01*
X2843529Y-12688024D02*
X2824481Y-12688024D01*
X2824481Y-12688024D02*
X2805433Y-12678500D01*
X2805433Y-12678500D02*
X2795910Y-12668976D01*
X2795910Y-12668976D02*
X2786386Y-12649928D01*
X2786386Y-12649928D02*
X2776862Y-12611833D01*
X2776862Y-12611833D02*
X2776862Y-12564214D01*
X2776862Y-12564214D02*
X2786386Y-12526119D01*
X2786386Y-12526119D02*
X2795910Y-12507071D01*
X2795910Y-12507071D02*
X2805433Y-12497548D01*
X2805433Y-12497548D02*
X2824481Y-12488024D01*
X2976862Y-12688024D02*
X2976862Y-12554690D01*
X2976862Y-12573738D02*
X2986386Y-12564214D01*
X2986386Y-12564214D02*
X3005433Y-12554690D01*
X3005433Y-12554690D02*
X3034005Y-12554690D01*
X3034005Y-12554690D02*
X3053052Y-12564214D01*
X3053052Y-12564214D02*
X3062576Y-12583262D01*
X3062576Y-12583262D02*
X3062576Y-12688024D01*
X3062576Y-12583262D02*
X3072100Y-12564214D01*
X3072100Y-12564214D02*
X3091148Y-12554690D01*
X3091148Y-12554690D02*
X3119719Y-12554690D01*
X3119719Y-12554690D02*
X3138767Y-12564214D01*
X3138767Y-12564214D02*
X3148290Y-12583262D01*
X3148290Y-12583262D02*
X3148290Y-12688024D01*
X3243529Y-12688024D02*
X3243529Y-12554690D01*
X3243529Y-12573738D02*
X3253052Y-12564214D01*
X3253052Y-12564214D02*
X3272100Y-12554690D01*
X3272100Y-12554690D02*
X3300671Y-12554690D01*
X3300671Y-12554690D02*
X3319719Y-12564214D01*
X3319719Y-12564214D02*
X3329243Y-12583262D01*
X3329243Y-12583262D02*
X3329243Y-12688024D01*
X3329243Y-12583262D02*
X3338767Y-12564214D01*
X3338767Y-12564214D02*
X3357814Y-12554690D01*
X3357814Y-12554690D02*
X3386386Y-12554690D01*
X3386386Y-12554690D02*
X3405433Y-12564214D01*
X3405433Y-12564214D02*
X3414957Y-12583262D01*
X3414957Y-12583262D02*
X3414957Y-12688024D01*
X3805433Y-12478500D02*
X3634005Y-12735643D01*
X4062576Y-12488024D02*
X4081624Y-12488024D01*
X4081624Y-12488024D02*
X4100672Y-12497548D01*
X4100672Y-12497548D02*
X4110195Y-12507071D01*
X4110195Y-12507071D02*
X4119719Y-12526119D01*
X4119719Y-12526119D02*
X4129243Y-12564214D01*
X4129243Y-12564214D02*
X4129243Y-12611833D01*
X4129243Y-12611833D02*
X4119719Y-12649928D01*
X4119719Y-12649928D02*
X4110195Y-12668976D01*
X4110195Y-12668976D02*
X4100672Y-12678500D01*
X4100672Y-12678500D02*
X4081624Y-12688024D01*
X4081624Y-12688024D02*
X4062576Y-12688024D01*
X4062576Y-12688024D02*
X4043529Y-12678500D01*
X4043529Y-12678500D02*
X4034005Y-12668976D01*
X4034005Y-12668976D02*
X4024481Y-12649928D01*
X4024481Y-12649928D02*
X4014957Y-12611833D01*
X4014957Y-12611833D02*
X4014957Y-12564214D01*
X4014957Y-12564214D02*
X4024481Y-12526119D01*
X4024481Y-12526119D02*
X4034005Y-12507071D01*
X4034005Y-12507071D02*
X4043529Y-12497548D01*
X4043529Y-12497548D02*
X4062576Y-12488024D01*
X4214957Y-12668976D02*
X4224481Y-12678500D01*
X4224481Y-12678500D02*
X4214957Y-12688024D01*
X4214957Y-12688024D02*
X4205434Y-12678500D01*
X4205434Y-12678500D02*
X4214957Y-12668976D01*
X4214957Y-12668976D02*
X4214957Y-12688024D01*
X4348291Y-12488024D02*
X4367338Y-12488024D01*
X4367338Y-12488024D02*
X4386386Y-12497548D01*
X4386386Y-12497548D02*
X4395910Y-12507071D01*
X4395910Y-12507071D02*
X4405434Y-12526119D01*
X4405434Y-12526119D02*
X4414957Y-12564214D01*
X4414957Y-12564214D02*
X4414957Y-12611833D01*
X4414957Y-12611833D02*
X4405434Y-12649928D01*
X4405434Y-12649928D02*
X4395910Y-12668976D01*
X4395910Y-12668976D02*
X4386386Y-12678500D01*
X4386386Y-12678500D02*
X4367338Y-12688024D01*
X4367338Y-12688024D02*
X4348291Y-12688024D01*
X4348291Y-12688024D02*
X4329243Y-12678500D01*
X4329243Y-12678500D02*
X4319719Y-12668976D01*
X4319719Y-12668976D02*
X4310195Y-12649928D01*
X4310195Y-12649928D02*
X4300672Y-12611833D01*
X4300672Y-12611833D02*
X4300672Y-12564214D01*
X4300672Y-12564214D02*
X4310195Y-12526119D01*
X4310195Y-12526119D02*
X4319719Y-12507071D01*
X4319719Y-12507071D02*
X4329243Y-12497548D01*
X4329243Y-12497548D02*
X4348291Y-12488024D01*
X4491148Y-12507071D02*
X4500672Y-12497548D01*
X4500672Y-12497548D02*
X4519719Y-12488024D01*
X4519719Y-12488024D02*
X4567338Y-12488024D01*
X4567338Y-12488024D02*
X4586386Y-12497548D01*
X4586386Y-12497548D02*
X4595910Y-12507071D01*
X4595910Y-12507071D02*
X4605434Y-12526119D01*
X4605434Y-12526119D02*
X4605434Y-12545167D01*
X4605434Y-12545167D02*
X4595910Y-12573738D01*
X4595910Y-12573738D02*
X4481624Y-12688024D01*
X4481624Y-12688024D02*
X4605434Y-12688024D01*
X4786386Y-12488024D02*
X4691148Y-12488024D01*
X4691148Y-12488024D02*
X4681624Y-12583262D01*
X4681624Y-12583262D02*
X4691148Y-12573738D01*
X4691148Y-12573738D02*
X4710195Y-12564214D01*
X4710195Y-12564214D02*
X4757815Y-12564214D01*
X4757815Y-12564214D02*
X4776862Y-12573738D01*
X4776862Y-12573738D02*
X4786386Y-12583262D01*
X4786386Y-12583262D02*
X4795910Y-12602309D01*
X4795910Y-12602309D02*
X4795910Y-12649928D01*
X4795910Y-12649928D02*
X4786386Y-12668976D01*
X4786386Y-12668976D02*
X4776862Y-12678500D01*
X4776862Y-12678500D02*
X4757815Y-12688024D01*
X4757815Y-12688024D02*
X4710195Y-12688024D01*
X4710195Y-12688024D02*
X4691148Y-12678500D01*
X4691148Y-12678500D02*
X4681624Y-12668976D01*
X4967338Y-12488024D02*
X4929243Y-12488024D01*
X4929243Y-12488024D02*
X4910195Y-12497548D01*
X4910195Y-12497548D02*
X4900672Y-12507071D01*
X4900672Y-12507071D02*
X4881624Y-12535643D01*
X4881624Y-12535643D02*
X4872100Y-12573738D01*
X4872100Y-12573738D02*
X4872100Y-12649928D01*
X4872100Y-12649928D02*
X4881624Y-12668976D01*
X4881624Y-12668976D02*
X4891148Y-12678500D01*
X4891148Y-12678500D02*
X4910195Y-12688024D01*
X4910195Y-12688024D02*
X4948291Y-12688024D01*
X4948291Y-12688024D02*
X4967338Y-12678500D01*
X4967338Y-12678500D02*
X4976862Y-12668976D01*
X4976862Y-12668976D02*
X4986386Y-12649928D01*
X4986386Y-12649928D02*
X4986386Y-12602309D01*
X4986386Y-12602309D02*
X4976862Y-12583262D01*
X4976862Y-12583262D02*
X4967338Y-12573738D01*
X4967338Y-12573738D02*
X4948291Y-12564214D01*
X4948291Y-12564214D02*
X4910195Y-12564214D01*
X4910195Y-12564214D02*
X4891148Y-12573738D01*
X4891148Y-12573738D02*
X4881624Y-12583262D01*
X4881624Y-12583262D02*
X4872100Y-12602309D01*
X5062576Y-12488024D02*
X5062576Y-12526119D01*
X5138767Y-12488024D02*
X5138767Y-12526119D01*
X5434005Y-12764214D02*
X5424481Y-12754690D01*
X5424481Y-12754690D02*
X5405434Y-12726119D01*
X5405434Y-12726119D02*
X5395910Y-12707071D01*
X5395910Y-12707071D02*
X5386386Y-12678500D01*
X5386386Y-12678500D02*
X5376862Y-12630881D01*
X5376862Y-12630881D02*
X5376862Y-12592786D01*
X5376862Y-12592786D02*
X5386386Y-12545167D01*
X5386386Y-12545167D02*
X5395910Y-12516595D01*
X5395910Y-12516595D02*
X5405434Y-12497548D01*
X5405434Y-12497548D02*
X5424481Y-12468976D01*
X5424481Y-12468976D02*
X5434005Y-12459452D01*
X5500672Y-12507071D02*
X5510196Y-12497548D01*
X5510196Y-12497548D02*
X5529243Y-12488024D01*
X5529243Y-12488024D02*
X5576862Y-12488024D01*
X5576862Y-12488024D02*
X5595910Y-12497548D01*
X5595910Y-12497548D02*
X5605434Y-12507071D01*
X5605434Y-12507071D02*
X5614957Y-12526119D01*
X5614957Y-12526119D02*
X5614957Y-12545167D01*
X5614957Y-12545167D02*
X5605434Y-12573738D01*
X5605434Y-12573738D02*
X5491148Y-12688024D01*
X5491148Y-12688024D02*
X5614957Y-12688024D01*
X5786386Y-12554690D02*
X5786386Y-12688024D01*
X5738767Y-12478500D02*
X5691148Y-12621357D01*
X5691148Y-12621357D02*
X5814957Y-12621357D01*
X6043529Y-12688024D02*
X6043529Y-12488024D01*
X6129243Y-12688024D02*
X6129243Y-12583262D01*
X6129243Y-12583262D02*
X6119719Y-12564214D01*
X6119719Y-12564214D02*
X6100672Y-12554690D01*
X6100672Y-12554690D02*
X6072100Y-12554690D01*
X6072100Y-12554690D02*
X6053053Y-12564214D01*
X6053053Y-12564214D02*
X6043529Y-12573738D01*
X6253053Y-12688024D02*
X6234005Y-12678500D01*
X6234005Y-12678500D02*
X6224481Y-12668976D01*
X6224481Y-12668976D02*
X6214957Y-12649928D01*
X6214957Y-12649928D02*
X6214957Y-12592786D01*
X6214957Y-12592786D02*
X6224481Y-12573738D01*
X6224481Y-12573738D02*
X6234005Y-12564214D01*
X6234005Y-12564214D02*
X6253053Y-12554690D01*
X6253053Y-12554690D02*
X6281624Y-12554690D01*
X6281624Y-12554690D02*
X6300672Y-12564214D01*
X6300672Y-12564214D02*
X6310196Y-12573738D01*
X6310196Y-12573738D02*
X6319719Y-12592786D01*
X6319719Y-12592786D02*
X6319719Y-12649928D01*
X6319719Y-12649928D02*
X6310196Y-12668976D01*
X6310196Y-12668976D02*
X6300672Y-12678500D01*
X6300672Y-12678500D02*
X6281624Y-12688024D01*
X6281624Y-12688024D02*
X6253053Y-12688024D01*
X6434005Y-12688024D02*
X6414957Y-12678500D01*
X6414957Y-12678500D02*
X6405434Y-12659452D01*
X6405434Y-12659452D02*
X6405434Y-12488024D01*
X6586386Y-12678500D02*
X6567338Y-12688024D01*
X6567338Y-12688024D02*
X6529243Y-12688024D01*
X6529243Y-12688024D02*
X6510196Y-12678500D01*
X6510196Y-12678500D02*
X6500672Y-12659452D01*
X6500672Y-12659452D02*
X6500672Y-12583262D01*
X6500672Y-12583262D02*
X6510196Y-12564214D01*
X6510196Y-12564214D02*
X6529243Y-12554690D01*
X6529243Y-12554690D02*
X6567338Y-12554690D01*
X6567338Y-12554690D02*
X6586386Y-12564214D01*
X6586386Y-12564214D02*
X6595910Y-12583262D01*
X6595910Y-12583262D02*
X6595910Y-12602309D01*
X6595910Y-12602309D02*
X6500672Y-12621357D01*
X6672100Y-12678500D02*
X6691148Y-12688024D01*
X6691148Y-12688024D02*
X6729243Y-12688024D01*
X6729243Y-12688024D02*
X6748291Y-12678500D01*
X6748291Y-12678500D02*
X6757815Y-12659452D01*
X6757815Y-12659452D02*
X6757815Y-12649928D01*
X6757815Y-12649928D02*
X6748291Y-12630881D01*
X6748291Y-12630881D02*
X6729243Y-12621357D01*
X6729243Y-12621357D02*
X6700672Y-12621357D01*
X6700672Y-12621357D02*
X6681624Y-12611833D01*
X6681624Y-12611833D02*
X6672100Y-12592786D01*
X6672100Y-12592786D02*
X6672100Y-12583262D01*
X6672100Y-12583262D02*
X6681624Y-12564214D01*
X6681624Y-12564214D02*
X6700672Y-12554690D01*
X6700672Y-12554690D02*
X6729243Y-12554690D01*
X6729243Y-12554690D02*
X6748291Y-12564214D01*
X6824481Y-12764214D02*
X6834005Y-12754690D01*
X6834005Y-12754690D02*
X6853053Y-12726119D01*
X6853053Y-12726119D02*
X6862577Y-12707071D01*
X6862577Y-12707071D02*
X6872100Y-12678500D01*
X6872100Y-12678500D02*
X6881624Y-12630881D01*
X6881624Y-12630881D02*
X6881624Y-12592786D01*
X6881624Y-12592786D02*
X6872100Y-12545167D01*
X6872100Y-12545167D02*
X6862577Y-12516595D01*
X6862577Y-12516595D02*
X6853053Y-12497548D01*
X6853053Y-12497548D02*
X6834005Y-12468976D01*
X6834005Y-12468976D02*
X6824481Y-12459452D01*
D14*
X1832100Y-12819500D02*
X1832100Y-12899500D01*
X1792100Y-12859500D02*
X1872100Y-12859500D01*
D11*
X2157814Y-12752024D02*
X2176862Y-12752024D01*
X2176862Y-12752024D02*
X2195910Y-12761548D01*
X2195910Y-12761548D02*
X2205433Y-12771071D01*
X2205433Y-12771071D02*
X2214957Y-12790119D01*
X2214957Y-12790119D02*
X2224481Y-12828214D01*
X2224481Y-12828214D02*
X2224481Y-12875833D01*
X2224481Y-12875833D02*
X2214957Y-12913928D01*
X2214957Y-12913928D02*
X2205433Y-12932976D01*
X2205433Y-12932976D02*
X2195910Y-12942500D01*
X2195910Y-12942500D02*
X2176862Y-12952024D01*
X2176862Y-12952024D02*
X2157814Y-12952024D01*
X2157814Y-12952024D02*
X2138767Y-12942500D01*
X2138767Y-12942500D02*
X2129243Y-12932976D01*
X2129243Y-12932976D02*
X2119719Y-12913928D01*
X2119719Y-12913928D02*
X2110195Y-12875833D01*
X2110195Y-12875833D02*
X2110195Y-12828214D01*
X2110195Y-12828214D02*
X2119719Y-12790119D01*
X2119719Y-12790119D02*
X2129243Y-12771071D01*
X2129243Y-12771071D02*
X2138767Y-12761548D01*
X2138767Y-12761548D02*
X2157814Y-12752024D01*
X2310195Y-12932976D02*
X2319719Y-12942500D01*
X2319719Y-12942500D02*
X2310195Y-12952024D01*
X2310195Y-12952024D02*
X2300671Y-12942500D01*
X2300671Y-12942500D02*
X2310195Y-12932976D01*
X2310195Y-12932976D02*
X2310195Y-12952024D01*
X2434005Y-12837738D02*
X2414957Y-12828214D01*
X2414957Y-12828214D02*
X2405433Y-12818690D01*
X2405433Y-12818690D02*
X2395910Y-12799643D01*
X2395910Y-12799643D02*
X2395910Y-12790119D01*
X2395910Y-12790119D02*
X2405433Y-12771071D01*
X2405433Y-12771071D02*
X2414957Y-12761548D01*
X2414957Y-12761548D02*
X2434005Y-12752024D01*
X2434005Y-12752024D02*
X2472100Y-12752024D01*
X2472100Y-12752024D02*
X2491148Y-12761548D01*
X2491148Y-12761548D02*
X2500671Y-12771071D01*
X2500671Y-12771071D02*
X2510195Y-12790119D01*
X2510195Y-12790119D02*
X2510195Y-12799643D01*
X2510195Y-12799643D02*
X2500671Y-12818690D01*
X2500671Y-12818690D02*
X2491148Y-12828214D01*
X2491148Y-12828214D02*
X2472100Y-12837738D01*
X2472100Y-12837738D02*
X2434005Y-12837738D01*
X2434005Y-12837738D02*
X2414957Y-12847262D01*
X2414957Y-12847262D02*
X2405433Y-12856786D01*
X2405433Y-12856786D02*
X2395910Y-12875833D01*
X2395910Y-12875833D02*
X2395910Y-12913928D01*
X2395910Y-12913928D02*
X2405433Y-12932976D01*
X2405433Y-12932976D02*
X2414957Y-12942500D01*
X2414957Y-12942500D02*
X2434005Y-12952024D01*
X2434005Y-12952024D02*
X2472100Y-12952024D01*
X2472100Y-12952024D02*
X2491148Y-12942500D01*
X2491148Y-12942500D02*
X2500671Y-12932976D01*
X2500671Y-12932976D02*
X2510195Y-12913928D01*
X2510195Y-12913928D02*
X2510195Y-12875833D01*
X2510195Y-12875833D02*
X2500671Y-12856786D01*
X2500671Y-12856786D02*
X2491148Y-12847262D01*
X2491148Y-12847262D02*
X2472100Y-12837738D01*
X2634005Y-12752024D02*
X2653052Y-12752024D01*
X2653052Y-12752024D02*
X2672100Y-12761548D01*
X2672100Y-12761548D02*
X2681624Y-12771071D01*
X2681624Y-12771071D02*
X2691148Y-12790119D01*
X2691148Y-12790119D02*
X2700671Y-12828214D01*
X2700671Y-12828214D02*
X2700671Y-12875833D01*
X2700671Y-12875833D02*
X2691148Y-12913928D01*
X2691148Y-12913928D02*
X2681624Y-12932976D01*
X2681624Y-12932976D02*
X2672100Y-12942500D01*
X2672100Y-12942500D02*
X2653052Y-12952024D01*
X2653052Y-12952024D02*
X2634005Y-12952024D01*
X2634005Y-12952024D02*
X2614957Y-12942500D01*
X2614957Y-12942500D02*
X2605433Y-12932976D01*
X2605433Y-12932976D02*
X2595910Y-12913928D01*
X2595910Y-12913928D02*
X2586386Y-12875833D01*
X2586386Y-12875833D02*
X2586386Y-12828214D01*
X2586386Y-12828214D02*
X2595910Y-12790119D01*
X2595910Y-12790119D02*
X2605433Y-12771071D01*
X2605433Y-12771071D02*
X2614957Y-12761548D01*
X2614957Y-12761548D02*
X2634005Y-12752024D01*
X2824481Y-12752024D02*
X2843529Y-12752024D01*
X2843529Y-12752024D02*
X2862576Y-12761548D01*
X2862576Y-12761548D02*
X2872100Y-12771071D01*
X2872100Y-12771071D02*
X2881624Y-12790119D01*
X2881624Y-12790119D02*
X2891148Y-12828214D01*
X2891148Y-12828214D02*
X2891148Y-12875833D01*
X2891148Y-12875833D02*
X2881624Y-12913928D01*
X2881624Y-12913928D02*
X2872100Y-12932976D01*
X2872100Y-12932976D02*
X2862576Y-12942500D01*
X2862576Y-12942500D02*
X2843529Y-12952024D01*
X2843529Y-12952024D02*
X2824481Y-12952024D01*
X2824481Y-12952024D02*
X2805433Y-12942500D01*
X2805433Y-12942500D02*
X2795910Y-12932976D01*
X2795910Y-12932976D02*
X2786386Y-12913928D01*
X2786386Y-12913928D02*
X2776862Y-12875833D01*
X2776862Y-12875833D02*
X2776862Y-12828214D01*
X2776862Y-12828214D02*
X2786386Y-12790119D01*
X2786386Y-12790119D02*
X2795910Y-12771071D01*
X2795910Y-12771071D02*
X2805433Y-12761548D01*
X2805433Y-12761548D02*
X2824481Y-12752024D01*
X2976862Y-12952024D02*
X2976862Y-12818690D01*
X2976862Y-12837738D02*
X2986386Y-12828214D01*
X2986386Y-12828214D02*
X3005433Y-12818690D01*
X3005433Y-12818690D02*
X3034005Y-12818690D01*
X3034005Y-12818690D02*
X3053052Y-12828214D01*
X3053052Y-12828214D02*
X3062576Y-12847262D01*
X3062576Y-12847262D02*
X3062576Y-12952024D01*
X3062576Y-12847262D02*
X3072100Y-12828214D01*
X3072100Y-12828214D02*
X3091148Y-12818690D01*
X3091148Y-12818690D02*
X3119719Y-12818690D01*
X3119719Y-12818690D02*
X3138767Y-12828214D01*
X3138767Y-12828214D02*
X3148290Y-12847262D01*
X3148290Y-12847262D02*
X3148290Y-12952024D01*
X3243529Y-12952024D02*
X3243529Y-12818690D01*
X3243529Y-12837738D02*
X3253052Y-12828214D01*
X3253052Y-12828214D02*
X3272100Y-12818690D01*
X3272100Y-12818690D02*
X3300671Y-12818690D01*
X3300671Y-12818690D02*
X3319719Y-12828214D01*
X3319719Y-12828214D02*
X3329243Y-12847262D01*
X3329243Y-12847262D02*
X3329243Y-12952024D01*
X3329243Y-12847262D02*
X3338767Y-12828214D01*
X3338767Y-12828214D02*
X3357814Y-12818690D01*
X3357814Y-12818690D02*
X3386386Y-12818690D01*
X3386386Y-12818690D02*
X3405433Y-12828214D01*
X3405433Y-12828214D02*
X3414957Y-12847262D01*
X3414957Y-12847262D02*
X3414957Y-12952024D01*
X3805433Y-12742500D02*
X3634005Y-12999643D01*
X4062576Y-12752024D02*
X4081624Y-12752024D01*
X4081624Y-12752024D02*
X4100672Y-12761548D01*
X4100672Y-12761548D02*
X4110195Y-12771071D01*
X4110195Y-12771071D02*
X4119719Y-12790119D01*
X4119719Y-12790119D02*
X4129243Y-12828214D01*
X4129243Y-12828214D02*
X4129243Y-12875833D01*
X4129243Y-12875833D02*
X4119719Y-12913928D01*
X4119719Y-12913928D02*
X4110195Y-12932976D01*
X4110195Y-12932976D02*
X4100672Y-12942500D01*
X4100672Y-12942500D02*
X4081624Y-12952024D01*
X4081624Y-12952024D02*
X4062576Y-12952024D01*
X4062576Y-12952024D02*
X4043529Y-12942500D01*
X4043529Y-12942500D02*
X4034005Y-12932976D01*
X4034005Y-12932976D02*
X4024481Y-12913928D01*
X4024481Y-12913928D02*
X4014957Y-12875833D01*
X4014957Y-12875833D02*
X4014957Y-12828214D01*
X4014957Y-12828214D02*
X4024481Y-12790119D01*
X4024481Y-12790119D02*
X4034005Y-12771071D01*
X4034005Y-12771071D02*
X4043529Y-12761548D01*
X4043529Y-12761548D02*
X4062576Y-12752024D01*
X4214957Y-12932976D02*
X4224481Y-12942500D01*
X4224481Y-12942500D02*
X4214957Y-12952024D01*
X4214957Y-12952024D02*
X4205434Y-12942500D01*
X4205434Y-12942500D02*
X4214957Y-12932976D01*
X4214957Y-12932976D02*
X4214957Y-12952024D01*
X4348291Y-12752024D02*
X4367338Y-12752024D01*
X4367338Y-12752024D02*
X4386386Y-12761548D01*
X4386386Y-12761548D02*
X4395910Y-12771071D01*
X4395910Y-12771071D02*
X4405434Y-12790119D01*
X4405434Y-12790119D02*
X4414957Y-12828214D01*
X4414957Y-12828214D02*
X4414957Y-12875833D01*
X4414957Y-12875833D02*
X4405434Y-12913928D01*
X4405434Y-12913928D02*
X4395910Y-12932976D01*
X4395910Y-12932976D02*
X4386386Y-12942500D01*
X4386386Y-12942500D02*
X4367338Y-12952024D01*
X4367338Y-12952024D02*
X4348291Y-12952024D01*
X4348291Y-12952024D02*
X4329243Y-12942500D01*
X4329243Y-12942500D02*
X4319719Y-12932976D01*
X4319719Y-12932976D02*
X4310195Y-12913928D01*
X4310195Y-12913928D02*
X4300672Y-12875833D01*
X4300672Y-12875833D02*
X4300672Y-12828214D01*
X4300672Y-12828214D02*
X4310195Y-12790119D01*
X4310195Y-12790119D02*
X4319719Y-12771071D01*
X4319719Y-12771071D02*
X4329243Y-12761548D01*
X4329243Y-12761548D02*
X4348291Y-12752024D01*
X4481624Y-12752024D02*
X4605434Y-12752024D01*
X4605434Y-12752024D02*
X4538767Y-12828214D01*
X4538767Y-12828214D02*
X4567338Y-12828214D01*
X4567338Y-12828214D02*
X4586386Y-12837738D01*
X4586386Y-12837738D02*
X4595910Y-12847262D01*
X4595910Y-12847262D02*
X4605434Y-12866309D01*
X4605434Y-12866309D02*
X4605434Y-12913928D01*
X4605434Y-12913928D02*
X4595910Y-12932976D01*
X4595910Y-12932976D02*
X4586386Y-12942500D01*
X4586386Y-12942500D02*
X4567338Y-12952024D01*
X4567338Y-12952024D02*
X4510195Y-12952024D01*
X4510195Y-12952024D02*
X4491148Y-12942500D01*
X4491148Y-12942500D02*
X4481624Y-12932976D01*
X4795910Y-12952024D02*
X4681624Y-12952024D01*
X4738767Y-12952024D02*
X4738767Y-12752024D01*
X4738767Y-12752024D02*
X4719719Y-12780595D01*
X4719719Y-12780595D02*
X4700672Y-12799643D01*
X4700672Y-12799643D02*
X4681624Y-12809167D01*
X4976862Y-12752024D02*
X4881624Y-12752024D01*
X4881624Y-12752024D02*
X4872100Y-12847262D01*
X4872100Y-12847262D02*
X4881624Y-12837738D01*
X4881624Y-12837738D02*
X4900672Y-12828214D01*
X4900672Y-12828214D02*
X4948291Y-12828214D01*
X4948291Y-12828214D02*
X4967338Y-12837738D01*
X4967338Y-12837738D02*
X4976862Y-12847262D01*
X4976862Y-12847262D02*
X4986386Y-12866309D01*
X4986386Y-12866309D02*
X4986386Y-12913928D01*
X4986386Y-12913928D02*
X4976862Y-12932976D01*
X4976862Y-12932976D02*
X4967338Y-12942500D01*
X4967338Y-12942500D02*
X4948291Y-12952024D01*
X4948291Y-12952024D02*
X4900672Y-12952024D01*
X4900672Y-12952024D02*
X4881624Y-12942500D01*
X4881624Y-12942500D02*
X4872100Y-12932976D01*
X5062576Y-12752024D02*
X5062576Y-12790119D01*
X5138767Y-12752024D02*
X5138767Y-12790119D01*
X5434005Y-13028214D02*
X5424481Y-13018690D01*
X5424481Y-13018690D02*
X5405434Y-12990119D01*
X5405434Y-12990119D02*
X5395910Y-12971071D01*
X5395910Y-12971071D02*
X5386386Y-12942500D01*
X5386386Y-12942500D02*
X5376862Y-12894881D01*
X5376862Y-12894881D02*
X5376862Y-12856786D01*
X5376862Y-12856786D02*
X5386386Y-12809167D01*
X5386386Y-12809167D02*
X5395910Y-12780595D01*
X5395910Y-12780595D02*
X5405434Y-12761548D01*
X5405434Y-12761548D02*
X5424481Y-12732976D01*
X5424481Y-12732976D02*
X5434005Y-12723452D01*
X5500672Y-12771071D02*
X5510196Y-12761548D01*
X5510196Y-12761548D02*
X5529243Y-12752024D01*
X5529243Y-12752024D02*
X5576862Y-12752024D01*
X5576862Y-12752024D02*
X5595910Y-12761548D01*
X5595910Y-12761548D02*
X5605434Y-12771071D01*
X5605434Y-12771071D02*
X5614957Y-12790119D01*
X5614957Y-12790119D02*
X5614957Y-12809167D01*
X5614957Y-12809167D02*
X5605434Y-12837738D01*
X5605434Y-12837738D02*
X5491148Y-12952024D01*
X5491148Y-12952024D02*
X5614957Y-12952024D01*
X5786386Y-12752024D02*
X5748291Y-12752024D01*
X5748291Y-12752024D02*
X5729243Y-12761548D01*
X5729243Y-12761548D02*
X5719719Y-12771071D01*
X5719719Y-12771071D02*
X5700672Y-12799643D01*
X5700672Y-12799643D02*
X5691148Y-12837738D01*
X5691148Y-12837738D02*
X5691148Y-12913928D01*
X5691148Y-12913928D02*
X5700672Y-12932976D01*
X5700672Y-12932976D02*
X5710195Y-12942500D01*
X5710195Y-12942500D02*
X5729243Y-12952024D01*
X5729243Y-12952024D02*
X5767338Y-12952024D01*
X5767338Y-12952024D02*
X5786386Y-12942500D01*
X5786386Y-12942500D02*
X5795910Y-12932976D01*
X5795910Y-12932976D02*
X5805434Y-12913928D01*
X5805434Y-12913928D02*
X5805434Y-12866309D01*
X5805434Y-12866309D02*
X5795910Y-12847262D01*
X5795910Y-12847262D02*
X5786386Y-12837738D01*
X5786386Y-12837738D02*
X5767338Y-12828214D01*
X5767338Y-12828214D02*
X5729243Y-12828214D01*
X5729243Y-12828214D02*
X5710195Y-12837738D01*
X5710195Y-12837738D02*
X5700672Y-12847262D01*
X5700672Y-12847262D02*
X5691148Y-12866309D01*
X6043529Y-12952024D02*
X6043529Y-12752024D01*
X6129243Y-12952024D02*
X6129243Y-12847262D01*
X6129243Y-12847262D02*
X6119719Y-12828214D01*
X6119719Y-12828214D02*
X6100672Y-12818690D01*
X6100672Y-12818690D02*
X6072100Y-12818690D01*
X6072100Y-12818690D02*
X6053053Y-12828214D01*
X6053053Y-12828214D02*
X6043529Y-12837738D01*
X6253053Y-12952024D02*
X6234005Y-12942500D01*
X6234005Y-12942500D02*
X6224481Y-12932976D01*
X6224481Y-12932976D02*
X6214957Y-12913928D01*
X6214957Y-12913928D02*
X6214957Y-12856786D01*
X6214957Y-12856786D02*
X6224481Y-12837738D01*
X6224481Y-12837738D02*
X6234005Y-12828214D01*
X6234005Y-12828214D02*
X6253053Y-12818690D01*
X6253053Y-12818690D02*
X6281624Y-12818690D01*
X6281624Y-12818690D02*
X6300672Y-12828214D01*
X6300672Y-12828214D02*
X6310196Y-12837738D01*
X6310196Y-12837738D02*
X6319719Y-12856786D01*
X6319719Y-12856786D02*
X6319719Y-12913928D01*
X6319719Y-12913928D02*
X6310196Y-12932976D01*
X6310196Y-12932976D02*
X6300672Y-12942500D01*
X6300672Y-12942500D02*
X6281624Y-12952024D01*
X6281624Y-12952024D02*
X6253053Y-12952024D01*
X6434005Y-12952024D02*
X6414957Y-12942500D01*
X6414957Y-12942500D02*
X6405434Y-12923452D01*
X6405434Y-12923452D02*
X6405434Y-12752024D01*
X6586386Y-12942500D02*
X6567338Y-12952024D01*
X6567338Y-12952024D02*
X6529243Y-12952024D01*
X6529243Y-12952024D02*
X6510196Y-12942500D01*
X6510196Y-12942500D02*
X6500672Y-12923452D01*
X6500672Y-12923452D02*
X6500672Y-12847262D01*
X6500672Y-12847262D02*
X6510196Y-12828214D01*
X6510196Y-12828214D02*
X6529243Y-12818690D01*
X6529243Y-12818690D02*
X6567338Y-12818690D01*
X6567338Y-12818690D02*
X6586386Y-12828214D01*
X6586386Y-12828214D02*
X6595910Y-12847262D01*
X6595910Y-12847262D02*
X6595910Y-12866309D01*
X6595910Y-12866309D02*
X6500672Y-12885357D01*
X6672100Y-12942500D02*
X6691148Y-12952024D01*
X6691148Y-12952024D02*
X6729243Y-12952024D01*
X6729243Y-12952024D02*
X6748291Y-12942500D01*
X6748291Y-12942500D02*
X6757815Y-12923452D01*
X6757815Y-12923452D02*
X6757815Y-12913928D01*
X6757815Y-12913928D02*
X6748291Y-12894881D01*
X6748291Y-12894881D02*
X6729243Y-12885357D01*
X6729243Y-12885357D02*
X6700672Y-12885357D01*
X6700672Y-12885357D02*
X6681624Y-12875833D01*
X6681624Y-12875833D02*
X6672100Y-12856786D01*
X6672100Y-12856786D02*
X6672100Y-12847262D01*
X6672100Y-12847262D02*
X6681624Y-12828214D01*
X6681624Y-12828214D02*
X6700672Y-12818690D01*
X6700672Y-12818690D02*
X6729243Y-12818690D01*
X6729243Y-12818690D02*
X6748291Y-12828214D01*
X6824481Y-13028214D02*
X6834005Y-13018690D01*
X6834005Y-13018690D02*
X6853053Y-12990119D01*
X6853053Y-12990119D02*
X6862577Y-12971071D01*
X6862577Y-12971071D02*
X6872100Y-12942500D01*
X6872100Y-12942500D02*
X6881624Y-12894881D01*
X6881624Y-12894881D02*
X6881624Y-12856786D01*
X6881624Y-12856786D02*
X6872100Y-12809167D01*
X6872100Y-12809167D02*
X6862577Y-12780595D01*
X6862577Y-12780595D02*
X6853053Y-12761548D01*
X6853053Y-12761548D02*
X6834005Y-12732976D01*
X6834005Y-12732976D02*
X6824481Y-12723452D01*
D15*
X1857456Y-13158856D02*
X1857456Y-13088144D01*
X1786744Y-13088144D01*
X1786744Y-13158856D01*
X1857456Y-13158856D01*
D11*
X2224481Y-13216024D02*
X2110195Y-13216024D01*
X2167338Y-13216024D02*
X2167338Y-13016024D01*
X2167338Y-13016024D02*
X2148290Y-13044595D01*
X2148290Y-13044595D02*
X2129243Y-13063643D01*
X2129243Y-13063643D02*
X2110195Y-13073167D01*
X2310195Y-13196976D02*
X2319719Y-13206500D01*
X2319719Y-13206500D02*
X2310195Y-13216024D01*
X2310195Y-13216024D02*
X2300671Y-13206500D01*
X2300671Y-13206500D02*
X2310195Y-13196976D01*
X2310195Y-13196976D02*
X2310195Y-13216024D01*
X2443529Y-13016024D02*
X2462576Y-13016024D01*
X2462576Y-13016024D02*
X2481624Y-13025548D01*
X2481624Y-13025548D02*
X2491148Y-13035071D01*
X2491148Y-13035071D02*
X2500671Y-13054119D01*
X2500671Y-13054119D02*
X2510195Y-13092214D01*
X2510195Y-13092214D02*
X2510195Y-13139833D01*
X2510195Y-13139833D02*
X2500671Y-13177928D01*
X2500671Y-13177928D02*
X2491148Y-13196976D01*
X2491148Y-13196976D02*
X2481624Y-13206500D01*
X2481624Y-13206500D02*
X2462576Y-13216024D01*
X2462576Y-13216024D02*
X2443529Y-13216024D01*
X2443529Y-13216024D02*
X2424481Y-13206500D01*
X2424481Y-13206500D02*
X2414957Y-13196976D01*
X2414957Y-13196976D02*
X2405433Y-13177928D01*
X2405433Y-13177928D02*
X2395910Y-13139833D01*
X2395910Y-13139833D02*
X2395910Y-13092214D01*
X2395910Y-13092214D02*
X2405433Y-13054119D01*
X2405433Y-13054119D02*
X2414957Y-13035071D01*
X2414957Y-13035071D02*
X2424481Y-13025548D01*
X2424481Y-13025548D02*
X2443529Y-13016024D01*
X2634005Y-13016024D02*
X2653052Y-13016024D01*
X2653052Y-13016024D02*
X2672100Y-13025548D01*
X2672100Y-13025548D02*
X2681624Y-13035071D01*
X2681624Y-13035071D02*
X2691148Y-13054119D01*
X2691148Y-13054119D02*
X2700671Y-13092214D01*
X2700671Y-13092214D02*
X2700671Y-13139833D01*
X2700671Y-13139833D02*
X2691148Y-13177928D01*
X2691148Y-13177928D02*
X2681624Y-13196976D01*
X2681624Y-13196976D02*
X2672100Y-13206500D01*
X2672100Y-13206500D02*
X2653052Y-13216024D01*
X2653052Y-13216024D02*
X2634005Y-13216024D01*
X2634005Y-13216024D02*
X2614957Y-13206500D01*
X2614957Y-13206500D02*
X2605433Y-13196976D01*
X2605433Y-13196976D02*
X2595910Y-13177928D01*
X2595910Y-13177928D02*
X2586386Y-13139833D01*
X2586386Y-13139833D02*
X2586386Y-13092214D01*
X2586386Y-13092214D02*
X2595910Y-13054119D01*
X2595910Y-13054119D02*
X2605433Y-13035071D01*
X2605433Y-13035071D02*
X2614957Y-13025548D01*
X2614957Y-13025548D02*
X2634005Y-13016024D01*
X2824481Y-13016024D02*
X2843529Y-13016024D01*
X2843529Y-13016024D02*
X2862576Y-13025548D01*
X2862576Y-13025548D02*
X2872100Y-13035071D01*
X2872100Y-13035071D02*
X2881624Y-13054119D01*
X2881624Y-13054119D02*
X2891148Y-13092214D01*
X2891148Y-13092214D02*
X2891148Y-13139833D01*
X2891148Y-13139833D02*
X2881624Y-13177928D01*
X2881624Y-13177928D02*
X2872100Y-13196976D01*
X2872100Y-13196976D02*
X2862576Y-13206500D01*
X2862576Y-13206500D02*
X2843529Y-13216024D01*
X2843529Y-13216024D02*
X2824481Y-13216024D01*
X2824481Y-13216024D02*
X2805433Y-13206500D01*
X2805433Y-13206500D02*
X2795910Y-13196976D01*
X2795910Y-13196976D02*
X2786386Y-13177928D01*
X2786386Y-13177928D02*
X2776862Y-13139833D01*
X2776862Y-13139833D02*
X2776862Y-13092214D01*
X2776862Y-13092214D02*
X2786386Y-13054119D01*
X2786386Y-13054119D02*
X2795910Y-13035071D01*
X2795910Y-13035071D02*
X2805433Y-13025548D01*
X2805433Y-13025548D02*
X2824481Y-13016024D01*
X2976862Y-13216024D02*
X2976862Y-13082690D01*
X2976862Y-13101738D02*
X2986386Y-13092214D01*
X2986386Y-13092214D02*
X3005433Y-13082690D01*
X3005433Y-13082690D02*
X3034005Y-13082690D01*
X3034005Y-13082690D02*
X3053052Y-13092214D01*
X3053052Y-13092214D02*
X3062576Y-13111262D01*
X3062576Y-13111262D02*
X3062576Y-13216024D01*
X3062576Y-13111262D02*
X3072100Y-13092214D01*
X3072100Y-13092214D02*
X3091148Y-13082690D01*
X3091148Y-13082690D02*
X3119719Y-13082690D01*
X3119719Y-13082690D02*
X3138767Y-13092214D01*
X3138767Y-13092214D02*
X3148290Y-13111262D01*
X3148290Y-13111262D02*
X3148290Y-13216024D01*
X3243529Y-13216024D02*
X3243529Y-13082690D01*
X3243529Y-13101738D02*
X3253052Y-13092214D01*
X3253052Y-13092214D02*
X3272100Y-13082690D01*
X3272100Y-13082690D02*
X3300671Y-13082690D01*
X3300671Y-13082690D02*
X3319719Y-13092214D01*
X3319719Y-13092214D02*
X3329243Y-13111262D01*
X3329243Y-13111262D02*
X3329243Y-13216024D01*
X3329243Y-13111262D02*
X3338767Y-13092214D01*
X3338767Y-13092214D02*
X3357814Y-13082690D01*
X3357814Y-13082690D02*
X3386386Y-13082690D01*
X3386386Y-13082690D02*
X3405433Y-13092214D01*
X3405433Y-13092214D02*
X3414957Y-13111262D01*
X3414957Y-13111262D02*
X3414957Y-13216024D01*
X3805433Y-13006500D02*
X3634005Y-13263643D01*
X4062576Y-13016024D02*
X4081624Y-13016024D01*
X4081624Y-13016024D02*
X4100672Y-13025548D01*
X4100672Y-13025548D02*
X4110195Y-13035071D01*
X4110195Y-13035071D02*
X4119719Y-13054119D01*
X4119719Y-13054119D02*
X4129243Y-13092214D01*
X4129243Y-13092214D02*
X4129243Y-13139833D01*
X4129243Y-13139833D02*
X4119719Y-13177928D01*
X4119719Y-13177928D02*
X4110195Y-13196976D01*
X4110195Y-13196976D02*
X4100672Y-13206500D01*
X4100672Y-13206500D02*
X4081624Y-13216024D01*
X4081624Y-13216024D02*
X4062576Y-13216024D01*
X4062576Y-13216024D02*
X4043529Y-13206500D01*
X4043529Y-13206500D02*
X4034005Y-13196976D01*
X4034005Y-13196976D02*
X4024481Y-13177928D01*
X4024481Y-13177928D02*
X4014957Y-13139833D01*
X4014957Y-13139833D02*
X4014957Y-13092214D01*
X4014957Y-13092214D02*
X4024481Y-13054119D01*
X4024481Y-13054119D02*
X4034005Y-13035071D01*
X4034005Y-13035071D02*
X4043529Y-13025548D01*
X4043529Y-13025548D02*
X4062576Y-13016024D01*
X4214957Y-13196976D02*
X4224481Y-13206500D01*
X4224481Y-13206500D02*
X4214957Y-13216024D01*
X4214957Y-13216024D02*
X4205434Y-13206500D01*
X4205434Y-13206500D02*
X4214957Y-13196976D01*
X4214957Y-13196976D02*
X4214957Y-13216024D01*
X4348291Y-13016024D02*
X4367338Y-13016024D01*
X4367338Y-13016024D02*
X4386386Y-13025548D01*
X4386386Y-13025548D02*
X4395910Y-13035071D01*
X4395910Y-13035071D02*
X4405434Y-13054119D01*
X4405434Y-13054119D02*
X4414957Y-13092214D01*
X4414957Y-13092214D02*
X4414957Y-13139833D01*
X4414957Y-13139833D02*
X4405434Y-13177928D01*
X4405434Y-13177928D02*
X4395910Y-13196976D01*
X4395910Y-13196976D02*
X4386386Y-13206500D01*
X4386386Y-13206500D02*
X4367338Y-13216024D01*
X4367338Y-13216024D02*
X4348291Y-13216024D01*
X4348291Y-13216024D02*
X4329243Y-13206500D01*
X4329243Y-13206500D02*
X4319719Y-13196976D01*
X4319719Y-13196976D02*
X4310195Y-13177928D01*
X4310195Y-13177928D02*
X4300672Y-13139833D01*
X4300672Y-13139833D02*
X4300672Y-13092214D01*
X4300672Y-13092214D02*
X4310195Y-13054119D01*
X4310195Y-13054119D02*
X4319719Y-13035071D01*
X4319719Y-13035071D02*
X4329243Y-13025548D01*
X4329243Y-13025548D02*
X4348291Y-13016024D01*
X4481624Y-13016024D02*
X4605434Y-13016024D01*
X4605434Y-13016024D02*
X4538767Y-13092214D01*
X4538767Y-13092214D02*
X4567338Y-13092214D01*
X4567338Y-13092214D02*
X4586386Y-13101738D01*
X4586386Y-13101738D02*
X4595910Y-13111262D01*
X4595910Y-13111262D02*
X4605434Y-13130309D01*
X4605434Y-13130309D02*
X4605434Y-13177928D01*
X4605434Y-13177928D02*
X4595910Y-13196976D01*
X4595910Y-13196976D02*
X4586386Y-13206500D01*
X4586386Y-13206500D02*
X4567338Y-13216024D01*
X4567338Y-13216024D02*
X4510195Y-13216024D01*
X4510195Y-13216024D02*
X4491148Y-13206500D01*
X4491148Y-13206500D02*
X4481624Y-13196976D01*
X4700672Y-13216024D02*
X4738767Y-13216024D01*
X4738767Y-13216024D02*
X4757815Y-13206500D01*
X4757815Y-13206500D02*
X4767338Y-13196976D01*
X4767338Y-13196976D02*
X4786386Y-13168405D01*
X4786386Y-13168405D02*
X4795910Y-13130309D01*
X4795910Y-13130309D02*
X4795910Y-13054119D01*
X4795910Y-13054119D02*
X4786386Y-13035071D01*
X4786386Y-13035071D02*
X4776862Y-13025548D01*
X4776862Y-13025548D02*
X4757815Y-13016024D01*
X4757815Y-13016024D02*
X4719719Y-13016024D01*
X4719719Y-13016024D02*
X4700672Y-13025548D01*
X4700672Y-13025548D02*
X4691148Y-13035071D01*
X4691148Y-13035071D02*
X4681624Y-13054119D01*
X4681624Y-13054119D02*
X4681624Y-13101738D01*
X4681624Y-13101738D02*
X4691148Y-13120786D01*
X4691148Y-13120786D02*
X4700672Y-13130309D01*
X4700672Y-13130309D02*
X4719719Y-13139833D01*
X4719719Y-13139833D02*
X4757815Y-13139833D01*
X4757815Y-13139833D02*
X4776862Y-13130309D01*
X4776862Y-13130309D02*
X4786386Y-13120786D01*
X4786386Y-13120786D02*
X4795910Y-13101738D01*
X4967338Y-13082690D02*
X4967338Y-13216024D01*
X4919719Y-13006500D02*
X4872100Y-13149357D01*
X4872100Y-13149357D02*
X4995910Y-13149357D01*
X5062576Y-13016024D02*
X5062576Y-13054119D01*
X5138767Y-13016024D02*
X5138767Y-13054119D01*
X5434005Y-13292214D02*
X5424481Y-13282690D01*
X5424481Y-13282690D02*
X5405434Y-13254119D01*
X5405434Y-13254119D02*
X5395910Y-13235071D01*
X5395910Y-13235071D02*
X5386386Y-13206500D01*
X5386386Y-13206500D02*
X5376862Y-13158881D01*
X5376862Y-13158881D02*
X5376862Y-13120786D01*
X5376862Y-13120786D02*
X5386386Y-13073167D01*
X5386386Y-13073167D02*
X5395910Y-13044595D01*
X5395910Y-13044595D02*
X5405434Y-13025548D01*
X5405434Y-13025548D02*
X5424481Y-12996976D01*
X5424481Y-12996976D02*
X5434005Y-12987452D01*
X5614957Y-13216024D02*
X5500672Y-13216024D01*
X5557815Y-13216024D02*
X5557815Y-13016024D01*
X5557815Y-13016024D02*
X5538767Y-13044595D01*
X5538767Y-13044595D02*
X5519719Y-13063643D01*
X5519719Y-13063643D02*
X5500672Y-13073167D01*
X5853053Y-13216024D02*
X5853053Y-13016024D01*
X5938767Y-13216024D02*
X5938767Y-13111262D01*
X5938767Y-13111262D02*
X5929243Y-13092214D01*
X5929243Y-13092214D02*
X5910196Y-13082690D01*
X5910196Y-13082690D02*
X5881624Y-13082690D01*
X5881624Y-13082690D02*
X5862576Y-13092214D01*
X5862576Y-13092214D02*
X5853053Y-13101738D01*
X6062576Y-13216024D02*
X6043529Y-13206500D01*
X6043529Y-13206500D02*
X6034005Y-13196976D01*
X6034005Y-13196976D02*
X6024481Y-13177928D01*
X6024481Y-13177928D02*
X6024481Y-13120786D01*
X6024481Y-13120786D02*
X6034005Y-13101738D01*
X6034005Y-13101738D02*
X6043529Y-13092214D01*
X6043529Y-13092214D02*
X6062576Y-13082690D01*
X6062576Y-13082690D02*
X6091148Y-13082690D01*
X6091148Y-13082690D02*
X6110196Y-13092214D01*
X6110196Y-13092214D02*
X6119719Y-13101738D01*
X6119719Y-13101738D02*
X6129243Y-13120786D01*
X6129243Y-13120786D02*
X6129243Y-13177928D01*
X6129243Y-13177928D02*
X6119719Y-13196976D01*
X6119719Y-13196976D02*
X6110196Y-13206500D01*
X6110196Y-13206500D02*
X6091148Y-13216024D01*
X6091148Y-13216024D02*
X6062576Y-13216024D01*
X6243529Y-13216024D02*
X6224481Y-13206500D01*
X6224481Y-13206500D02*
X6214957Y-13187452D01*
X6214957Y-13187452D02*
X6214957Y-13016024D01*
X6395910Y-13206500D02*
X6376862Y-13216024D01*
X6376862Y-13216024D02*
X6338767Y-13216024D01*
X6338767Y-13216024D02*
X6319719Y-13206500D01*
X6319719Y-13206500D02*
X6310196Y-13187452D01*
X6310196Y-13187452D02*
X6310196Y-13111262D01*
X6310196Y-13111262D02*
X6319719Y-13092214D01*
X6319719Y-13092214D02*
X6338767Y-13082690D01*
X6338767Y-13082690D02*
X6376862Y-13082690D01*
X6376862Y-13082690D02*
X6395910Y-13092214D01*
X6395910Y-13092214D02*
X6405434Y-13111262D01*
X6405434Y-13111262D02*
X6405434Y-13130309D01*
X6405434Y-13130309D02*
X6310196Y-13149357D01*
X6472100Y-13292214D02*
X6481624Y-13282690D01*
X6481624Y-13282690D02*
X6500672Y-13254119D01*
X6500672Y-13254119D02*
X6510196Y-13235071D01*
X6510196Y-13235071D02*
X6519719Y-13206500D01*
X6519719Y-13206500D02*
X6529243Y-13158881D01*
X6529243Y-13158881D02*
X6529243Y-13120786D01*
X6529243Y-13120786D02*
X6519719Y-13073167D01*
X6519719Y-13073167D02*
X6510196Y-13044595D01*
X6510196Y-13044595D02*
X6500672Y-13025548D01*
X6500672Y-13025548D02*
X6481624Y-12996976D01*
X6481624Y-12996976D02*
X6472100Y-12987452D01*
D16*
X1821300Y-13438300D02*
X1872100Y-13387500D01*
X1821300Y-13336700D01*
X1770500Y-13387500D01*
X1821300Y-13438300D01*
D11*
X2224481Y-13480024D02*
X2110195Y-13480024D01*
X2167338Y-13480024D02*
X2167338Y-13280024D01*
X2167338Y-13280024D02*
X2148290Y-13308595D01*
X2148290Y-13308595D02*
X2129243Y-13327643D01*
X2129243Y-13327643D02*
X2110195Y-13337167D01*
X2310195Y-13460976D02*
X2319719Y-13470500D01*
X2319719Y-13470500D02*
X2310195Y-13480024D01*
X2310195Y-13480024D02*
X2300671Y-13470500D01*
X2300671Y-13470500D02*
X2310195Y-13460976D01*
X2310195Y-13460976D02*
X2310195Y-13480024D01*
X2443529Y-13280024D02*
X2462576Y-13280024D01*
X2462576Y-13280024D02*
X2481624Y-13289548D01*
X2481624Y-13289548D02*
X2491148Y-13299071D01*
X2491148Y-13299071D02*
X2500671Y-13318119D01*
X2500671Y-13318119D02*
X2510195Y-13356214D01*
X2510195Y-13356214D02*
X2510195Y-13403833D01*
X2510195Y-13403833D02*
X2500671Y-13441928D01*
X2500671Y-13441928D02*
X2491148Y-13460976D01*
X2491148Y-13460976D02*
X2481624Y-13470500D01*
X2481624Y-13470500D02*
X2462576Y-13480024D01*
X2462576Y-13480024D02*
X2443529Y-13480024D01*
X2443529Y-13480024D02*
X2424481Y-13470500D01*
X2424481Y-13470500D02*
X2414957Y-13460976D01*
X2414957Y-13460976D02*
X2405433Y-13441928D01*
X2405433Y-13441928D02*
X2395910Y-13403833D01*
X2395910Y-13403833D02*
X2395910Y-13356214D01*
X2395910Y-13356214D02*
X2405433Y-13318119D01*
X2405433Y-13318119D02*
X2414957Y-13299071D01*
X2414957Y-13299071D02*
X2424481Y-13289548D01*
X2424481Y-13289548D02*
X2443529Y-13280024D01*
X2700671Y-13480024D02*
X2586386Y-13480024D01*
X2643529Y-13480024D02*
X2643529Y-13280024D01*
X2643529Y-13280024D02*
X2624481Y-13308595D01*
X2624481Y-13308595D02*
X2605433Y-13327643D01*
X2605433Y-13327643D02*
X2586386Y-13337167D01*
X2872100Y-13280024D02*
X2834005Y-13280024D01*
X2834005Y-13280024D02*
X2814957Y-13289548D01*
X2814957Y-13289548D02*
X2805433Y-13299071D01*
X2805433Y-13299071D02*
X2786386Y-13327643D01*
X2786386Y-13327643D02*
X2776862Y-13365738D01*
X2776862Y-13365738D02*
X2776862Y-13441928D01*
X2776862Y-13441928D02*
X2786386Y-13460976D01*
X2786386Y-13460976D02*
X2795910Y-13470500D01*
X2795910Y-13470500D02*
X2814957Y-13480024D01*
X2814957Y-13480024D02*
X2853052Y-13480024D01*
X2853052Y-13480024D02*
X2872100Y-13470500D01*
X2872100Y-13470500D02*
X2881624Y-13460976D01*
X2881624Y-13460976D02*
X2891148Y-13441928D01*
X2891148Y-13441928D02*
X2891148Y-13394309D01*
X2891148Y-13394309D02*
X2881624Y-13375262D01*
X2881624Y-13375262D02*
X2872100Y-13365738D01*
X2872100Y-13365738D02*
X2853052Y-13356214D01*
X2853052Y-13356214D02*
X2814957Y-13356214D01*
X2814957Y-13356214D02*
X2795910Y-13365738D01*
X2795910Y-13365738D02*
X2786386Y-13375262D01*
X2786386Y-13375262D02*
X2776862Y-13394309D01*
X2976862Y-13480024D02*
X2976862Y-13346690D01*
X2976862Y-13365738D02*
X2986386Y-13356214D01*
X2986386Y-13356214D02*
X3005433Y-13346690D01*
X3005433Y-13346690D02*
X3034005Y-13346690D01*
X3034005Y-13346690D02*
X3053052Y-13356214D01*
X3053052Y-13356214D02*
X3062576Y-13375262D01*
X3062576Y-13375262D02*
X3062576Y-13480024D01*
X3062576Y-13375262D02*
X3072100Y-13356214D01*
X3072100Y-13356214D02*
X3091148Y-13346690D01*
X3091148Y-13346690D02*
X3119719Y-13346690D01*
X3119719Y-13346690D02*
X3138767Y-13356214D01*
X3138767Y-13356214D02*
X3148290Y-13375262D01*
X3148290Y-13375262D02*
X3148290Y-13480024D01*
X3243529Y-13480024D02*
X3243529Y-13346690D01*
X3243529Y-13365738D02*
X3253052Y-13356214D01*
X3253052Y-13356214D02*
X3272100Y-13346690D01*
X3272100Y-13346690D02*
X3300671Y-13346690D01*
X3300671Y-13346690D02*
X3319719Y-13356214D01*
X3319719Y-13356214D02*
X3329243Y-13375262D01*
X3329243Y-13375262D02*
X3329243Y-13480024D01*
X3329243Y-13375262D02*
X3338767Y-13356214D01*
X3338767Y-13356214D02*
X3357814Y-13346690D01*
X3357814Y-13346690D02*
X3386386Y-13346690D01*
X3386386Y-13346690D02*
X3405433Y-13356214D01*
X3405433Y-13356214D02*
X3414957Y-13375262D01*
X3414957Y-13375262D02*
X3414957Y-13480024D01*
X3805433Y-13270500D02*
X3634005Y-13527643D01*
X4062576Y-13280024D02*
X4081624Y-13280024D01*
X4081624Y-13280024D02*
X4100672Y-13289548D01*
X4100672Y-13289548D02*
X4110195Y-13299071D01*
X4110195Y-13299071D02*
X4119719Y-13318119D01*
X4119719Y-13318119D02*
X4129243Y-13356214D01*
X4129243Y-13356214D02*
X4129243Y-13403833D01*
X4129243Y-13403833D02*
X4119719Y-13441928D01*
X4119719Y-13441928D02*
X4110195Y-13460976D01*
X4110195Y-13460976D02*
X4100672Y-13470500D01*
X4100672Y-13470500D02*
X4081624Y-13480024D01*
X4081624Y-13480024D02*
X4062576Y-13480024D01*
X4062576Y-13480024D02*
X4043529Y-13470500D01*
X4043529Y-13470500D02*
X4034005Y-13460976D01*
X4034005Y-13460976D02*
X4024481Y-13441928D01*
X4024481Y-13441928D02*
X4014957Y-13403833D01*
X4014957Y-13403833D02*
X4014957Y-13356214D01*
X4014957Y-13356214D02*
X4024481Y-13318119D01*
X4024481Y-13318119D02*
X4034005Y-13299071D01*
X4034005Y-13299071D02*
X4043529Y-13289548D01*
X4043529Y-13289548D02*
X4062576Y-13280024D01*
X4214957Y-13460976D02*
X4224481Y-13470500D01*
X4224481Y-13470500D02*
X4214957Y-13480024D01*
X4214957Y-13480024D02*
X4205434Y-13470500D01*
X4205434Y-13470500D02*
X4214957Y-13460976D01*
X4214957Y-13460976D02*
X4214957Y-13480024D01*
X4348291Y-13280024D02*
X4367338Y-13280024D01*
X4367338Y-13280024D02*
X4386386Y-13289548D01*
X4386386Y-13289548D02*
X4395910Y-13299071D01*
X4395910Y-13299071D02*
X4405434Y-13318119D01*
X4405434Y-13318119D02*
X4414957Y-13356214D01*
X4414957Y-13356214D02*
X4414957Y-13403833D01*
X4414957Y-13403833D02*
X4405434Y-13441928D01*
X4405434Y-13441928D02*
X4395910Y-13460976D01*
X4395910Y-13460976D02*
X4386386Y-13470500D01*
X4386386Y-13470500D02*
X4367338Y-13480024D01*
X4367338Y-13480024D02*
X4348291Y-13480024D01*
X4348291Y-13480024D02*
X4329243Y-13470500D01*
X4329243Y-13470500D02*
X4319719Y-13460976D01*
X4319719Y-13460976D02*
X4310195Y-13441928D01*
X4310195Y-13441928D02*
X4300672Y-13403833D01*
X4300672Y-13403833D02*
X4300672Y-13356214D01*
X4300672Y-13356214D02*
X4310195Y-13318119D01*
X4310195Y-13318119D02*
X4319719Y-13299071D01*
X4319719Y-13299071D02*
X4329243Y-13289548D01*
X4329243Y-13289548D02*
X4348291Y-13280024D01*
X4586386Y-13346690D02*
X4586386Y-13480024D01*
X4538767Y-13270500D02*
X4491148Y-13413357D01*
X4491148Y-13413357D02*
X4614957Y-13413357D01*
X4729243Y-13280024D02*
X4748291Y-13280024D01*
X4748291Y-13280024D02*
X4767338Y-13289548D01*
X4767338Y-13289548D02*
X4776862Y-13299071D01*
X4776862Y-13299071D02*
X4786386Y-13318119D01*
X4786386Y-13318119D02*
X4795910Y-13356214D01*
X4795910Y-13356214D02*
X4795910Y-13403833D01*
X4795910Y-13403833D02*
X4786386Y-13441928D01*
X4786386Y-13441928D02*
X4776862Y-13460976D01*
X4776862Y-13460976D02*
X4767338Y-13470500D01*
X4767338Y-13470500D02*
X4748291Y-13480024D01*
X4748291Y-13480024D02*
X4729243Y-13480024D01*
X4729243Y-13480024D02*
X4710195Y-13470500D01*
X4710195Y-13470500D02*
X4700672Y-13460976D01*
X4700672Y-13460976D02*
X4691148Y-13441928D01*
X4691148Y-13441928D02*
X4681624Y-13403833D01*
X4681624Y-13403833D02*
X4681624Y-13356214D01*
X4681624Y-13356214D02*
X4691148Y-13318119D01*
X4691148Y-13318119D02*
X4700672Y-13299071D01*
X4700672Y-13299071D02*
X4710195Y-13289548D01*
X4710195Y-13289548D02*
X4729243Y-13280024D01*
X4919719Y-13280024D02*
X4938767Y-13280024D01*
X4938767Y-13280024D02*
X4957815Y-13289548D01*
X4957815Y-13289548D02*
X4967338Y-13299071D01*
X4967338Y-13299071D02*
X4976862Y-13318119D01*
X4976862Y-13318119D02*
X4986386Y-13356214D01*
X4986386Y-13356214D02*
X4986386Y-13403833D01*
X4986386Y-13403833D02*
X4976862Y-13441928D01*
X4976862Y-13441928D02*
X4967338Y-13460976D01*
X4967338Y-13460976D02*
X4957815Y-13470500D01*
X4957815Y-13470500D02*
X4938767Y-13480024D01*
X4938767Y-13480024D02*
X4919719Y-13480024D01*
X4919719Y-13480024D02*
X4900672Y-13470500D01*
X4900672Y-13470500D02*
X4891148Y-13460976D01*
X4891148Y-13460976D02*
X4881624Y-13441928D01*
X4881624Y-13441928D02*
X4872100Y-13403833D01*
X4872100Y-13403833D02*
X4872100Y-13356214D01*
X4872100Y-13356214D02*
X4881624Y-13318119D01*
X4881624Y-13318119D02*
X4891148Y-13299071D01*
X4891148Y-13299071D02*
X4900672Y-13289548D01*
X4900672Y-13289548D02*
X4919719Y-13280024D01*
X5062576Y-13280024D02*
X5062576Y-13318119D01*
X5138767Y-13280024D02*
X5138767Y-13318119D01*
X5434005Y-13556214D02*
X5424481Y-13546690D01*
X5424481Y-13546690D02*
X5405434Y-13518119D01*
X5405434Y-13518119D02*
X5395910Y-13499071D01*
X5395910Y-13499071D02*
X5386386Y-13470500D01*
X5386386Y-13470500D02*
X5376862Y-13422881D01*
X5376862Y-13422881D02*
X5376862Y-13384786D01*
X5376862Y-13384786D02*
X5386386Y-13337167D01*
X5386386Y-13337167D02*
X5395910Y-13308595D01*
X5395910Y-13308595D02*
X5405434Y-13289548D01*
X5405434Y-13289548D02*
X5424481Y-13260976D01*
X5424481Y-13260976D02*
X5434005Y-13251452D01*
X5595910Y-13280024D02*
X5557815Y-13280024D01*
X5557815Y-13280024D02*
X5538767Y-13289548D01*
X5538767Y-13289548D02*
X5529243Y-13299071D01*
X5529243Y-13299071D02*
X5510196Y-13327643D01*
X5510196Y-13327643D02*
X5500672Y-13365738D01*
X5500672Y-13365738D02*
X5500672Y-13441928D01*
X5500672Y-13441928D02*
X5510196Y-13460976D01*
X5510196Y-13460976D02*
X5519719Y-13470500D01*
X5519719Y-13470500D02*
X5538767Y-13480024D01*
X5538767Y-13480024D02*
X5576862Y-13480024D01*
X5576862Y-13480024D02*
X5595910Y-13470500D01*
X5595910Y-13470500D02*
X5605434Y-13460976D01*
X5605434Y-13460976D02*
X5614957Y-13441928D01*
X5614957Y-13441928D02*
X5614957Y-13394309D01*
X5614957Y-13394309D02*
X5605434Y-13375262D01*
X5605434Y-13375262D02*
X5595910Y-13365738D01*
X5595910Y-13365738D02*
X5576862Y-13356214D01*
X5576862Y-13356214D02*
X5538767Y-13356214D01*
X5538767Y-13356214D02*
X5519719Y-13365738D01*
X5519719Y-13365738D02*
X5510196Y-13375262D01*
X5510196Y-13375262D02*
X5500672Y-13394309D01*
X5738767Y-13280024D02*
X5757815Y-13280024D01*
X5757815Y-13280024D02*
X5776862Y-13289548D01*
X5776862Y-13289548D02*
X5786386Y-13299071D01*
X5786386Y-13299071D02*
X5795910Y-13318119D01*
X5795910Y-13318119D02*
X5805434Y-13356214D01*
X5805434Y-13356214D02*
X5805434Y-13403833D01*
X5805434Y-13403833D02*
X5795910Y-13441928D01*
X5795910Y-13441928D02*
X5786386Y-13460976D01*
X5786386Y-13460976D02*
X5776862Y-13470500D01*
X5776862Y-13470500D02*
X5757815Y-13480024D01*
X5757815Y-13480024D02*
X5738767Y-13480024D01*
X5738767Y-13480024D02*
X5719719Y-13470500D01*
X5719719Y-13470500D02*
X5710195Y-13460976D01*
X5710195Y-13460976D02*
X5700672Y-13441928D01*
X5700672Y-13441928D02*
X5691148Y-13403833D01*
X5691148Y-13403833D02*
X5691148Y-13356214D01*
X5691148Y-13356214D02*
X5700672Y-13318119D01*
X5700672Y-13318119D02*
X5710195Y-13299071D01*
X5710195Y-13299071D02*
X5719719Y-13289548D01*
X5719719Y-13289548D02*
X5738767Y-13280024D01*
X6043529Y-13480024D02*
X6043529Y-13280024D01*
X6129243Y-13480024D02*
X6129243Y-13375262D01*
X6129243Y-13375262D02*
X6119719Y-13356214D01*
X6119719Y-13356214D02*
X6100672Y-13346690D01*
X6100672Y-13346690D02*
X6072100Y-13346690D01*
X6072100Y-13346690D02*
X6053053Y-13356214D01*
X6053053Y-13356214D02*
X6043529Y-13365738D01*
X6253053Y-13480024D02*
X6234005Y-13470500D01*
X6234005Y-13470500D02*
X6224481Y-13460976D01*
X6224481Y-13460976D02*
X6214957Y-13441928D01*
X6214957Y-13441928D02*
X6214957Y-13384786D01*
X6214957Y-13384786D02*
X6224481Y-13365738D01*
X6224481Y-13365738D02*
X6234005Y-13356214D01*
X6234005Y-13356214D02*
X6253053Y-13346690D01*
X6253053Y-13346690D02*
X6281624Y-13346690D01*
X6281624Y-13346690D02*
X6300672Y-13356214D01*
X6300672Y-13356214D02*
X6310196Y-13365738D01*
X6310196Y-13365738D02*
X6319719Y-13384786D01*
X6319719Y-13384786D02*
X6319719Y-13441928D01*
X6319719Y-13441928D02*
X6310196Y-13460976D01*
X6310196Y-13460976D02*
X6300672Y-13470500D01*
X6300672Y-13470500D02*
X6281624Y-13480024D01*
X6281624Y-13480024D02*
X6253053Y-13480024D01*
X6434005Y-13480024D02*
X6414957Y-13470500D01*
X6414957Y-13470500D02*
X6405434Y-13451452D01*
X6405434Y-13451452D02*
X6405434Y-13280024D01*
X6586386Y-13470500D02*
X6567338Y-13480024D01*
X6567338Y-13480024D02*
X6529243Y-13480024D01*
X6529243Y-13480024D02*
X6510196Y-13470500D01*
X6510196Y-13470500D02*
X6500672Y-13451452D01*
X6500672Y-13451452D02*
X6500672Y-13375262D01*
X6500672Y-13375262D02*
X6510196Y-13356214D01*
X6510196Y-13356214D02*
X6529243Y-13346690D01*
X6529243Y-13346690D02*
X6567338Y-13346690D01*
X6567338Y-13346690D02*
X6586386Y-13356214D01*
X6586386Y-13356214D02*
X6595910Y-13375262D01*
X6595910Y-13375262D02*
X6595910Y-13394309D01*
X6595910Y-13394309D02*
X6500672Y-13413357D01*
X6672100Y-13470500D02*
X6691148Y-13480024D01*
X6691148Y-13480024D02*
X6729243Y-13480024D01*
X6729243Y-13480024D02*
X6748291Y-13470500D01*
X6748291Y-13470500D02*
X6757815Y-13451452D01*
X6757815Y-13451452D02*
X6757815Y-13441928D01*
X6757815Y-13441928D02*
X6748291Y-13422881D01*
X6748291Y-13422881D02*
X6729243Y-13413357D01*
X6729243Y-13413357D02*
X6700672Y-13413357D01*
X6700672Y-13413357D02*
X6681624Y-13403833D01*
X6681624Y-13403833D02*
X6672100Y-13384786D01*
X6672100Y-13384786D02*
X6672100Y-13375262D01*
X6672100Y-13375262D02*
X6681624Y-13356214D01*
X6681624Y-13356214D02*
X6700672Y-13346690D01*
X6700672Y-13346690D02*
X6729243Y-13346690D01*
X6729243Y-13346690D02*
X6748291Y-13356214D01*
X6824481Y-13556214D02*
X6834005Y-13546690D01*
X6834005Y-13546690D02*
X6853053Y-13518119D01*
X6853053Y-13518119D02*
X6862577Y-13499071D01*
X6862577Y-13499071D02*
X6872100Y-13470500D01*
X6872100Y-13470500D02*
X6881624Y-13422881D01*
X6881624Y-13422881D02*
X6881624Y-13384786D01*
X6881624Y-13384786D02*
X6872100Y-13337167D01*
X6872100Y-13337167D02*
X6862577Y-13308595D01*
X6862577Y-13308595D02*
X6853053Y-13289548D01*
X6853053Y-13289548D02*
X6834005Y-13260976D01*
X6834005Y-13260976D02*
X6824481Y-13251452D01*
D17*
X1762100Y-13596500D02*
X1872100Y-13706500D01*
X1872100Y-13596500D02*
X1762100Y-13706500D01*
X1872100Y-13651500D02*
G75*
G03*
X1872100Y-13651500I-55000J0D01*
G01*
D11*
X2224481Y-13744024D02*
X2110195Y-13744024D01*
X2167338Y-13744024D02*
X2167338Y-13544024D01*
X2167338Y-13544024D02*
X2148290Y-13572595D01*
X2148290Y-13572595D02*
X2129243Y-13591643D01*
X2129243Y-13591643D02*
X2110195Y-13601167D01*
X2310195Y-13724976D02*
X2319719Y-13734500D01*
X2319719Y-13734500D02*
X2310195Y-13744024D01*
X2310195Y-13744024D02*
X2300671Y-13734500D01*
X2300671Y-13734500D02*
X2310195Y-13724976D01*
X2310195Y-13724976D02*
X2310195Y-13744024D01*
X2510195Y-13744024D02*
X2395910Y-13744024D01*
X2453052Y-13744024D02*
X2453052Y-13544024D01*
X2453052Y-13544024D02*
X2434005Y-13572595D01*
X2434005Y-13572595D02*
X2414957Y-13591643D01*
X2414957Y-13591643D02*
X2395910Y-13601167D01*
X2634005Y-13544024D02*
X2653052Y-13544024D01*
X2653052Y-13544024D02*
X2672100Y-13553548D01*
X2672100Y-13553548D02*
X2681624Y-13563071D01*
X2681624Y-13563071D02*
X2691148Y-13582119D01*
X2691148Y-13582119D02*
X2700671Y-13620214D01*
X2700671Y-13620214D02*
X2700671Y-13667833D01*
X2700671Y-13667833D02*
X2691148Y-13705928D01*
X2691148Y-13705928D02*
X2681624Y-13724976D01*
X2681624Y-13724976D02*
X2672100Y-13734500D01*
X2672100Y-13734500D02*
X2653052Y-13744024D01*
X2653052Y-13744024D02*
X2634005Y-13744024D01*
X2634005Y-13744024D02*
X2614957Y-13734500D01*
X2614957Y-13734500D02*
X2605433Y-13724976D01*
X2605433Y-13724976D02*
X2595910Y-13705928D01*
X2595910Y-13705928D02*
X2586386Y-13667833D01*
X2586386Y-13667833D02*
X2586386Y-13620214D01*
X2586386Y-13620214D02*
X2595910Y-13582119D01*
X2595910Y-13582119D02*
X2605433Y-13563071D01*
X2605433Y-13563071D02*
X2614957Y-13553548D01*
X2614957Y-13553548D02*
X2634005Y-13544024D01*
X2824481Y-13544024D02*
X2843529Y-13544024D01*
X2843529Y-13544024D02*
X2862576Y-13553548D01*
X2862576Y-13553548D02*
X2872100Y-13563071D01*
X2872100Y-13563071D02*
X2881624Y-13582119D01*
X2881624Y-13582119D02*
X2891148Y-13620214D01*
X2891148Y-13620214D02*
X2891148Y-13667833D01*
X2891148Y-13667833D02*
X2881624Y-13705928D01*
X2881624Y-13705928D02*
X2872100Y-13724976D01*
X2872100Y-13724976D02*
X2862576Y-13734500D01*
X2862576Y-13734500D02*
X2843529Y-13744024D01*
X2843529Y-13744024D02*
X2824481Y-13744024D01*
X2824481Y-13744024D02*
X2805433Y-13734500D01*
X2805433Y-13734500D02*
X2795910Y-13724976D01*
X2795910Y-13724976D02*
X2786386Y-13705928D01*
X2786386Y-13705928D02*
X2776862Y-13667833D01*
X2776862Y-13667833D02*
X2776862Y-13620214D01*
X2776862Y-13620214D02*
X2786386Y-13582119D01*
X2786386Y-13582119D02*
X2795910Y-13563071D01*
X2795910Y-13563071D02*
X2805433Y-13553548D01*
X2805433Y-13553548D02*
X2824481Y-13544024D01*
X2976862Y-13744024D02*
X2976862Y-13610690D01*
X2976862Y-13629738D02*
X2986386Y-13620214D01*
X2986386Y-13620214D02*
X3005433Y-13610690D01*
X3005433Y-13610690D02*
X3034005Y-13610690D01*
X3034005Y-13610690D02*
X3053052Y-13620214D01*
X3053052Y-13620214D02*
X3062576Y-13639262D01*
X3062576Y-13639262D02*
X3062576Y-13744024D01*
X3062576Y-13639262D02*
X3072100Y-13620214D01*
X3072100Y-13620214D02*
X3091148Y-13610690D01*
X3091148Y-13610690D02*
X3119719Y-13610690D01*
X3119719Y-13610690D02*
X3138767Y-13620214D01*
X3138767Y-13620214D02*
X3148290Y-13639262D01*
X3148290Y-13639262D02*
X3148290Y-13744024D01*
X3243529Y-13744024D02*
X3243529Y-13610690D01*
X3243529Y-13629738D02*
X3253052Y-13620214D01*
X3253052Y-13620214D02*
X3272100Y-13610690D01*
X3272100Y-13610690D02*
X3300671Y-13610690D01*
X3300671Y-13610690D02*
X3319719Y-13620214D01*
X3319719Y-13620214D02*
X3329243Y-13639262D01*
X3329243Y-13639262D02*
X3329243Y-13744024D01*
X3329243Y-13639262D02*
X3338767Y-13620214D01*
X3338767Y-13620214D02*
X3357814Y-13610690D01*
X3357814Y-13610690D02*
X3386386Y-13610690D01*
X3386386Y-13610690D02*
X3405433Y-13620214D01*
X3405433Y-13620214D02*
X3414957Y-13639262D01*
X3414957Y-13639262D02*
X3414957Y-13744024D01*
X3805433Y-13534500D02*
X3634005Y-13791643D01*
X4062576Y-13544024D02*
X4081624Y-13544024D01*
X4081624Y-13544024D02*
X4100672Y-13553548D01*
X4100672Y-13553548D02*
X4110195Y-13563071D01*
X4110195Y-13563071D02*
X4119719Y-13582119D01*
X4119719Y-13582119D02*
X4129243Y-13620214D01*
X4129243Y-13620214D02*
X4129243Y-13667833D01*
X4129243Y-13667833D02*
X4119719Y-13705928D01*
X4119719Y-13705928D02*
X4110195Y-13724976D01*
X4110195Y-13724976D02*
X4100672Y-13734500D01*
X4100672Y-13734500D02*
X4081624Y-13744024D01*
X4081624Y-13744024D02*
X4062576Y-13744024D01*
X4062576Y-13744024D02*
X4043529Y-13734500D01*
X4043529Y-13734500D02*
X4034005Y-13724976D01*
X4034005Y-13724976D02*
X4024481Y-13705928D01*
X4024481Y-13705928D02*
X4014957Y-13667833D01*
X4014957Y-13667833D02*
X4014957Y-13620214D01*
X4014957Y-13620214D02*
X4024481Y-13582119D01*
X4024481Y-13582119D02*
X4034005Y-13563071D01*
X4034005Y-13563071D02*
X4043529Y-13553548D01*
X4043529Y-13553548D02*
X4062576Y-13544024D01*
X4214957Y-13724976D02*
X4224481Y-13734500D01*
X4224481Y-13734500D02*
X4214957Y-13744024D01*
X4214957Y-13744024D02*
X4205434Y-13734500D01*
X4205434Y-13734500D02*
X4214957Y-13724976D01*
X4214957Y-13724976D02*
X4214957Y-13744024D01*
X4348291Y-13544024D02*
X4367338Y-13544024D01*
X4367338Y-13544024D02*
X4386386Y-13553548D01*
X4386386Y-13553548D02*
X4395910Y-13563071D01*
X4395910Y-13563071D02*
X4405434Y-13582119D01*
X4405434Y-13582119D02*
X4414957Y-13620214D01*
X4414957Y-13620214D02*
X4414957Y-13667833D01*
X4414957Y-13667833D02*
X4405434Y-13705928D01*
X4405434Y-13705928D02*
X4395910Y-13724976D01*
X4395910Y-13724976D02*
X4386386Y-13734500D01*
X4386386Y-13734500D02*
X4367338Y-13744024D01*
X4367338Y-13744024D02*
X4348291Y-13744024D01*
X4348291Y-13744024D02*
X4329243Y-13734500D01*
X4329243Y-13734500D02*
X4319719Y-13724976D01*
X4319719Y-13724976D02*
X4310195Y-13705928D01*
X4310195Y-13705928D02*
X4300672Y-13667833D01*
X4300672Y-13667833D02*
X4300672Y-13620214D01*
X4300672Y-13620214D02*
X4310195Y-13582119D01*
X4310195Y-13582119D02*
X4319719Y-13563071D01*
X4319719Y-13563071D02*
X4329243Y-13553548D01*
X4329243Y-13553548D02*
X4348291Y-13544024D01*
X4586386Y-13610690D02*
X4586386Y-13744024D01*
X4538767Y-13534500D02*
X4491148Y-13677357D01*
X4491148Y-13677357D02*
X4614957Y-13677357D01*
X4672100Y-13544024D02*
X4795910Y-13544024D01*
X4795910Y-13544024D02*
X4729243Y-13620214D01*
X4729243Y-13620214D02*
X4757815Y-13620214D01*
X4757815Y-13620214D02*
X4776862Y-13629738D01*
X4776862Y-13629738D02*
X4786386Y-13639262D01*
X4786386Y-13639262D02*
X4795910Y-13658309D01*
X4795910Y-13658309D02*
X4795910Y-13705928D01*
X4795910Y-13705928D02*
X4786386Y-13724976D01*
X4786386Y-13724976D02*
X4776862Y-13734500D01*
X4776862Y-13734500D02*
X4757815Y-13744024D01*
X4757815Y-13744024D02*
X4700672Y-13744024D01*
X4700672Y-13744024D02*
X4681624Y-13734500D01*
X4681624Y-13734500D02*
X4672100Y-13724976D01*
X4862576Y-13544024D02*
X4986386Y-13544024D01*
X4986386Y-13544024D02*
X4919719Y-13620214D01*
X4919719Y-13620214D02*
X4948291Y-13620214D01*
X4948291Y-13620214D02*
X4967338Y-13629738D01*
X4967338Y-13629738D02*
X4976862Y-13639262D01*
X4976862Y-13639262D02*
X4986386Y-13658309D01*
X4986386Y-13658309D02*
X4986386Y-13705928D01*
X4986386Y-13705928D02*
X4976862Y-13724976D01*
X4976862Y-13724976D02*
X4967338Y-13734500D01*
X4967338Y-13734500D02*
X4948291Y-13744024D01*
X4948291Y-13744024D02*
X4891148Y-13744024D01*
X4891148Y-13744024D02*
X4872100Y-13734500D01*
X4872100Y-13734500D02*
X4862576Y-13724976D01*
X5062576Y-13544024D02*
X5062576Y-13582119D01*
X5138767Y-13544024D02*
X5138767Y-13582119D01*
X5434005Y-13820214D02*
X5424481Y-13810690D01*
X5424481Y-13810690D02*
X5405434Y-13782119D01*
X5405434Y-13782119D02*
X5395910Y-13763071D01*
X5395910Y-13763071D02*
X5386386Y-13734500D01*
X5386386Y-13734500D02*
X5376862Y-13686881D01*
X5376862Y-13686881D02*
X5376862Y-13648786D01*
X5376862Y-13648786D02*
X5386386Y-13601167D01*
X5386386Y-13601167D02*
X5395910Y-13572595D01*
X5395910Y-13572595D02*
X5405434Y-13553548D01*
X5405434Y-13553548D02*
X5424481Y-13524976D01*
X5424481Y-13524976D02*
X5434005Y-13515452D01*
X5595910Y-13610690D02*
X5595910Y-13744024D01*
X5548291Y-13534500D02*
X5500672Y-13677357D01*
X5500672Y-13677357D02*
X5624481Y-13677357D01*
X5853053Y-13744024D02*
X5853053Y-13544024D01*
X5938767Y-13744024D02*
X5938767Y-13639262D01*
X5938767Y-13639262D02*
X5929243Y-13620214D01*
X5929243Y-13620214D02*
X5910196Y-13610690D01*
X5910196Y-13610690D02*
X5881624Y-13610690D01*
X5881624Y-13610690D02*
X5862576Y-13620214D01*
X5862576Y-13620214D02*
X5853053Y-13629738D01*
X6062576Y-13744024D02*
X6043529Y-13734500D01*
X6043529Y-13734500D02*
X6034005Y-13724976D01*
X6034005Y-13724976D02*
X6024481Y-13705928D01*
X6024481Y-13705928D02*
X6024481Y-13648786D01*
X6024481Y-13648786D02*
X6034005Y-13629738D01*
X6034005Y-13629738D02*
X6043529Y-13620214D01*
X6043529Y-13620214D02*
X6062576Y-13610690D01*
X6062576Y-13610690D02*
X6091148Y-13610690D01*
X6091148Y-13610690D02*
X6110196Y-13620214D01*
X6110196Y-13620214D02*
X6119719Y-13629738D01*
X6119719Y-13629738D02*
X6129243Y-13648786D01*
X6129243Y-13648786D02*
X6129243Y-13705928D01*
X6129243Y-13705928D02*
X6119719Y-13724976D01*
X6119719Y-13724976D02*
X6110196Y-13734500D01*
X6110196Y-13734500D02*
X6091148Y-13744024D01*
X6091148Y-13744024D02*
X6062576Y-13744024D01*
X6243529Y-13744024D02*
X6224481Y-13734500D01*
X6224481Y-13734500D02*
X6214957Y-13715452D01*
X6214957Y-13715452D02*
X6214957Y-13544024D01*
X6395910Y-13734500D02*
X6376862Y-13744024D01*
X6376862Y-13744024D02*
X6338767Y-13744024D01*
X6338767Y-13744024D02*
X6319719Y-13734500D01*
X6319719Y-13734500D02*
X6310196Y-13715452D01*
X6310196Y-13715452D02*
X6310196Y-13639262D01*
X6310196Y-13639262D02*
X6319719Y-13620214D01*
X6319719Y-13620214D02*
X6338767Y-13610690D01*
X6338767Y-13610690D02*
X6376862Y-13610690D01*
X6376862Y-13610690D02*
X6395910Y-13620214D01*
X6395910Y-13620214D02*
X6405434Y-13639262D01*
X6405434Y-13639262D02*
X6405434Y-13658309D01*
X6405434Y-13658309D02*
X6310196Y-13677357D01*
X6481624Y-13734500D02*
X6500672Y-13744024D01*
X6500672Y-13744024D02*
X6538767Y-13744024D01*
X6538767Y-13744024D02*
X6557815Y-13734500D01*
X6557815Y-13734500D02*
X6567338Y-13715452D01*
X6567338Y-13715452D02*
X6567338Y-13705928D01*
X6567338Y-13705928D02*
X6557815Y-13686881D01*
X6557815Y-13686881D02*
X6538767Y-13677357D01*
X6538767Y-13677357D02*
X6510196Y-13677357D01*
X6510196Y-13677357D02*
X6491148Y-13667833D01*
X6491148Y-13667833D02*
X6481624Y-13648786D01*
X6481624Y-13648786D02*
X6481624Y-13639262D01*
X6481624Y-13639262D02*
X6491148Y-13620214D01*
X6491148Y-13620214D02*
X6510196Y-13610690D01*
X6510196Y-13610690D02*
X6538767Y-13610690D01*
X6538767Y-13610690D02*
X6557815Y-13620214D01*
X6634005Y-13820214D02*
X6643529Y-13810690D01*
X6643529Y-13810690D02*
X6662577Y-13782119D01*
X6662577Y-13782119D02*
X6672100Y-13763071D01*
X6672100Y-13763071D02*
X6681624Y-13734500D01*
X6681624Y-13734500D02*
X6691148Y-13686881D01*
X6691148Y-13686881D02*
X6691148Y-13648786D01*
X6691148Y-13648786D02*
X6681624Y-13601167D01*
X6681624Y-13601167D02*
X6672100Y-13572595D01*
X6672100Y-13572595D02*
X6662577Y-13553548D01*
X6662577Y-13553548D02*
X6643529Y-13524976D01*
X6643529Y-13524976D02*
X6634005Y-13515452D01*
D18*
X1742100Y-13850500D02*
X1872100Y-13980500D01*
X1872100Y-13850500D02*
X1742100Y-13980500D01*
X1807100Y-13850500D02*
X1807100Y-13980500D01*
X1742100Y-13915500D02*
X1872100Y-13915500D01*
D11*
X2224481Y-14008024D02*
X2110195Y-14008024D01*
X2167338Y-14008024D02*
X2167338Y-13808024D01*
X2167338Y-13808024D02*
X2148290Y-13836595D01*
X2148290Y-13836595D02*
X2129243Y-13855643D01*
X2129243Y-13855643D02*
X2110195Y-13865167D01*
X2310195Y-13988976D02*
X2319719Y-13998500D01*
X2319719Y-13998500D02*
X2310195Y-14008024D01*
X2310195Y-14008024D02*
X2300671Y-13998500D01*
X2300671Y-13998500D02*
X2310195Y-13988976D01*
X2310195Y-13988976D02*
X2310195Y-14008024D01*
X2386386Y-13808024D02*
X2510195Y-13808024D01*
X2510195Y-13808024D02*
X2443529Y-13884214D01*
X2443529Y-13884214D02*
X2472100Y-13884214D01*
X2472100Y-13884214D02*
X2491148Y-13893738D01*
X2491148Y-13893738D02*
X2500671Y-13903262D01*
X2500671Y-13903262D02*
X2510195Y-13922309D01*
X2510195Y-13922309D02*
X2510195Y-13969928D01*
X2510195Y-13969928D02*
X2500671Y-13988976D01*
X2500671Y-13988976D02*
X2491148Y-13998500D01*
X2491148Y-13998500D02*
X2472100Y-14008024D01*
X2472100Y-14008024D02*
X2414957Y-14008024D01*
X2414957Y-14008024D02*
X2395910Y-13998500D01*
X2395910Y-13998500D02*
X2386386Y-13988976D01*
X2634005Y-13808024D02*
X2653052Y-13808024D01*
X2653052Y-13808024D02*
X2672100Y-13817548D01*
X2672100Y-13817548D02*
X2681624Y-13827071D01*
X2681624Y-13827071D02*
X2691148Y-13846119D01*
X2691148Y-13846119D02*
X2700671Y-13884214D01*
X2700671Y-13884214D02*
X2700671Y-13931833D01*
X2700671Y-13931833D02*
X2691148Y-13969928D01*
X2691148Y-13969928D02*
X2681624Y-13988976D01*
X2681624Y-13988976D02*
X2672100Y-13998500D01*
X2672100Y-13998500D02*
X2653052Y-14008024D01*
X2653052Y-14008024D02*
X2634005Y-14008024D01*
X2634005Y-14008024D02*
X2614957Y-13998500D01*
X2614957Y-13998500D02*
X2605433Y-13988976D01*
X2605433Y-13988976D02*
X2595910Y-13969928D01*
X2595910Y-13969928D02*
X2586386Y-13931833D01*
X2586386Y-13931833D02*
X2586386Y-13884214D01*
X2586386Y-13884214D02*
X2595910Y-13846119D01*
X2595910Y-13846119D02*
X2605433Y-13827071D01*
X2605433Y-13827071D02*
X2614957Y-13817548D01*
X2614957Y-13817548D02*
X2634005Y-13808024D01*
X2824481Y-13808024D02*
X2843529Y-13808024D01*
X2843529Y-13808024D02*
X2862576Y-13817548D01*
X2862576Y-13817548D02*
X2872100Y-13827071D01*
X2872100Y-13827071D02*
X2881624Y-13846119D01*
X2881624Y-13846119D02*
X2891148Y-13884214D01*
X2891148Y-13884214D02*
X2891148Y-13931833D01*
X2891148Y-13931833D02*
X2881624Y-13969928D01*
X2881624Y-13969928D02*
X2872100Y-13988976D01*
X2872100Y-13988976D02*
X2862576Y-13998500D01*
X2862576Y-13998500D02*
X2843529Y-14008024D01*
X2843529Y-14008024D02*
X2824481Y-14008024D01*
X2824481Y-14008024D02*
X2805433Y-13998500D01*
X2805433Y-13998500D02*
X2795910Y-13988976D01*
X2795910Y-13988976D02*
X2786386Y-13969928D01*
X2786386Y-13969928D02*
X2776862Y-13931833D01*
X2776862Y-13931833D02*
X2776862Y-13884214D01*
X2776862Y-13884214D02*
X2786386Y-13846119D01*
X2786386Y-13846119D02*
X2795910Y-13827071D01*
X2795910Y-13827071D02*
X2805433Y-13817548D01*
X2805433Y-13817548D02*
X2824481Y-13808024D01*
X2976862Y-14008024D02*
X2976862Y-13874690D01*
X2976862Y-13893738D02*
X2986386Y-13884214D01*
X2986386Y-13884214D02*
X3005433Y-13874690D01*
X3005433Y-13874690D02*
X3034005Y-13874690D01*
X3034005Y-13874690D02*
X3053052Y-13884214D01*
X3053052Y-13884214D02*
X3062576Y-13903262D01*
X3062576Y-13903262D02*
X3062576Y-14008024D01*
X3062576Y-13903262D02*
X3072100Y-13884214D01*
X3072100Y-13884214D02*
X3091148Y-13874690D01*
X3091148Y-13874690D02*
X3119719Y-13874690D01*
X3119719Y-13874690D02*
X3138767Y-13884214D01*
X3138767Y-13884214D02*
X3148290Y-13903262D01*
X3148290Y-13903262D02*
X3148290Y-14008024D01*
X3243529Y-14008024D02*
X3243529Y-13874690D01*
X3243529Y-13893738D02*
X3253052Y-13884214D01*
X3253052Y-13884214D02*
X3272100Y-13874690D01*
X3272100Y-13874690D02*
X3300671Y-13874690D01*
X3300671Y-13874690D02*
X3319719Y-13884214D01*
X3319719Y-13884214D02*
X3329243Y-13903262D01*
X3329243Y-13903262D02*
X3329243Y-14008024D01*
X3329243Y-13903262D02*
X3338767Y-13884214D01*
X3338767Y-13884214D02*
X3357814Y-13874690D01*
X3357814Y-13874690D02*
X3386386Y-13874690D01*
X3386386Y-13874690D02*
X3405433Y-13884214D01*
X3405433Y-13884214D02*
X3414957Y-13903262D01*
X3414957Y-13903262D02*
X3414957Y-14008024D01*
X3805433Y-13798500D02*
X3634005Y-14055643D01*
X4062576Y-13808024D02*
X4081624Y-13808024D01*
X4081624Y-13808024D02*
X4100672Y-13817548D01*
X4100672Y-13817548D02*
X4110195Y-13827071D01*
X4110195Y-13827071D02*
X4119719Y-13846119D01*
X4119719Y-13846119D02*
X4129243Y-13884214D01*
X4129243Y-13884214D02*
X4129243Y-13931833D01*
X4129243Y-13931833D02*
X4119719Y-13969928D01*
X4119719Y-13969928D02*
X4110195Y-13988976D01*
X4110195Y-13988976D02*
X4100672Y-13998500D01*
X4100672Y-13998500D02*
X4081624Y-14008024D01*
X4081624Y-14008024D02*
X4062576Y-14008024D01*
X4062576Y-14008024D02*
X4043529Y-13998500D01*
X4043529Y-13998500D02*
X4034005Y-13988976D01*
X4034005Y-13988976D02*
X4024481Y-13969928D01*
X4024481Y-13969928D02*
X4014957Y-13931833D01*
X4014957Y-13931833D02*
X4014957Y-13884214D01*
X4014957Y-13884214D02*
X4024481Y-13846119D01*
X4024481Y-13846119D02*
X4034005Y-13827071D01*
X4034005Y-13827071D02*
X4043529Y-13817548D01*
X4043529Y-13817548D02*
X4062576Y-13808024D01*
X4214957Y-13988976D02*
X4224481Y-13998500D01*
X4224481Y-13998500D02*
X4214957Y-14008024D01*
X4214957Y-14008024D02*
X4205434Y-13998500D01*
X4205434Y-13998500D02*
X4214957Y-13988976D01*
X4214957Y-13988976D02*
X4214957Y-14008024D01*
X4348291Y-13808024D02*
X4367338Y-13808024D01*
X4367338Y-13808024D02*
X4386386Y-13817548D01*
X4386386Y-13817548D02*
X4395910Y-13827071D01*
X4395910Y-13827071D02*
X4405434Y-13846119D01*
X4405434Y-13846119D02*
X4414957Y-13884214D01*
X4414957Y-13884214D02*
X4414957Y-13931833D01*
X4414957Y-13931833D02*
X4405434Y-13969928D01*
X4405434Y-13969928D02*
X4395910Y-13988976D01*
X4395910Y-13988976D02*
X4386386Y-13998500D01*
X4386386Y-13998500D02*
X4367338Y-14008024D01*
X4367338Y-14008024D02*
X4348291Y-14008024D01*
X4348291Y-14008024D02*
X4329243Y-13998500D01*
X4329243Y-13998500D02*
X4319719Y-13988976D01*
X4319719Y-13988976D02*
X4310195Y-13969928D01*
X4310195Y-13969928D02*
X4300672Y-13931833D01*
X4300672Y-13931833D02*
X4300672Y-13884214D01*
X4300672Y-13884214D02*
X4310195Y-13846119D01*
X4310195Y-13846119D02*
X4319719Y-13827071D01*
X4319719Y-13827071D02*
X4329243Y-13817548D01*
X4329243Y-13817548D02*
X4348291Y-13808024D01*
X4595910Y-13808024D02*
X4500672Y-13808024D01*
X4500672Y-13808024D02*
X4491148Y-13903262D01*
X4491148Y-13903262D02*
X4500672Y-13893738D01*
X4500672Y-13893738D02*
X4519719Y-13884214D01*
X4519719Y-13884214D02*
X4567338Y-13884214D01*
X4567338Y-13884214D02*
X4586386Y-13893738D01*
X4586386Y-13893738D02*
X4595910Y-13903262D01*
X4595910Y-13903262D02*
X4605434Y-13922309D01*
X4605434Y-13922309D02*
X4605434Y-13969928D01*
X4605434Y-13969928D02*
X4595910Y-13988976D01*
X4595910Y-13988976D02*
X4586386Y-13998500D01*
X4586386Y-13998500D02*
X4567338Y-14008024D01*
X4567338Y-14008024D02*
X4519719Y-14008024D01*
X4519719Y-14008024D02*
X4500672Y-13998500D01*
X4500672Y-13998500D02*
X4491148Y-13988976D01*
X4795910Y-14008024D02*
X4681624Y-14008024D01*
X4738767Y-14008024D02*
X4738767Y-13808024D01*
X4738767Y-13808024D02*
X4719719Y-13836595D01*
X4719719Y-13836595D02*
X4700672Y-13855643D01*
X4700672Y-13855643D02*
X4681624Y-13865167D01*
X4872100Y-13827071D02*
X4881624Y-13817548D01*
X4881624Y-13817548D02*
X4900672Y-13808024D01*
X4900672Y-13808024D02*
X4948291Y-13808024D01*
X4948291Y-13808024D02*
X4967338Y-13817548D01*
X4967338Y-13817548D02*
X4976862Y-13827071D01*
X4976862Y-13827071D02*
X4986386Y-13846119D01*
X4986386Y-13846119D02*
X4986386Y-13865167D01*
X4986386Y-13865167D02*
X4976862Y-13893738D01*
X4976862Y-13893738D02*
X4862576Y-14008024D01*
X4862576Y-14008024D02*
X4986386Y-14008024D01*
X5062576Y-13808024D02*
X5062576Y-13846119D01*
X5138767Y-13808024D02*
X5138767Y-13846119D01*
X5434005Y-14084214D02*
X5424481Y-14074690D01*
X5424481Y-14074690D02*
X5405434Y-14046119D01*
X5405434Y-14046119D02*
X5395910Y-14027071D01*
X5395910Y-14027071D02*
X5386386Y-13998500D01*
X5386386Y-13998500D02*
X5376862Y-13950881D01*
X5376862Y-13950881D02*
X5376862Y-13912786D01*
X5376862Y-13912786D02*
X5386386Y-13865167D01*
X5386386Y-13865167D02*
X5395910Y-13836595D01*
X5395910Y-13836595D02*
X5405434Y-13817548D01*
X5405434Y-13817548D02*
X5424481Y-13788976D01*
X5424481Y-13788976D02*
X5434005Y-13779452D01*
X5614957Y-14008024D02*
X5500672Y-14008024D01*
X5557815Y-14008024D02*
X5557815Y-13808024D01*
X5557815Y-13808024D02*
X5538767Y-13836595D01*
X5538767Y-13836595D02*
X5519719Y-13855643D01*
X5519719Y-13855643D02*
X5500672Y-13865167D01*
X5738767Y-13808024D02*
X5757815Y-13808024D01*
X5757815Y-13808024D02*
X5776862Y-13817548D01*
X5776862Y-13817548D02*
X5786386Y-13827071D01*
X5786386Y-13827071D02*
X5795910Y-13846119D01*
X5795910Y-13846119D02*
X5805434Y-13884214D01*
X5805434Y-13884214D02*
X5805434Y-13931833D01*
X5805434Y-13931833D02*
X5795910Y-13969928D01*
X5795910Y-13969928D02*
X5786386Y-13988976D01*
X5786386Y-13988976D02*
X5776862Y-13998500D01*
X5776862Y-13998500D02*
X5757815Y-14008024D01*
X5757815Y-14008024D02*
X5738767Y-14008024D01*
X5738767Y-14008024D02*
X5719719Y-13998500D01*
X5719719Y-13998500D02*
X5710195Y-13988976D01*
X5710195Y-13988976D02*
X5700672Y-13969928D01*
X5700672Y-13969928D02*
X5691148Y-13931833D01*
X5691148Y-13931833D02*
X5691148Y-13884214D01*
X5691148Y-13884214D02*
X5700672Y-13846119D01*
X5700672Y-13846119D02*
X5710195Y-13827071D01*
X5710195Y-13827071D02*
X5719719Y-13817548D01*
X5719719Y-13817548D02*
X5738767Y-13808024D01*
X6043529Y-14008024D02*
X6043529Y-13808024D01*
X6129243Y-14008024D02*
X6129243Y-13903262D01*
X6129243Y-13903262D02*
X6119719Y-13884214D01*
X6119719Y-13884214D02*
X6100672Y-13874690D01*
X6100672Y-13874690D02*
X6072100Y-13874690D01*
X6072100Y-13874690D02*
X6053053Y-13884214D01*
X6053053Y-13884214D02*
X6043529Y-13893738D01*
X6253053Y-14008024D02*
X6234005Y-13998500D01*
X6234005Y-13998500D02*
X6224481Y-13988976D01*
X6224481Y-13988976D02*
X6214957Y-13969928D01*
X6214957Y-13969928D02*
X6214957Y-13912786D01*
X6214957Y-13912786D02*
X6224481Y-13893738D01*
X6224481Y-13893738D02*
X6234005Y-13884214D01*
X6234005Y-13884214D02*
X6253053Y-13874690D01*
X6253053Y-13874690D02*
X6281624Y-13874690D01*
X6281624Y-13874690D02*
X6300672Y-13884214D01*
X6300672Y-13884214D02*
X6310196Y-13893738D01*
X6310196Y-13893738D02*
X6319719Y-13912786D01*
X6319719Y-13912786D02*
X6319719Y-13969928D01*
X6319719Y-13969928D02*
X6310196Y-13988976D01*
X6310196Y-13988976D02*
X6300672Y-13998500D01*
X6300672Y-13998500D02*
X6281624Y-14008024D01*
X6281624Y-14008024D02*
X6253053Y-14008024D01*
X6434005Y-14008024D02*
X6414957Y-13998500D01*
X6414957Y-13998500D02*
X6405434Y-13979452D01*
X6405434Y-13979452D02*
X6405434Y-13808024D01*
X6586386Y-13998500D02*
X6567338Y-14008024D01*
X6567338Y-14008024D02*
X6529243Y-14008024D01*
X6529243Y-14008024D02*
X6510196Y-13998500D01*
X6510196Y-13998500D02*
X6500672Y-13979452D01*
X6500672Y-13979452D02*
X6500672Y-13903262D01*
X6500672Y-13903262D02*
X6510196Y-13884214D01*
X6510196Y-13884214D02*
X6529243Y-13874690D01*
X6529243Y-13874690D02*
X6567338Y-13874690D01*
X6567338Y-13874690D02*
X6586386Y-13884214D01*
X6586386Y-13884214D02*
X6595910Y-13903262D01*
X6595910Y-13903262D02*
X6595910Y-13922309D01*
X6595910Y-13922309D02*
X6500672Y-13941357D01*
X6672100Y-13998500D02*
X6691148Y-14008024D01*
X6691148Y-14008024D02*
X6729243Y-14008024D01*
X6729243Y-14008024D02*
X6748291Y-13998500D01*
X6748291Y-13998500D02*
X6757815Y-13979452D01*
X6757815Y-13979452D02*
X6757815Y-13969928D01*
X6757815Y-13969928D02*
X6748291Y-13950881D01*
X6748291Y-13950881D02*
X6729243Y-13941357D01*
X6729243Y-13941357D02*
X6700672Y-13941357D01*
X6700672Y-13941357D02*
X6681624Y-13931833D01*
X6681624Y-13931833D02*
X6672100Y-13912786D01*
X6672100Y-13912786D02*
X6672100Y-13903262D01*
X6672100Y-13903262D02*
X6681624Y-13884214D01*
X6681624Y-13884214D02*
X6700672Y-13874690D01*
X6700672Y-13874690D02*
X6729243Y-13874690D01*
X6729243Y-13874690D02*
X6748291Y-13884214D01*
X6824481Y-14084214D02*
X6834005Y-14074690D01*
X6834005Y-14074690D02*
X6853053Y-14046119D01*
X6853053Y-14046119D02*
X6862577Y-14027071D01*
X6862577Y-14027071D02*
X6872100Y-13998500D01*
X6872100Y-13998500D02*
X6881624Y-13950881D01*
X6881624Y-13950881D02*
X6881624Y-13912786D01*
X6881624Y-13912786D02*
X6872100Y-13865167D01*
X6872100Y-13865167D02*
X6862577Y-13836595D01*
X6862577Y-13836595D02*
X6853053Y-13817548D01*
X6853053Y-13817548D02*
X6834005Y-13788976D01*
X6834005Y-13788976D02*
X6824481Y-13779452D01*
D19*
X1702100Y-14094500D02*
X1872100Y-14264500D01*
X1872100Y-14094500D02*
X1702100Y-14264500D01*
X1847205Y-14239605D02*
X1847205Y-14119395D01*
X1726995Y-14119395D01*
X1726995Y-14239605D01*
X1847205Y-14239605D01*
D11*
X2224481Y-14272024D02*
X2110195Y-14272024D01*
X2167338Y-14272024D02*
X2167338Y-14072024D01*
X2167338Y-14072024D02*
X2148290Y-14100595D01*
X2148290Y-14100595D02*
X2129243Y-14119643D01*
X2129243Y-14119643D02*
X2110195Y-14129167D01*
X2310195Y-14252976D02*
X2319719Y-14262500D01*
X2319719Y-14262500D02*
X2310195Y-14272024D01*
X2310195Y-14272024D02*
X2300671Y-14262500D01*
X2300671Y-14262500D02*
X2310195Y-14252976D01*
X2310195Y-14252976D02*
X2310195Y-14272024D01*
X2386386Y-14072024D02*
X2519719Y-14072024D01*
X2519719Y-14072024D02*
X2434005Y-14272024D01*
X2634005Y-14072024D02*
X2653052Y-14072024D01*
X2653052Y-14072024D02*
X2672100Y-14081548D01*
X2672100Y-14081548D02*
X2681624Y-14091071D01*
X2681624Y-14091071D02*
X2691148Y-14110119D01*
X2691148Y-14110119D02*
X2700671Y-14148214D01*
X2700671Y-14148214D02*
X2700671Y-14195833D01*
X2700671Y-14195833D02*
X2691148Y-14233928D01*
X2691148Y-14233928D02*
X2681624Y-14252976D01*
X2681624Y-14252976D02*
X2672100Y-14262500D01*
X2672100Y-14262500D02*
X2653052Y-14272024D01*
X2653052Y-14272024D02*
X2634005Y-14272024D01*
X2634005Y-14272024D02*
X2614957Y-14262500D01*
X2614957Y-14262500D02*
X2605433Y-14252976D01*
X2605433Y-14252976D02*
X2595910Y-14233928D01*
X2595910Y-14233928D02*
X2586386Y-14195833D01*
X2586386Y-14195833D02*
X2586386Y-14148214D01*
X2586386Y-14148214D02*
X2595910Y-14110119D01*
X2595910Y-14110119D02*
X2605433Y-14091071D01*
X2605433Y-14091071D02*
X2614957Y-14081548D01*
X2614957Y-14081548D02*
X2634005Y-14072024D01*
X2824481Y-14072024D02*
X2843529Y-14072024D01*
X2843529Y-14072024D02*
X2862576Y-14081548D01*
X2862576Y-14081548D02*
X2872100Y-14091071D01*
X2872100Y-14091071D02*
X2881624Y-14110119D01*
X2881624Y-14110119D02*
X2891148Y-14148214D01*
X2891148Y-14148214D02*
X2891148Y-14195833D01*
X2891148Y-14195833D02*
X2881624Y-14233928D01*
X2881624Y-14233928D02*
X2872100Y-14252976D01*
X2872100Y-14252976D02*
X2862576Y-14262500D01*
X2862576Y-14262500D02*
X2843529Y-14272024D01*
X2843529Y-14272024D02*
X2824481Y-14272024D01*
X2824481Y-14272024D02*
X2805433Y-14262500D01*
X2805433Y-14262500D02*
X2795910Y-14252976D01*
X2795910Y-14252976D02*
X2786386Y-14233928D01*
X2786386Y-14233928D02*
X2776862Y-14195833D01*
X2776862Y-14195833D02*
X2776862Y-14148214D01*
X2776862Y-14148214D02*
X2786386Y-14110119D01*
X2786386Y-14110119D02*
X2795910Y-14091071D01*
X2795910Y-14091071D02*
X2805433Y-14081548D01*
X2805433Y-14081548D02*
X2824481Y-14072024D01*
X2976862Y-14272024D02*
X2976862Y-14138690D01*
X2976862Y-14157738D02*
X2986386Y-14148214D01*
X2986386Y-14148214D02*
X3005433Y-14138690D01*
X3005433Y-14138690D02*
X3034005Y-14138690D01*
X3034005Y-14138690D02*
X3053052Y-14148214D01*
X3053052Y-14148214D02*
X3062576Y-14167262D01*
X3062576Y-14167262D02*
X3062576Y-14272024D01*
X3062576Y-14167262D02*
X3072100Y-14148214D01*
X3072100Y-14148214D02*
X3091148Y-14138690D01*
X3091148Y-14138690D02*
X3119719Y-14138690D01*
X3119719Y-14138690D02*
X3138767Y-14148214D01*
X3138767Y-14148214D02*
X3148290Y-14167262D01*
X3148290Y-14167262D02*
X3148290Y-14272024D01*
X3243529Y-14272024D02*
X3243529Y-14138690D01*
X3243529Y-14157738D02*
X3253052Y-14148214D01*
X3253052Y-14148214D02*
X3272100Y-14138690D01*
X3272100Y-14138690D02*
X3300671Y-14138690D01*
X3300671Y-14138690D02*
X3319719Y-14148214D01*
X3319719Y-14148214D02*
X3329243Y-14167262D01*
X3329243Y-14167262D02*
X3329243Y-14272024D01*
X3329243Y-14167262D02*
X3338767Y-14148214D01*
X3338767Y-14148214D02*
X3357814Y-14138690D01*
X3357814Y-14138690D02*
X3386386Y-14138690D01*
X3386386Y-14138690D02*
X3405433Y-14148214D01*
X3405433Y-14148214D02*
X3414957Y-14167262D01*
X3414957Y-14167262D02*
X3414957Y-14272024D01*
X3805433Y-14062500D02*
X3634005Y-14319643D01*
X4062576Y-14072024D02*
X4081624Y-14072024D01*
X4081624Y-14072024D02*
X4100672Y-14081548D01*
X4100672Y-14081548D02*
X4110195Y-14091071D01*
X4110195Y-14091071D02*
X4119719Y-14110119D01*
X4119719Y-14110119D02*
X4129243Y-14148214D01*
X4129243Y-14148214D02*
X4129243Y-14195833D01*
X4129243Y-14195833D02*
X4119719Y-14233928D01*
X4119719Y-14233928D02*
X4110195Y-14252976D01*
X4110195Y-14252976D02*
X4100672Y-14262500D01*
X4100672Y-14262500D02*
X4081624Y-14272024D01*
X4081624Y-14272024D02*
X4062576Y-14272024D01*
X4062576Y-14272024D02*
X4043529Y-14262500D01*
X4043529Y-14262500D02*
X4034005Y-14252976D01*
X4034005Y-14252976D02*
X4024481Y-14233928D01*
X4024481Y-14233928D02*
X4014957Y-14195833D01*
X4014957Y-14195833D02*
X4014957Y-14148214D01*
X4014957Y-14148214D02*
X4024481Y-14110119D01*
X4024481Y-14110119D02*
X4034005Y-14091071D01*
X4034005Y-14091071D02*
X4043529Y-14081548D01*
X4043529Y-14081548D02*
X4062576Y-14072024D01*
X4214957Y-14252976D02*
X4224481Y-14262500D01*
X4224481Y-14262500D02*
X4214957Y-14272024D01*
X4214957Y-14272024D02*
X4205434Y-14262500D01*
X4205434Y-14262500D02*
X4214957Y-14252976D01*
X4214957Y-14252976D02*
X4214957Y-14272024D01*
X4348291Y-14072024D02*
X4367338Y-14072024D01*
X4367338Y-14072024D02*
X4386386Y-14081548D01*
X4386386Y-14081548D02*
X4395910Y-14091071D01*
X4395910Y-14091071D02*
X4405434Y-14110119D01*
X4405434Y-14110119D02*
X4414957Y-14148214D01*
X4414957Y-14148214D02*
X4414957Y-14195833D01*
X4414957Y-14195833D02*
X4405434Y-14233928D01*
X4405434Y-14233928D02*
X4395910Y-14252976D01*
X4395910Y-14252976D02*
X4386386Y-14262500D01*
X4386386Y-14262500D02*
X4367338Y-14272024D01*
X4367338Y-14272024D02*
X4348291Y-14272024D01*
X4348291Y-14272024D02*
X4329243Y-14262500D01*
X4329243Y-14262500D02*
X4319719Y-14252976D01*
X4319719Y-14252976D02*
X4310195Y-14233928D01*
X4310195Y-14233928D02*
X4300672Y-14195833D01*
X4300672Y-14195833D02*
X4300672Y-14148214D01*
X4300672Y-14148214D02*
X4310195Y-14110119D01*
X4310195Y-14110119D02*
X4319719Y-14091071D01*
X4319719Y-14091071D02*
X4329243Y-14081548D01*
X4329243Y-14081548D02*
X4348291Y-14072024D01*
X4586386Y-14072024D02*
X4548291Y-14072024D01*
X4548291Y-14072024D02*
X4529243Y-14081548D01*
X4529243Y-14081548D02*
X4519719Y-14091071D01*
X4519719Y-14091071D02*
X4500672Y-14119643D01*
X4500672Y-14119643D02*
X4491148Y-14157738D01*
X4491148Y-14157738D02*
X4491148Y-14233928D01*
X4491148Y-14233928D02*
X4500672Y-14252976D01*
X4500672Y-14252976D02*
X4510195Y-14262500D01*
X4510195Y-14262500D02*
X4529243Y-14272024D01*
X4529243Y-14272024D02*
X4567338Y-14272024D01*
X4567338Y-14272024D02*
X4586386Y-14262500D01*
X4586386Y-14262500D02*
X4595910Y-14252976D01*
X4595910Y-14252976D02*
X4605434Y-14233928D01*
X4605434Y-14233928D02*
X4605434Y-14186309D01*
X4605434Y-14186309D02*
X4595910Y-14167262D01*
X4595910Y-14167262D02*
X4586386Y-14157738D01*
X4586386Y-14157738D02*
X4567338Y-14148214D01*
X4567338Y-14148214D02*
X4529243Y-14148214D01*
X4529243Y-14148214D02*
X4510195Y-14157738D01*
X4510195Y-14157738D02*
X4500672Y-14167262D01*
X4500672Y-14167262D02*
X4491148Y-14186309D01*
X4776862Y-14072024D02*
X4738767Y-14072024D01*
X4738767Y-14072024D02*
X4719719Y-14081548D01*
X4719719Y-14081548D02*
X4710195Y-14091071D01*
X4710195Y-14091071D02*
X4691148Y-14119643D01*
X4691148Y-14119643D02*
X4681624Y-14157738D01*
X4681624Y-14157738D02*
X4681624Y-14233928D01*
X4681624Y-14233928D02*
X4691148Y-14252976D01*
X4691148Y-14252976D02*
X4700672Y-14262500D01*
X4700672Y-14262500D02*
X4719719Y-14272024D01*
X4719719Y-14272024D02*
X4757815Y-14272024D01*
X4757815Y-14272024D02*
X4776862Y-14262500D01*
X4776862Y-14262500D02*
X4786386Y-14252976D01*
X4786386Y-14252976D02*
X4795910Y-14233928D01*
X4795910Y-14233928D02*
X4795910Y-14186309D01*
X4795910Y-14186309D02*
X4786386Y-14167262D01*
X4786386Y-14167262D02*
X4776862Y-14157738D01*
X4776862Y-14157738D02*
X4757815Y-14148214D01*
X4757815Y-14148214D02*
X4719719Y-14148214D01*
X4719719Y-14148214D02*
X4700672Y-14157738D01*
X4700672Y-14157738D02*
X4691148Y-14167262D01*
X4691148Y-14167262D02*
X4681624Y-14186309D01*
X4891148Y-14272024D02*
X4929243Y-14272024D01*
X4929243Y-14272024D02*
X4948291Y-14262500D01*
X4948291Y-14262500D02*
X4957815Y-14252976D01*
X4957815Y-14252976D02*
X4976862Y-14224405D01*
X4976862Y-14224405D02*
X4986386Y-14186309D01*
X4986386Y-14186309D02*
X4986386Y-14110119D01*
X4986386Y-14110119D02*
X4976862Y-14091071D01*
X4976862Y-14091071D02*
X4967338Y-14081548D01*
X4967338Y-14081548D02*
X4948291Y-14072024D01*
X4948291Y-14072024D02*
X4910195Y-14072024D01*
X4910195Y-14072024D02*
X4891148Y-14081548D01*
X4891148Y-14081548D02*
X4881624Y-14091071D01*
X4881624Y-14091071D02*
X4872100Y-14110119D01*
X4872100Y-14110119D02*
X4872100Y-14157738D01*
X4872100Y-14157738D02*
X4881624Y-14176786D01*
X4881624Y-14176786D02*
X4891148Y-14186309D01*
X4891148Y-14186309D02*
X4910195Y-14195833D01*
X4910195Y-14195833D02*
X4948291Y-14195833D01*
X4948291Y-14195833D02*
X4967338Y-14186309D01*
X4967338Y-14186309D02*
X4976862Y-14176786D01*
X4976862Y-14176786D02*
X4986386Y-14157738D01*
X5062576Y-14072024D02*
X5062576Y-14110119D01*
X5138767Y-14072024D02*
X5138767Y-14110119D01*
X5434005Y-14348214D02*
X5424481Y-14338690D01*
X5424481Y-14338690D02*
X5405434Y-14310119D01*
X5405434Y-14310119D02*
X5395910Y-14291071D01*
X5395910Y-14291071D02*
X5386386Y-14262500D01*
X5386386Y-14262500D02*
X5376862Y-14214881D01*
X5376862Y-14214881D02*
X5376862Y-14176786D01*
X5376862Y-14176786D02*
X5386386Y-14129167D01*
X5386386Y-14129167D02*
X5395910Y-14100595D01*
X5395910Y-14100595D02*
X5405434Y-14081548D01*
X5405434Y-14081548D02*
X5424481Y-14052976D01*
X5424481Y-14052976D02*
X5434005Y-14043452D01*
X5595910Y-14138690D02*
X5595910Y-14272024D01*
X5548291Y-14062500D02*
X5500672Y-14205357D01*
X5500672Y-14205357D02*
X5624481Y-14205357D01*
X5853053Y-14272024D02*
X5853053Y-14072024D01*
X5938767Y-14272024D02*
X5938767Y-14167262D01*
X5938767Y-14167262D02*
X5929243Y-14148214D01*
X5929243Y-14148214D02*
X5910196Y-14138690D01*
X5910196Y-14138690D02*
X5881624Y-14138690D01*
X5881624Y-14138690D02*
X5862576Y-14148214D01*
X5862576Y-14148214D02*
X5853053Y-14157738D01*
X6062576Y-14272024D02*
X6043529Y-14262500D01*
X6043529Y-14262500D02*
X6034005Y-14252976D01*
X6034005Y-14252976D02*
X6024481Y-14233928D01*
X6024481Y-14233928D02*
X6024481Y-14176786D01*
X6024481Y-14176786D02*
X6034005Y-14157738D01*
X6034005Y-14157738D02*
X6043529Y-14148214D01*
X6043529Y-14148214D02*
X6062576Y-14138690D01*
X6062576Y-14138690D02*
X6091148Y-14138690D01*
X6091148Y-14138690D02*
X6110196Y-14148214D01*
X6110196Y-14148214D02*
X6119719Y-14157738D01*
X6119719Y-14157738D02*
X6129243Y-14176786D01*
X6129243Y-14176786D02*
X6129243Y-14233928D01*
X6129243Y-14233928D02*
X6119719Y-14252976D01*
X6119719Y-14252976D02*
X6110196Y-14262500D01*
X6110196Y-14262500D02*
X6091148Y-14272024D01*
X6091148Y-14272024D02*
X6062576Y-14272024D01*
X6243529Y-14272024D02*
X6224481Y-14262500D01*
X6224481Y-14262500D02*
X6214957Y-14243452D01*
X6214957Y-14243452D02*
X6214957Y-14072024D01*
X6395910Y-14262500D02*
X6376862Y-14272024D01*
X6376862Y-14272024D02*
X6338767Y-14272024D01*
X6338767Y-14272024D02*
X6319719Y-14262500D01*
X6319719Y-14262500D02*
X6310196Y-14243452D01*
X6310196Y-14243452D02*
X6310196Y-14167262D01*
X6310196Y-14167262D02*
X6319719Y-14148214D01*
X6319719Y-14148214D02*
X6338767Y-14138690D01*
X6338767Y-14138690D02*
X6376862Y-14138690D01*
X6376862Y-14138690D02*
X6395910Y-14148214D01*
X6395910Y-14148214D02*
X6405434Y-14167262D01*
X6405434Y-14167262D02*
X6405434Y-14186309D01*
X6405434Y-14186309D02*
X6310196Y-14205357D01*
X6481624Y-14262500D02*
X6500672Y-14272024D01*
X6500672Y-14272024D02*
X6538767Y-14272024D01*
X6538767Y-14272024D02*
X6557815Y-14262500D01*
X6557815Y-14262500D02*
X6567338Y-14243452D01*
X6567338Y-14243452D02*
X6567338Y-14233928D01*
X6567338Y-14233928D02*
X6557815Y-14214881D01*
X6557815Y-14214881D02*
X6538767Y-14205357D01*
X6538767Y-14205357D02*
X6510196Y-14205357D01*
X6510196Y-14205357D02*
X6491148Y-14195833D01*
X6491148Y-14195833D02*
X6481624Y-14176786D01*
X6481624Y-14176786D02*
X6481624Y-14167262D01*
X6481624Y-14167262D02*
X6491148Y-14148214D01*
X6491148Y-14148214D02*
X6510196Y-14138690D01*
X6510196Y-14138690D02*
X6538767Y-14138690D01*
X6538767Y-14138690D02*
X6557815Y-14148214D01*
X6634005Y-14348214D02*
X6643529Y-14338690D01*
X6643529Y-14338690D02*
X6662577Y-14310119D01*
X6662577Y-14310119D02*
X6672100Y-14291071D01*
X6672100Y-14291071D02*
X6681624Y-14262500D01*
X6681624Y-14262500D02*
X6691148Y-14214881D01*
X6691148Y-14214881D02*
X6691148Y-14176786D01*
X6691148Y-14176786D02*
X6681624Y-14129167D01*
X6681624Y-14129167D02*
X6672100Y-14100595D01*
X6672100Y-14100595D02*
X6662577Y-14081548D01*
X6662577Y-14081548D02*
X6643529Y-14052976D01*
X6643529Y-14052976D02*
X6634005Y-14043452D01*
X1672100Y-14369500D02*
X1872100Y-14569500D01*
X1872100Y-14369500D02*
X1672100Y-14569500D01*
X1772100Y-14569500D02*
X1872100Y-14469500D01*
X1772100Y-14369500D01*
X1672100Y-14469500D01*
X1772100Y-14569500D01*
X2110195Y-14381071D02*
X2119719Y-14371548D01*
X2119719Y-14371548D02*
X2138767Y-14362024D01*
X2138767Y-14362024D02*
X2186386Y-14362024D01*
X2186386Y-14362024D02*
X2205433Y-14371548D01*
X2205433Y-14371548D02*
X2214957Y-14381071D01*
X2214957Y-14381071D02*
X2224481Y-14400119D01*
X2224481Y-14400119D02*
X2224481Y-14419167D01*
X2224481Y-14419167D02*
X2214957Y-14447738D01*
X2214957Y-14447738D02*
X2100671Y-14562024D01*
X2100671Y-14562024D02*
X2224481Y-14562024D01*
X2310195Y-14542976D02*
X2319719Y-14552500D01*
X2319719Y-14552500D02*
X2310195Y-14562024D01*
X2310195Y-14562024D02*
X2300671Y-14552500D01*
X2300671Y-14552500D02*
X2310195Y-14542976D01*
X2310195Y-14542976D02*
X2310195Y-14562024D01*
X2491148Y-14362024D02*
X2453052Y-14362024D01*
X2453052Y-14362024D02*
X2434005Y-14371548D01*
X2434005Y-14371548D02*
X2424481Y-14381071D01*
X2424481Y-14381071D02*
X2405433Y-14409643D01*
X2405433Y-14409643D02*
X2395910Y-14447738D01*
X2395910Y-14447738D02*
X2395910Y-14523928D01*
X2395910Y-14523928D02*
X2405433Y-14542976D01*
X2405433Y-14542976D02*
X2414957Y-14552500D01*
X2414957Y-14552500D02*
X2434005Y-14562024D01*
X2434005Y-14562024D02*
X2472100Y-14562024D01*
X2472100Y-14562024D02*
X2491148Y-14552500D01*
X2491148Y-14552500D02*
X2500671Y-14542976D01*
X2500671Y-14542976D02*
X2510195Y-14523928D01*
X2510195Y-14523928D02*
X2510195Y-14476309D01*
X2510195Y-14476309D02*
X2500671Y-14457262D01*
X2500671Y-14457262D02*
X2491148Y-14447738D01*
X2491148Y-14447738D02*
X2472100Y-14438214D01*
X2472100Y-14438214D02*
X2434005Y-14438214D01*
X2434005Y-14438214D02*
X2414957Y-14447738D01*
X2414957Y-14447738D02*
X2405433Y-14457262D01*
X2405433Y-14457262D02*
X2395910Y-14476309D01*
X2634005Y-14362024D02*
X2653052Y-14362024D01*
X2653052Y-14362024D02*
X2672100Y-14371548D01*
X2672100Y-14371548D02*
X2681624Y-14381071D01*
X2681624Y-14381071D02*
X2691148Y-14400119D01*
X2691148Y-14400119D02*
X2700671Y-14438214D01*
X2700671Y-14438214D02*
X2700671Y-14485833D01*
X2700671Y-14485833D02*
X2691148Y-14523928D01*
X2691148Y-14523928D02*
X2681624Y-14542976D01*
X2681624Y-14542976D02*
X2672100Y-14552500D01*
X2672100Y-14552500D02*
X2653052Y-14562024D01*
X2653052Y-14562024D02*
X2634005Y-14562024D01*
X2634005Y-14562024D02*
X2614957Y-14552500D01*
X2614957Y-14552500D02*
X2605433Y-14542976D01*
X2605433Y-14542976D02*
X2595910Y-14523928D01*
X2595910Y-14523928D02*
X2586386Y-14485833D01*
X2586386Y-14485833D02*
X2586386Y-14438214D01*
X2586386Y-14438214D02*
X2595910Y-14400119D01*
X2595910Y-14400119D02*
X2605433Y-14381071D01*
X2605433Y-14381071D02*
X2614957Y-14371548D01*
X2614957Y-14371548D02*
X2634005Y-14362024D01*
X2824481Y-14362024D02*
X2843529Y-14362024D01*
X2843529Y-14362024D02*
X2862576Y-14371548D01*
X2862576Y-14371548D02*
X2872100Y-14381071D01*
X2872100Y-14381071D02*
X2881624Y-14400119D01*
X2881624Y-14400119D02*
X2891148Y-14438214D01*
X2891148Y-14438214D02*
X2891148Y-14485833D01*
X2891148Y-14485833D02*
X2881624Y-14523928D01*
X2881624Y-14523928D02*
X2872100Y-14542976D01*
X2872100Y-14542976D02*
X2862576Y-14552500D01*
X2862576Y-14552500D02*
X2843529Y-14562024D01*
X2843529Y-14562024D02*
X2824481Y-14562024D01*
X2824481Y-14562024D02*
X2805433Y-14552500D01*
X2805433Y-14552500D02*
X2795910Y-14542976D01*
X2795910Y-14542976D02*
X2786386Y-14523928D01*
X2786386Y-14523928D02*
X2776862Y-14485833D01*
X2776862Y-14485833D02*
X2776862Y-14438214D01*
X2776862Y-14438214D02*
X2786386Y-14400119D01*
X2786386Y-14400119D02*
X2795910Y-14381071D01*
X2795910Y-14381071D02*
X2805433Y-14371548D01*
X2805433Y-14371548D02*
X2824481Y-14362024D01*
X2976862Y-14562024D02*
X2976862Y-14428690D01*
X2976862Y-14447738D02*
X2986386Y-14438214D01*
X2986386Y-14438214D02*
X3005433Y-14428690D01*
X3005433Y-14428690D02*
X3034005Y-14428690D01*
X3034005Y-14428690D02*
X3053052Y-14438214D01*
X3053052Y-14438214D02*
X3062576Y-14457262D01*
X3062576Y-14457262D02*
X3062576Y-14562024D01*
X3062576Y-14457262D02*
X3072100Y-14438214D01*
X3072100Y-14438214D02*
X3091148Y-14428690D01*
X3091148Y-14428690D02*
X3119719Y-14428690D01*
X3119719Y-14428690D02*
X3138767Y-14438214D01*
X3138767Y-14438214D02*
X3148290Y-14457262D01*
X3148290Y-14457262D02*
X3148290Y-14562024D01*
X3243529Y-14562024D02*
X3243529Y-14428690D01*
X3243529Y-14447738D02*
X3253052Y-14438214D01*
X3253052Y-14438214D02*
X3272100Y-14428690D01*
X3272100Y-14428690D02*
X3300671Y-14428690D01*
X3300671Y-14428690D02*
X3319719Y-14438214D01*
X3319719Y-14438214D02*
X3329243Y-14457262D01*
X3329243Y-14457262D02*
X3329243Y-14562024D01*
X3329243Y-14457262D02*
X3338767Y-14438214D01*
X3338767Y-14438214D02*
X3357814Y-14428690D01*
X3357814Y-14428690D02*
X3386386Y-14428690D01*
X3386386Y-14428690D02*
X3405433Y-14438214D01*
X3405433Y-14438214D02*
X3414957Y-14457262D01*
X3414957Y-14457262D02*
X3414957Y-14562024D01*
X3805433Y-14352500D02*
X3634005Y-14609643D01*
X4062576Y-14362024D02*
X4081624Y-14362024D01*
X4081624Y-14362024D02*
X4100672Y-14371548D01*
X4100672Y-14371548D02*
X4110195Y-14381071D01*
X4110195Y-14381071D02*
X4119719Y-14400119D01*
X4119719Y-14400119D02*
X4129243Y-14438214D01*
X4129243Y-14438214D02*
X4129243Y-14485833D01*
X4129243Y-14485833D02*
X4119719Y-14523928D01*
X4119719Y-14523928D02*
X4110195Y-14542976D01*
X4110195Y-14542976D02*
X4100672Y-14552500D01*
X4100672Y-14552500D02*
X4081624Y-14562024D01*
X4081624Y-14562024D02*
X4062576Y-14562024D01*
X4062576Y-14562024D02*
X4043529Y-14552500D01*
X4043529Y-14552500D02*
X4034005Y-14542976D01*
X4034005Y-14542976D02*
X4024481Y-14523928D01*
X4024481Y-14523928D02*
X4014957Y-14485833D01*
X4014957Y-14485833D02*
X4014957Y-14438214D01*
X4014957Y-14438214D02*
X4024481Y-14400119D01*
X4024481Y-14400119D02*
X4034005Y-14381071D01*
X4034005Y-14381071D02*
X4043529Y-14371548D01*
X4043529Y-14371548D02*
X4062576Y-14362024D01*
X4214957Y-14542976D02*
X4224481Y-14552500D01*
X4224481Y-14552500D02*
X4214957Y-14562024D01*
X4214957Y-14562024D02*
X4205434Y-14552500D01*
X4205434Y-14552500D02*
X4214957Y-14542976D01*
X4214957Y-14542976D02*
X4214957Y-14562024D01*
X4414957Y-14562024D02*
X4300672Y-14562024D01*
X4357814Y-14562024D02*
X4357814Y-14362024D01*
X4357814Y-14362024D02*
X4338767Y-14390595D01*
X4338767Y-14390595D02*
X4319719Y-14409643D01*
X4319719Y-14409643D02*
X4300672Y-14419167D01*
X4538767Y-14362024D02*
X4557815Y-14362024D01*
X4557815Y-14362024D02*
X4576862Y-14371548D01*
X4576862Y-14371548D02*
X4586386Y-14381071D01*
X4586386Y-14381071D02*
X4595910Y-14400119D01*
X4595910Y-14400119D02*
X4605434Y-14438214D01*
X4605434Y-14438214D02*
X4605434Y-14485833D01*
X4605434Y-14485833D02*
X4595910Y-14523928D01*
X4595910Y-14523928D02*
X4586386Y-14542976D01*
X4586386Y-14542976D02*
X4576862Y-14552500D01*
X4576862Y-14552500D02*
X4557815Y-14562024D01*
X4557815Y-14562024D02*
X4538767Y-14562024D01*
X4538767Y-14562024D02*
X4519719Y-14552500D01*
X4519719Y-14552500D02*
X4510195Y-14542976D01*
X4510195Y-14542976D02*
X4500672Y-14523928D01*
X4500672Y-14523928D02*
X4491148Y-14485833D01*
X4491148Y-14485833D02*
X4491148Y-14438214D01*
X4491148Y-14438214D02*
X4500672Y-14400119D01*
X4500672Y-14400119D02*
X4510195Y-14381071D01*
X4510195Y-14381071D02*
X4519719Y-14371548D01*
X4519719Y-14371548D02*
X4538767Y-14362024D01*
X4681624Y-14381071D02*
X4691148Y-14371548D01*
X4691148Y-14371548D02*
X4710195Y-14362024D01*
X4710195Y-14362024D02*
X4757815Y-14362024D01*
X4757815Y-14362024D02*
X4776862Y-14371548D01*
X4776862Y-14371548D02*
X4786386Y-14381071D01*
X4786386Y-14381071D02*
X4795910Y-14400119D01*
X4795910Y-14400119D02*
X4795910Y-14419167D01*
X4795910Y-14419167D02*
X4786386Y-14447738D01*
X4786386Y-14447738D02*
X4672100Y-14562024D01*
X4672100Y-14562024D02*
X4795910Y-14562024D01*
X4967338Y-14428690D02*
X4967338Y-14562024D01*
X4919719Y-14352500D02*
X4872100Y-14495357D01*
X4872100Y-14495357D02*
X4995910Y-14495357D01*
X5062576Y-14362024D02*
X5062576Y-14400119D01*
X5138767Y-14362024D02*
X5138767Y-14400119D01*
X5434005Y-14638214D02*
X5424481Y-14628690D01*
X5424481Y-14628690D02*
X5405434Y-14600119D01*
X5405434Y-14600119D02*
X5395910Y-14581071D01*
X5395910Y-14581071D02*
X5386386Y-14552500D01*
X5386386Y-14552500D02*
X5376862Y-14504881D01*
X5376862Y-14504881D02*
X5376862Y-14466786D01*
X5376862Y-14466786D02*
X5386386Y-14419167D01*
X5386386Y-14419167D02*
X5395910Y-14390595D01*
X5395910Y-14390595D02*
X5405434Y-14371548D01*
X5405434Y-14371548D02*
X5424481Y-14342976D01*
X5424481Y-14342976D02*
X5434005Y-14333452D01*
X5614957Y-14562024D02*
X5500672Y-14562024D01*
X5557815Y-14562024D02*
X5557815Y-14362024D01*
X5557815Y-14362024D02*
X5538767Y-14390595D01*
X5538767Y-14390595D02*
X5519719Y-14409643D01*
X5519719Y-14409643D02*
X5500672Y-14419167D01*
X5691148Y-14381071D02*
X5700672Y-14371548D01*
X5700672Y-14371548D02*
X5719719Y-14362024D01*
X5719719Y-14362024D02*
X5767338Y-14362024D01*
X5767338Y-14362024D02*
X5786386Y-14371548D01*
X5786386Y-14371548D02*
X5795910Y-14381071D01*
X5795910Y-14381071D02*
X5805434Y-14400119D01*
X5805434Y-14400119D02*
X5805434Y-14419167D01*
X5805434Y-14419167D02*
X5795910Y-14447738D01*
X5795910Y-14447738D02*
X5681624Y-14562024D01*
X5681624Y-14562024D02*
X5805434Y-14562024D01*
X6043529Y-14562024D02*
X6043529Y-14362024D01*
X6129243Y-14562024D02*
X6129243Y-14457262D01*
X6129243Y-14457262D02*
X6119719Y-14438214D01*
X6119719Y-14438214D02*
X6100672Y-14428690D01*
X6100672Y-14428690D02*
X6072100Y-14428690D01*
X6072100Y-14428690D02*
X6053053Y-14438214D01*
X6053053Y-14438214D02*
X6043529Y-14447738D01*
X6253053Y-14562024D02*
X6234005Y-14552500D01*
X6234005Y-14552500D02*
X6224481Y-14542976D01*
X6224481Y-14542976D02*
X6214957Y-14523928D01*
X6214957Y-14523928D02*
X6214957Y-14466786D01*
X6214957Y-14466786D02*
X6224481Y-14447738D01*
X6224481Y-14447738D02*
X6234005Y-14438214D01*
X6234005Y-14438214D02*
X6253053Y-14428690D01*
X6253053Y-14428690D02*
X6281624Y-14428690D01*
X6281624Y-14428690D02*
X6300672Y-14438214D01*
X6300672Y-14438214D02*
X6310196Y-14447738D01*
X6310196Y-14447738D02*
X6319719Y-14466786D01*
X6319719Y-14466786D02*
X6319719Y-14523928D01*
X6319719Y-14523928D02*
X6310196Y-14542976D01*
X6310196Y-14542976D02*
X6300672Y-14552500D01*
X6300672Y-14552500D02*
X6281624Y-14562024D01*
X6281624Y-14562024D02*
X6253053Y-14562024D01*
X6434005Y-14562024D02*
X6414957Y-14552500D01*
X6414957Y-14552500D02*
X6405434Y-14533452D01*
X6405434Y-14533452D02*
X6405434Y-14362024D01*
X6586386Y-14552500D02*
X6567338Y-14562024D01*
X6567338Y-14562024D02*
X6529243Y-14562024D01*
X6529243Y-14562024D02*
X6510196Y-14552500D01*
X6510196Y-14552500D02*
X6500672Y-14533452D01*
X6500672Y-14533452D02*
X6500672Y-14457262D01*
X6500672Y-14457262D02*
X6510196Y-14438214D01*
X6510196Y-14438214D02*
X6529243Y-14428690D01*
X6529243Y-14428690D02*
X6567338Y-14428690D01*
X6567338Y-14428690D02*
X6586386Y-14438214D01*
X6586386Y-14438214D02*
X6595910Y-14457262D01*
X6595910Y-14457262D02*
X6595910Y-14476309D01*
X6595910Y-14476309D02*
X6500672Y-14495357D01*
X6672100Y-14552500D02*
X6691148Y-14562024D01*
X6691148Y-14562024D02*
X6729243Y-14562024D01*
X6729243Y-14562024D02*
X6748291Y-14552500D01*
X6748291Y-14552500D02*
X6757815Y-14533452D01*
X6757815Y-14533452D02*
X6757815Y-14523928D01*
X6757815Y-14523928D02*
X6748291Y-14504881D01*
X6748291Y-14504881D02*
X6729243Y-14495357D01*
X6729243Y-14495357D02*
X6700672Y-14495357D01*
X6700672Y-14495357D02*
X6681624Y-14485833D01*
X6681624Y-14485833D02*
X6672100Y-14466786D01*
X6672100Y-14466786D02*
X6672100Y-14457262D01*
X6672100Y-14457262D02*
X6681624Y-14438214D01*
X6681624Y-14438214D02*
X6700672Y-14428690D01*
X6700672Y-14428690D02*
X6729243Y-14428690D01*
X6729243Y-14428690D02*
X6748291Y-14438214D01*
X6824481Y-14638214D02*
X6834005Y-14628690D01*
X6834005Y-14628690D02*
X6853053Y-14600119D01*
X6853053Y-14600119D02*
X6862577Y-14581071D01*
X6862577Y-14581071D02*
X6872100Y-14552500D01*
X6872100Y-14552500D02*
X6881624Y-14504881D01*
X6881624Y-14504881D02*
X6881624Y-14466786D01*
X6881624Y-14466786D02*
X6872100Y-14419167D01*
X6872100Y-14419167D02*
X6862577Y-14390595D01*
X6862577Y-14390595D02*
X6853053Y-14371548D01*
X6853053Y-14371548D02*
X6834005Y-14342976D01*
X6834005Y-14342976D02*
X6824481Y-14333452D01*
M02*
