G04 #@! TF.GenerationSoftware,KiCad,Pcbnew,7.0.1*
G04 #@! TF.CreationDate,2024-01-30T15:52:28+01:00*
G04 #@! TF.ProjectId,smd_aio,736d645f-6169-46f2-9e6b-696361645f70,rev?*
G04 #@! TF.SameCoordinates,Original*
G04 #@! TF.FileFunction,Legend,Bot*
G04 #@! TF.FilePolarity,Positive*
%FSLAX46Y46*%
G04 Gerber Fmt 4.6, Leading zero omitted, Abs format (unit mm)*
G04 Created by KiCad (PCBNEW 7.0.1) date 2024-01-30 15:52:28*
%MOMM*%
%LPD*%
G01*
G04 APERTURE LIST*
%ADD10C,1.200000*%
%ADD11R,1.300000X1.300000*%
%ADD12C,1.300000*%
%ADD13O,3.000000X2.300000*%
%ADD14O,4.000000X3.200000*%
%ADD15O,3.200000X4.000000*%
%ADD16C,1.400000*%
%ADD17R,2.032000X1.727200*%
%ADD18O,2.032000X1.727200*%
%ADD19R,1.727200X1.727200*%
%ADD20O,1.727200X1.727200*%
%ADD21R,2.540000X2.540000*%
%ADD22C,2.540000*%
%ADD23C,2.100000*%
%ADD24C,1.600000*%
%ADD25C,2.000000*%
G04 APERTURE END LIST*
%LPC*%
D10*
X78994000Y-49784000D03*
X76454000Y-52324000D03*
X76454000Y-49824000D03*
X73914000Y-49784000D03*
X79502000Y-21082000D03*
X76962000Y-23622000D03*
X76962000Y-21122000D03*
X74422000Y-21082000D03*
D11*
X74676000Y-91186000D03*
D12*
X74676000Y-89186000D03*
D11*
X96401000Y-110213000D03*
D12*
X98401000Y-110213000D03*
D11*
X121158000Y-90678000D03*
D12*
X123158000Y-90678000D03*
D11*
X106680000Y-88392000D03*
D12*
X108680000Y-88392000D03*
D11*
X164601000Y-94263000D03*
D12*
X166601000Y-94263000D03*
D11*
X164051000Y-108313000D03*
D12*
X166051000Y-108313000D03*
D11*
X141626000Y-58838000D03*
D12*
X141626000Y-56838000D03*
D11*
X137551000Y-80613000D03*
D12*
X137551000Y-82613000D03*
D11*
X144201000Y-80613000D03*
D12*
X144201000Y-82613000D03*
D13*
X171601000Y-88913000D03*
D14*
X171601000Y-83913000D03*
D15*
X176101000Y-88913000D03*
D14*
X171601000Y-93913000D03*
D13*
X171626000Y-103413000D03*
D14*
X171626000Y-98413000D03*
D15*
X176126000Y-103413000D03*
D14*
X171626000Y-108413000D03*
D16*
X50626000Y-50063000D03*
X43626000Y-46463000D03*
X50651000Y-41988000D03*
X43651000Y-38388000D03*
X50670000Y-33930000D03*
X43670000Y-30330000D03*
X50670000Y-25850000D03*
X43670000Y-22250000D03*
X50688000Y-83610000D03*
X43688000Y-80010000D03*
X50744000Y-75206000D03*
X43744000Y-71606000D03*
X50744000Y-66824000D03*
X43744000Y-63224000D03*
X50744000Y-58442000D03*
X43744000Y-54842000D03*
D17*
X128778000Y-96774000D03*
D18*
X128778000Y-94234000D03*
X128778000Y-91694000D03*
X128778000Y-89154000D03*
D17*
X85090000Y-107950000D03*
D18*
X85090000Y-110490000D03*
X85090000Y-113030000D03*
D19*
X127254000Y-24892000D03*
D20*
X127254000Y-22352000D03*
X129794000Y-24892000D03*
X129794000Y-22352000D03*
X132334000Y-24892000D03*
X132334000Y-22352000D03*
X134874000Y-24892000D03*
X134874000Y-22352000D03*
X137414000Y-24892000D03*
X137414000Y-22352000D03*
D19*
X121076000Y-110438000D03*
D20*
X121076000Y-107898000D03*
X123616000Y-110438000D03*
X123616000Y-107898000D03*
X126156000Y-110438000D03*
X126156000Y-107898000D03*
X128696000Y-110438000D03*
X128696000Y-107898000D03*
X131236000Y-110438000D03*
X131236000Y-107898000D03*
X133776000Y-110438000D03*
X133776000Y-107898000D03*
X136316000Y-110438000D03*
X136316000Y-107898000D03*
X138856000Y-110438000D03*
X138856000Y-107898000D03*
D19*
X159512000Y-93980000D03*
D20*
X156972000Y-93980000D03*
X159512000Y-91440000D03*
X156972000Y-91440000D03*
X159512000Y-88900000D03*
X156972000Y-88900000D03*
X159512000Y-86360000D03*
X156972000Y-86360000D03*
D19*
X159526000Y-108438000D03*
D20*
X156986000Y-108438000D03*
X159526000Y-105898000D03*
X156986000Y-105898000D03*
X159526000Y-103358000D03*
X156986000Y-103358000D03*
X159526000Y-100818000D03*
X156986000Y-100818000D03*
D21*
X23851000Y-43173000D03*
D22*
X23851000Y-48253000D03*
D21*
X23851000Y-28573000D03*
D22*
X23851000Y-33653000D03*
D23*
X164876000Y-37663000D03*
X170876000Y-33063000D03*
X164876000Y-28463000D03*
D24*
X166976000Y-30523000D03*
X166976000Y-33063000D03*
X166976000Y-35603000D03*
D23*
X164651000Y-65163000D03*
X170651000Y-60563000D03*
X164651000Y-55963000D03*
D24*
X166751000Y-58023000D03*
X166751000Y-60563000D03*
X166751000Y-63103000D03*
D21*
X23870000Y-98110000D03*
D22*
X23870000Y-103190000D03*
D21*
X24001000Y-74003000D03*
D22*
X24001000Y-79083000D03*
D21*
X23921000Y-59713000D03*
D22*
X23921000Y-64793000D03*
D25*
X172668000Y-24094000D03*
X166168000Y-24094000D03*
X172668000Y-19594000D03*
X166168000Y-19594000D03*
D11*
X42000000Y-102500000D03*
D12*
X42000000Y-110000000D03*
D19*
X91694000Y-85090000D03*
D20*
X91694000Y-82550000D03*
X94234000Y-85090000D03*
X94234000Y-82550000D03*
X96774000Y-85090000D03*
X96774000Y-82550000D03*
X99314000Y-85090000D03*
X99314000Y-82550000D03*
D13*
X171450000Y-47000000D03*
D14*
X171450000Y-42000000D03*
D15*
X175950000Y-47000000D03*
D14*
X171450000Y-52000000D03*
D13*
X171450000Y-74375000D03*
D14*
X171450000Y-69375000D03*
D15*
X175950000Y-74375000D03*
D14*
X171450000Y-79375000D03*
D17*
X121920000Y-70104000D03*
D18*
X121920000Y-67564000D03*
X121920000Y-65024000D03*
M02*
