G04 #@! TF.GenerationSoftware,KiCad,Pcbnew,7.0.1*
G04 #@! TF.CreationDate,2024-01-30T15:52:28+01:00*
G04 #@! TF.ProjectId,smd_aio,736d645f-6169-46f2-9e6b-696361645f70,rev?*
G04 #@! TF.SameCoordinates,Original*
G04 #@! TF.FileFunction,Paste,Top*
G04 #@! TF.FilePolarity,Positive*
%FSLAX46Y46*%
G04 Gerber Fmt 4.6, Leading zero omitted, Abs format (unit mm)*
G04 Created by KiCad (PCBNEW 7.0.1) date 2024-01-30 15:52:28*
%MOMM*%
%LPD*%
G01*
G04 APERTURE LIST*
G04 Aperture macros list*
%AMRoundRect*
0 Rectangle with rounded corners*
0 $1 Rounding radius*
0 $2 $3 $4 $5 $6 $7 $8 $9 X,Y pos of 4 corners*
0 Add a 4 corners polygon primitive as box body*
4,1,4,$2,$3,$4,$5,$6,$7,$8,$9,$2,$3,0*
0 Add four circle primitives for the rounded corners*
1,1,$1+$1,$2,$3*
1,1,$1+$1,$4,$5*
1,1,$1+$1,$6,$7*
1,1,$1+$1,$8,$9*
0 Add four rect primitives between the rounded corners*
20,1,$1+$1,$2,$3,$4,$5,0*
20,1,$1+$1,$4,$5,$6,$7,0*
20,1,$1+$1,$6,$7,$8,$9,0*
20,1,$1+$1,$8,$9,$2,$3,0*%
G04 Aperture macros list end*
%ADD10C,0.100000*%
%ADD11R,3.352800X3.352800*%
%ADD12R,1.506100X0.279400*%
%ADD13R,0.279400X1.506100*%
%ADD14R,1.503050X0.279400*%
%ADD15R,1.800860X2.499360*%
%ADD16R,1.000000X0.285000*%
%ADD17R,2.000000X1.600000*%
%ADD18R,1.600000X2.000000*%
%ADD19R,2.499360X1.800860*%
%ADD20R,2.000000X1.700000*%
%ADD21R,1.700000X2.000000*%
%ADD22R,1.200000X0.900000*%
%ADD23R,1.250000X1.500000*%
%ADD24R,1.300000X0.250000*%
%ADD25R,0.250000X1.300000*%
%ADD26R,1.550000X0.600000*%
%ADD27R,1.500000X0.600000*%
%ADD28R,0.355600X1.447800*%
%ADD29R,1.100000X0.600000*%
%ADD30R,1.980000X3.000000*%
%ADD31R,1.500000X1.250000*%
%ADD32R,2.650000X3.500000*%
%ADD33R,1.600000X1.000000*%
%ADD34R,1.000000X1.600000*%
%ADD35R,4.670000X4.160000*%
%ADD36R,1.160000X1.460000*%
%ADD37RoundRect,0.125000X0.125000X-0.825000X0.125000X0.825000X-0.125000X0.825000X-0.125000X-0.825000X0*%
%ADD38R,2.000000X1.500000*%
%ADD39R,2.000000X3.800000*%
G04 APERTURE END LIST*
D10*
X77276000Y-35663000D02*
X77276000Y-33863000D01*
X77376000Y-35663000D02*
X77376000Y-33863000D01*
X77476000Y-35663000D02*
X77476000Y-33863000D01*
X77576000Y-35663000D02*
X77576000Y-33863000D01*
X77676000Y-35663000D02*
X77676000Y-33863000D01*
X77776000Y-35663000D02*
X77776000Y-33863000D01*
X77876000Y-35663000D02*
X77876000Y-33863000D01*
X77976000Y-35663000D02*
X77976000Y-33863000D01*
X78076000Y-35663000D02*
X78076000Y-33863000D01*
X78176000Y-35663000D02*
X78176000Y-33863000D01*
X78276000Y-35663000D02*
X78276000Y-33863000D01*
X78376000Y-35663000D02*
X78376000Y-33863000D01*
X78476000Y-35663000D02*
X78476000Y-33863000D01*
X78576000Y-35663000D02*
X78576000Y-33863000D01*
X77276000Y-37913000D02*
X77276000Y-36163000D01*
X77376000Y-37913000D02*
X77376000Y-36163000D01*
X77476000Y-37913000D02*
X77476000Y-36163000D01*
X77576000Y-37913000D02*
X77576000Y-36163000D01*
X77676000Y-37913000D02*
X77676000Y-36163000D01*
X77776000Y-37913000D02*
X77776000Y-36163000D01*
X77876000Y-37913000D02*
X77876000Y-36163000D01*
X77976000Y-37913000D02*
X77976000Y-36163000D01*
X78076000Y-37913000D02*
X78076000Y-36213000D01*
X78176000Y-37913000D02*
X78176000Y-36163000D01*
X78276000Y-37913000D02*
X78276000Y-36163000D01*
X78376000Y-37913000D02*
X78376000Y-36163000D01*
X78476000Y-37913000D02*
X78476000Y-36163000D01*
X78576000Y-37913000D02*
X78576000Y-36163000D01*
X77176000Y-36163000D02*
X78676000Y-36163000D01*
X77176000Y-37913000D02*
X77176000Y-36163000D01*
X78676000Y-37913000D02*
X77176000Y-37913000D01*
X78676000Y-36163000D02*
X78676000Y-37913000D01*
X77176000Y-33863000D02*
X78676000Y-33863000D01*
X78676000Y-35663000D02*
X77176000Y-35663000D01*
X77176000Y-35663000D02*
X77176000Y-33863000D01*
X78676000Y-33863000D02*
X78676000Y-35663000D01*
X78476000Y-33363000D02*
X78476000Y-31613000D01*
X78076000Y-33363000D02*
X78076000Y-31663000D01*
X77976000Y-33363000D02*
X77976000Y-31613000D01*
X77876000Y-33363000D02*
X77876000Y-31613000D01*
X77776000Y-33363000D02*
X77776000Y-31613000D01*
X77676000Y-33363000D02*
X77676000Y-31613000D01*
X77576000Y-33363000D02*
X77576000Y-31613000D01*
X77476000Y-33363000D02*
X77476000Y-31613000D01*
X77176000Y-31613000D02*
X78676000Y-31613000D01*
X78676000Y-31613000D02*
X78676000Y-33363000D01*
X78576000Y-33363000D02*
X78576000Y-31613000D01*
X77376000Y-33363000D02*
X77376000Y-31613000D01*
X77276000Y-33363000D02*
X77276000Y-31613000D01*
X77176000Y-33363000D02*
X77176000Y-31613000D01*
X78676000Y-33363000D02*
X77176000Y-33363000D01*
X78376000Y-33363000D02*
X78376000Y-31613000D01*
X78276000Y-33363000D02*
X78276000Y-31613000D01*
X78176000Y-33363000D02*
X78176000Y-31613000D01*
X76476000Y-35663000D02*
X76476000Y-33863000D01*
X76076000Y-35663000D02*
X76076000Y-33863000D01*
X75976000Y-35663000D02*
X75976000Y-33863000D01*
X75876000Y-35663000D02*
X75876000Y-33863000D01*
X75176000Y-31613000D02*
X76676000Y-31613000D01*
X76676000Y-31613000D02*
X76676000Y-33363000D01*
X76476000Y-33363000D02*
X76476000Y-31613000D01*
X76376000Y-33363000D02*
X76376000Y-31613000D01*
X75676000Y-33363000D02*
X75676000Y-31613000D01*
X75576000Y-33363000D02*
X75576000Y-31613000D01*
X75276000Y-33363000D02*
X75276000Y-31613000D01*
X75376000Y-33363000D02*
X75376000Y-31613000D01*
X75476000Y-33363000D02*
X75476000Y-31613000D01*
X75176000Y-33363000D02*
X75176000Y-31613000D01*
X76676000Y-33363000D02*
X75176000Y-33363000D01*
X76576000Y-33363000D02*
X76576000Y-31613000D01*
X76276000Y-33363000D02*
X76276000Y-31613000D01*
X75776000Y-33363000D02*
X75776000Y-31613000D01*
X75976000Y-33363000D02*
X75976000Y-31613000D01*
X76076000Y-33363000D02*
X76076000Y-31663000D01*
X75876000Y-33363000D02*
X75876000Y-31613000D01*
X76176000Y-33363000D02*
X76176000Y-31613000D01*
X75176000Y-35663000D02*
X75176000Y-33863000D01*
X75176000Y-33863000D02*
X76676000Y-33863000D01*
X76676000Y-33863000D02*
X76676000Y-35663000D01*
X76576000Y-35663000D02*
X76576000Y-33863000D01*
X75376000Y-35663000D02*
X75376000Y-33863000D01*
X75276000Y-35663000D02*
X75276000Y-33863000D01*
X76676000Y-35663000D02*
X75176000Y-35663000D01*
X76376000Y-35663000D02*
X76376000Y-33863000D01*
X76276000Y-35663000D02*
X76276000Y-33863000D01*
X76176000Y-35663000D02*
X76176000Y-33863000D01*
X75776000Y-35663000D02*
X75776000Y-33863000D01*
X75676000Y-35663000D02*
X75676000Y-33863000D01*
X75576000Y-35663000D02*
X75576000Y-33863000D01*
X75476000Y-35663000D02*
X75476000Y-33863000D01*
X76676000Y-37913000D02*
X75176000Y-37913000D01*
X76476000Y-37913000D02*
X76476000Y-36163000D01*
X75276000Y-37913000D02*
X75276000Y-36163000D01*
X75176000Y-37913000D02*
X75176000Y-36163000D01*
X75676000Y-37913000D02*
X75676000Y-36163000D01*
X75376000Y-37913000D02*
X75376000Y-36163000D01*
X75576000Y-37913000D02*
X75576000Y-36163000D01*
X75776000Y-37913000D02*
X75776000Y-36163000D01*
X75476000Y-37913000D02*
X75476000Y-36163000D01*
X75176000Y-36163000D02*
X76676000Y-36163000D01*
X76376000Y-37913000D02*
X76376000Y-36163000D01*
X76676000Y-36163000D02*
X76676000Y-37913000D01*
X76576000Y-37913000D02*
X76576000Y-36163000D01*
X76276000Y-37913000D02*
X76276000Y-36163000D01*
X75876000Y-37913000D02*
X75876000Y-36163000D01*
X75976000Y-37913000D02*
X75976000Y-36163000D01*
X76176000Y-37913000D02*
X76176000Y-36163000D01*
X76076000Y-37913000D02*
X76076000Y-36213000D01*
X77248000Y-68864000D02*
X77248000Y-67064000D01*
X77348000Y-68864000D02*
X77348000Y-67064000D01*
X77448000Y-68864000D02*
X77448000Y-67064000D01*
X77548000Y-68864000D02*
X77548000Y-67064000D01*
X77648000Y-68864000D02*
X77648000Y-67064000D01*
X77748000Y-68864000D02*
X77748000Y-67064000D01*
X77848000Y-68864000D02*
X77848000Y-67064000D01*
X77948000Y-68864000D02*
X77948000Y-67064000D01*
X78048000Y-68864000D02*
X78048000Y-67064000D01*
X78148000Y-68864000D02*
X78148000Y-67064000D01*
X78248000Y-68864000D02*
X78248000Y-67064000D01*
X78348000Y-68864000D02*
X78348000Y-67064000D01*
X78448000Y-68864000D02*
X78448000Y-67064000D01*
X78548000Y-68864000D02*
X78548000Y-67064000D01*
X77248000Y-71114000D02*
X77248000Y-69364000D01*
X77348000Y-71114000D02*
X77348000Y-69364000D01*
X77448000Y-71114000D02*
X77448000Y-69364000D01*
X77548000Y-71114000D02*
X77548000Y-69364000D01*
X77648000Y-71114000D02*
X77648000Y-69364000D01*
X77748000Y-71114000D02*
X77748000Y-69364000D01*
X77848000Y-71114000D02*
X77848000Y-69364000D01*
X77948000Y-71114000D02*
X77948000Y-69364000D01*
X78048000Y-71114000D02*
X78048000Y-69414000D01*
X78148000Y-71114000D02*
X78148000Y-69364000D01*
X78248000Y-71114000D02*
X78248000Y-69364000D01*
X78348000Y-71114000D02*
X78348000Y-69364000D01*
X78448000Y-71114000D02*
X78448000Y-69364000D01*
X78548000Y-71114000D02*
X78548000Y-69364000D01*
X77148000Y-69364000D02*
X78648000Y-69364000D01*
X77148000Y-71114000D02*
X77148000Y-69364000D01*
X78648000Y-71114000D02*
X77148000Y-71114000D01*
X78648000Y-69364000D02*
X78648000Y-71114000D01*
X77148000Y-67064000D02*
X78648000Y-67064000D01*
X78648000Y-68864000D02*
X77148000Y-68864000D01*
X77148000Y-68864000D02*
X77148000Y-67064000D01*
X78648000Y-67064000D02*
X78648000Y-68864000D01*
X78448000Y-66564000D02*
X78448000Y-64814000D01*
X78048000Y-66564000D02*
X78048000Y-64864000D01*
X77948000Y-66564000D02*
X77948000Y-64814000D01*
X77848000Y-66564000D02*
X77848000Y-64814000D01*
X77748000Y-66564000D02*
X77748000Y-64814000D01*
X77648000Y-66564000D02*
X77648000Y-64814000D01*
X77548000Y-66564000D02*
X77548000Y-64814000D01*
X77448000Y-66564000D02*
X77448000Y-64814000D01*
X77148000Y-64814000D02*
X78648000Y-64814000D01*
X78648000Y-64814000D02*
X78648000Y-66564000D01*
X78548000Y-66564000D02*
X78548000Y-64814000D01*
X77348000Y-66564000D02*
X77348000Y-64814000D01*
X77248000Y-66564000D02*
X77248000Y-64814000D01*
X77148000Y-66564000D02*
X77148000Y-64814000D01*
X78648000Y-66564000D02*
X77148000Y-66564000D01*
X78348000Y-66564000D02*
X78348000Y-64814000D01*
X78248000Y-66564000D02*
X78248000Y-64814000D01*
X78148000Y-66564000D02*
X78148000Y-64814000D01*
X76448000Y-68864000D02*
X76448000Y-67064000D01*
X76048000Y-68864000D02*
X76048000Y-67064000D01*
X75948000Y-68864000D02*
X75948000Y-67064000D01*
X75848000Y-68864000D02*
X75848000Y-67064000D01*
X75148000Y-64814000D02*
X76648000Y-64814000D01*
X76648000Y-64814000D02*
X76648000Y-66564000D01*
X76448000Y-66564000D02*
X76448000Y-64814000D01*
X76348000Y-66564000D02*
X76348000Y-64814000D01*
X75648000Y-66564000D02*
X75648000Y-64814000D01*
X75548000Y-66564000D02*
X75548000Y-64814000D01*
X75248000Y-66564000D02*
X75248000Y-64814000D01*
X75348000Y-66564000D02*
X75348000Y-64814000D01*
X75448000Y-66564000D02*
X75448000Y-64814000D01*
X75148000Y-66564000D02*
X75148000Y-64814000D01*
X76648000Y-66564000D02*
X75148000Y-66564000D01*
X76548000Y-66564000D02*
X76548000Y-64814000D01*
X76248000Y-66564000D02*
X76248000Y-64814000D01*
X75748000Y-66564000D02*
X75748000Y-64814000D01*
X75948000Y-66564000D02*
X75948000Y-64814000D01*
X76048000Y-66564000D02*
X76048000Y-64864000D01*
X75848000Y-66564000D02*
X75848000Y-64814000D01*
X76148000Y-66564000D02*
X76148000Y-64814000D01*
X75148000Y-68864000D02*
X75148000Y-67064000D01*
X75148000Y-67064000D02*
X76648000Y-67064000D01*
X76648000Y-67064000D02*
X76648000Y-68864000D01*
X76548000Y-68864000D02*
X76548000Y-67064000D01*
X75348000Y-68864000D02*
X75348000Y-67064000D01*
X75248000Y-68864000D02*
X75248000Y-67064000D01*
X76648000Y-68864000D02*
X75148000Y-68864000D01*
X76348000Y-68864000D02*
X76348000Y-67064000D01*
X76248000Y-68864000D02*
X76248000Y-67064000D01*
X76148000Y-68864000D02*
X76148000Y-67064000D01*
X75748000Y-68864000D02*
X75748000Y-67064000D01*
X75648000Y-68864000D02*
X75648000Y-67064000D01*
X75548000Y-68864000D02*
X75548000Y-67064000D01*
X75448000Y-68864000D02*
X75448000Y-67064000D01*
X76648000Y-71114000D02*
X75148000Y-71114000D01*
X76448000Y-71114000D02*
X76448000Y-69364000D01*
X75248000Y-71114000D02*
X75248000Y-69364000D01*
X75148000Y-71114000D02*
X75148000Y-69364000D01*
X75648000Y-71114000D02*
X75648000Y-69364000D01*
X75348000Y-71114000D02*
X75348000Y-69364000D01*
X75548000Y-71114000D02*
X75548000Y-69364000D01*
X75748000Y-71114000D02*
X75748000Y-69364000D01*
X75448000Y-71114000D02*
X75448000Y-69364000D01*
X75148000Y-69364000D02*
X76648000Y-69364000D01*
X76348000Y-71114000D02*
X76348000Y-69364000D01*
X76648000Y-69364000D02*
X76648000Y-71114000D01*
X76548000Y-71114000D02*
X76548000Y-69364000D01*
X76248000Y-71114000D02*
X76248000Y-69364000D01*
X75848000Y-71114000D02*
X75848000Y-69364000D01*
X75948000Y-71114000D02*
X75948000Y-69364000D01*
X76148000Y-71114000D02*
X76148000Y-69364000D01*
X76048000Y-71114000D02*
X76048000Y-69414000D01*
D11*
X140151000Y-65513000D03*
D12*
X142897950Y-63763001D03*
X142897950Y-64263000D03*
X142897950Y-64762999D03*
X142897950Y-65263000D03*
X142897950Y-65763000D03*
X142897950Y-66263001D03*
X142897950Y-66763000D03*
X142897950Y-67262999D03*
D13*
X141900999Y-68259950D03*
X141401000Y-68259950D03*
X140901001Y-68259950D03*
X140401000Y-68259950D03*
X139901000Y-68259950D03*
X139400999Y-68259950D03*
X138901000Y-68259950D03*
X138401001Y-68259950D03*
D12*
X137404050Y-67262999D03*
X137404050Y-66763000D03*
D14*
X137402525Y-66263001D03*
D12*
X137404050Y-65763000D03*
X137404050Y-65263000D03*
X137404050Y-64762999D03*
X137404050Y-64263000D03*
X137404050Y-63763001D03*
D13*
X138401001Y-62766050D03*
X138901000Y-62766050D03*
X139400999Y-62766050D03*
X139901000Y-62766050D03*
X140401000Y-62766050D03*
X140901001Y-62766050D03*
X141401000Y-62766050D03*
X141900999Y-62766050D03*
D15*
X91440000Y-52357020D03*
X91440000Y-56354980D03*
D16*
X80676000Y-40513000D03*
X80676000Y-40013000D03*
X80676000Y-39513000D03*
X80676000Y-39013000D03*
X80676000Y-38513000D03*
X80676000Y-38013000D03*
X80676000Y-37513000D03*
X80676000Y-37013000D03*
X80676000Y-36513000D03*
X80676000Y-36013000D03*
X80676000Y-35513000D03*
X80676000Y-35013000D03*
X80676000Y-34513000D03*
X80676000Y-34013000D03*
X80676000Y-33513000D03*
X80676000Y-33013000D03*
X80676000Y-32513000D03*
X80676000Y-32013000D03*
X80676000Y-31513000D03*
X80676000Y-31013000D03*
X80676000Y-30513000D03*
X80676000Y-30013000D03*
X80676000Y-29513000D03*
X80676000Y-29013000D03*
X73176000Y-29013000D03*
X73176000Y-29513000D03*
X73176000Y-30013000D03*
X73176000Y-30513000D03*
X73176000Y-31013000D03*
X73176000Y-31513000D03*
X73176000Y-32013000D03*
X73176000Y-32513000D03*
X73176000Y-33013000D03*
X73176000Y-33513000D03*
X73176000Y-34013000D03*
X73176000Y-34513000D03*
X73176000Y-35013000D03*
X73176000Y-35513000D03*
X73176000Y-36013000D03*
X73176000Y-36513000D03*
X73176000Y-37013000D03*
X73176000Y-37513000D03*
X73176000Y-38013000D03*
X73176000Y-38513000D03*
X73176000Y-39013000D03*
X73176000Y-39513000D03*
X73176000Y-40013000D03*
X73176000Y-40513000D03*
X80648000Y-73714000D03*
X80648000Y-73214000D03*
X80648000Y-72714000D03*
X80648000Y-72214000D03*
X80648000Y-71714000D03*
X80648000Y-71214000D03*
X80648000Y-70714000D03*
X80648000Y-70214000D03*
X80648000Y-69714000D03*
X80648000Y-69214000D03*
X80648000Y-68714000D03*
X80648000Y-68214000D03*
X80648000Y-67714000D03*
X80648000Y-67214000D03*
X80648000Y-66714000D03*
X80648000Y-66214000D03*
X80648000Y-65714000D03*
X80648000Y-65214000D03*
X80648000Y-64714000D03*
X80648000Y-64214000D03*
X80648000Y-63714000D03*
X80648000Y-63214000D03*
X80648000Y-62714000D03*
X80648000Y-62214000D03*
X73148000Y-62214000D03*
X73148000Y-62714000D03*
X73148000Y-63214000D03*
X73148000Y-63714000D03*
X73148000Y-64214000D03*
X73148000Y-64714000D03*
X73148000Y-65214000D03*
X73148000Y-65714000D03*
X73148000Y-66214000D03*
X73148000Y-66714000D03*
X73148000Y-67214000D03*
X73148000Y-67714000D03*
X73148000Y-68214000D03*
X73148000Y-68714000D03*
X73148000Y-69214000D03*
X73148000Y-69714000D03*
X73148000Y-70214000D03*
X73148000Y-70714000D03*
X73148000Y-71214000D03*
X73148000Y-71714000D03*
X73148000Y-72214000D03*
X73148000Y-72714000D03*
X73148000Y-73214000D03*
X73148000Y-73714000D03*
D17*
X157512000Y-23876000D03*
X161512000Y-23876000D03*
D18*
X85051000Y-101963000D03*
X85051000Y-97963000D03*
X87951000Y-101963000D03*
X87951000Y-97963000D03*
X92800000Y-112610000D03*
X92800000Y-108610000D03*
D17*
X110151000Y-94763000D03*
X106151000Y-94763000D03*
D18*
X113411000Y-87916000D03*
X113411000Y-91916000D03*
X117094000Y-87916000D03*
X117094000Y-91916000D03*
D17*
X86328000Y-85852000D03*
X82328000Y-85852000D03*
X86328000Y-89662000D03*
X82328000Y-89662000D03*
X112401000Y-111963000D03*
X108401000Y-111963000D03*
D18*
X99060000Y-92170000D03*
X99060000Y-88170000D03*
X102108000Y-92170000D03*
X102108000Y-88170000D03*
X96266000Y-92163000D03*
X96266000Y-88163000D03*
D17*
X109442000Y-102870000D03*
X105442000Y-102870000D03*
X109442000Y-100213000D03*
X105442000Y-100213000D03*
X107726000Y-34388000D03*
X111726000Y-34388000D03*
D18*
X114076000Y-25763000D03*
X114076000Y-29763000D03*
X93726000Y-32553000D03*
X93726000Y-28553000D03*
X89531000Y-32553000D03*
X89531000Y-28553000D03*
D17*
X90576000Y-41868000D03*
X86576000Y-41868000D03*
X90551000Y-38593000D03*
X86551000Y-38593000D03*
D18*
X87630000Y-50260000D03*
X87630000Y-46260000D03*
D17*
X74201000Y-44288000D03*
X78201000Y-44288000D03*
D18*
X70181000Y-43093000D03*
X70181000Y-47093000D03*
X70251000Y-27613000D03*
X70251000Y-23613000D03*
D17*
X67041000Y-50293000D03*
X63041000Y-50293000D03*
X67426000Y-21563000D03*
X63426000Y-21563000D03*
D18*
X33782000Y-48704000D03*
X33782000Y-44704000D03*
X30988000Y-40672000D03*
X30988000Y-44672000D03*
X33782000Y-33750000D03*
X33782000Y-29750000D03*
X30988000Y-25940000D03*
X30988000Y-29940000D03*
X137414000Y-58261000D03*
X137414000Y-54261000D03*
X139310999Y-72598000D03*
X139310999Y-76598000D03*
X145926000Y-59338000D03*
X145926000Y-55338000D03*
X145876000Y-76613000D03*
X145876000Y-72613000D03*
X141900000Y-72600000D03*
X141900000Y-76600000D03*
D17*
X152801000Y-26963000D03*
X148801000Y-26963000D03*
X152801000Y-39163000D03*
X148801000Y-39163000D03*
D18*
X160639001Y-35000000D03*
X160639001Y-31000000D03*
D17*
X153751000Y-62013000D03*
X157751000Y-62013000D03*
D18*
X160876000Y-58838000D03*
X160876000Y-62838000D03*
X149201000Y-55363000D03*
X149201000Y-59363000D03*
X35560000Y-89313000D03*
X35560000Y-93313000D03*
X39624000Y-89313000D03*
X39624000Y-93313000D03*
X56134000Y-85122000D03*
X56134000Y-89122000D03*
X60198000Y-85122000D03*
X60198000Y-89122000D03*
X62818000Y-99282000D03*
X62818000Y-95282000D03*
D17*
X71660000Y-84582000D03*
X75660000Y-84582000D03*
X70834000Y-99568000D03*
X66834000Y-99568000D03*
X70834000Y-96266000D03*
X66834000Y-96266000D03*
D18*
X87630000Y-62960000D03*
X87630000Y-58960000D03*
D17*
X89598000Y-75184000D03*
X85598000Y-75184000D03*
X89623000Y-72644000D03*
X85623000Y-72644000D03*
X74323000Y-78939000D03*
X78323000Y-78939000D03*
D18*
X70104000Y-76867000D03*
X70104000Y-80867000D03*
X70813000Y-61714000D03*
X70813000Y-57714000D03*
X65532000Y-76994000D03*
X65532000Y-80994000D03*
D17*
X67024000Y-55880000D03*
X63024000Y-55880000D03*
D18*
X34036000Y-80486000D03*
X34036000Y-76486000D03*
X31242000Y-72168000D03*
X31242000Y-76168000D03*
X33782000Y-66583000D03*
X33782000Y-62583000D03*
X31242000Y-58353000D03*
X31242000Y-62353000D03*
X114251000Y-53963000D03*
X114251000Y-57963000D03*
D17*
X114251000Y-46813000D03*
X110251000Y-46813000D03*
D19*
X114079020Y-19812000D03*
X118076980Y-19812000D03*
D20*
X99536000Y-51562000D03*
X95536000Y-51562000D03*
D21*
X149176000Y-76613000D03*
X149176000Y-72613000D03*
D20*
X132576499Y-65898500D03*
X128576499Y-65898500D03*
D15*
X29718000Y-85885020D03*
X29718000Y-89882980D03*
X54864000Y-103665020D03*
X54864000Y-107662980D03*
D20*
X99282000Y-61468000D03*
X95282000Y-61468000D03*
X52864000Y-113538000D03*
X56864000Y-113538000D03*
D21*
X29925000Y-99600000D03*
X29925000Y-103600000D03*
D22*
X154228833Y-54962500D03*
X156428833Y-54962500D03*
X44493000Y-91313000D03*
X46693000Y-91313000D03*
D23*
X111151000Y-56363000D03*
X111151000Y-53863000D03*
D20*
X157512000Y-20066000D03*
X161512000Y-20066000D03*
D21*
X88900000Y-112490000D03*
X88900000Y-108490000D03*
D20*
X86328000Y-93472000D03*
X82328000Y-93472000D03*
D21*
X105156000Y-111728000D03*
X105156000Y-107728000D03*
D20*
X105442000Y-97513000D03*
X109442000Y-97513000D03*
D21*
X102108000Y-111813000D03*
X102108000Y-107813000D03*
X166573000Y-88691000D03*
X166573000Y-84691000D03*
X166101000Y-103013000D03*
X166101000Y-99013000D03*
D20*
X148622000Y-94663000D03*
X152622000Y-94663000D03*
X148622000Y-89094000D03*
X152622000Y-89094000D03*
X148779000Y-108889000D03*
X152779000Y-108889000D03*
X148779000Y-103393000D03*
X152779000Y-103393000D03*
X148622000Y-91913000D03*
X152622000Y-91913000D03*
X148622000Y-86350000D03*
X152622000Y-86350000D03*
X148801000Y-106063000D03*
X152801000Y-106063000D03*
X148751000Y-100613000D03*
X152751000Y-100613000D03*
X99536000Y-48768000D03*
X95536000Y-48768000D03*
D21*
X134026000Y-54261000D03*
X134026000Y-58261000D03*
X130683000Y-54261000D03*
X130683000Y-58261000D03*
X135301000Y-76663000D03*
X135301000Y-72663000D03*
D20*
X128615501Y-68893500D03*
X132615501Y-68893500D03*
D21*
X147574000Y-69088000D03*
X147574000Y-65088000D03*
D20*
X128551000Y-62913000D03*
X132551000Y-62913000D03*
X157576000Y-58738000D03*
X153576000Y-58738000D03*
D21*
X67924000Y-91154000D03*
X67924000Y-87154000D03*
X65024000Y-87154000D03*
X65024000Y-91154000D03*
D20*
X99282000Y-64770000D03*
X95282000Y-64770000D03*
X130901000Y-43713000D03*
X126901000Y-43713000D03*
X110101000Y-40663000D03*
X114101000Y-40663000D03*
X110101000Y-43713000D03*
X114101000Y-43713000D03*
X130901000Y-49813000D03*
X126901000Y-49813000D03*
X130951000Y-46813000D03*
X126951000Y-46813000D03*
X130951000Y-40663000D03*
X126951000Y-40663000D03*
X66516000Y-113792000D03*
X62516000Y-113792000D03*
D24*
X91426000Y-97163000D03*
X91426000Y-97663000D03*
X91426000Y-98163000D03*
X91426000Y-98663000D03*
X91426000Y-99163000D03*
X91426000Y-99663000D03*
X91426000Y-100163000D03*
X91426000Y-100663000D03*
X91426000Y-101163000D03*
X91426000Y-101663000D03*
X91426000Y-102163000D03*
X91426000Y-102663000D03*
D25*
X93026000Y-104263000D03*
X93526000Y-104263000D03*
X94026000Y-104263000D03*
X94526000Y-104263000D03*
X95026000Y-104263000D03*
X95526000Y-104263000D03*
X96026000Y-104263000D03*
X96526000Y-104263000D03*
X97026000Y-104263000D03*
X97526000Y-104263000D03*
X98026000Y-104263000D03*
X98526000Y-104263000D03*
D24*
X100126000Y-102663000D03*
X100126000Y-102163000D03*
X100126000Y-101663000D03*
X100126000Y-101163000D03*
X100126000Y-100663000D03*
X100126000Y-100163000D03*
X100126000Y-99663000D03*
X100126000Y-99163000D03*
X100126000Y-98663000D03*
X100126000Y-98163000D03*
X100126000Y-97663000D03*
X100126000Y-97163000D03*
D25*
X98526000Y-95563000D03*
X98026000Y-95563000D03*
X97526000Y-95563000D03*
X97026000Y-95563000D03*
X96526000Y-95563000D03*
X96026000Y-95563000D03*
X95526000Y-95563000D03*
X95026000Y-95563000D03*
X94526000Y-95563000D03*
X94026000Y-95563000D03*
X93526000Y-95563000D03*
X93026000Y-95563000D03*
D26*
X113792905Y-109363000D03*
X113792905Y-108093000D03*
X113792905Y-106823000D03*
X113792905Y-105553000D03*
X108392905Y-105553000D03*
X108392905Y-106823000D03*
X108392905Y-108093000D03*
X108392905Y-109363000D03*
D27*
X103026000Y-34048000D03*
X103026000Y-32778000D03*
X103026000Y-31508000D03*
X103026000Y-30238000D03*
X103026000Y-28968000D03*
X103026000Y-27698000D03*
X103026000Y-26428000D03*
X97626000Y-26428000D03*
X97626000Y-27698000D03*
X97626000Y-28968000D03*
X97626000Y-30238000D03*
X97626000Y-31508000D03*
X97626000Y-32778000D03*
X97626000Y-34048000D03*
D28*
X156356381Y-30013501D03*
X155706380Y-30013501D03*
X155056381Y-30013501D03*
X154406380Y-30013501D03*
X153756382Y-30013501D03*
X153106380Y-30013501D03*
X152456382Y-30013501D03*
X151806383Y-30013501D03*
X151156382Y-30013501D03*
X150506383Y-30013501D03*
X149856382Y-30013501D03*
X149206383Y-30013501D03*
X148556382Y-30013501D03*
X147906383Y-30013501D03*
X147906381Y-35779301D03*
X148556382Y-35779301D03*
X149206381Y-35779301D03*
X149856382Y-35779301D03*
X150506380Y-35779301D03*
X151156382Y-35779301D03*
X151806380Y-35779301D03*
X152456382Y-35779301D03*
X153106380Y-35779301D03*
X153756382Y-35779301D03*
X154406380Y-35779301D03*
X155056381Y-35779301D03*
X155706380Y-35779301D03*
X156356381Y-35779301D03*
D29*
X58834000Y-96962000D03*
X58834000Y-96012000D03*
X58834000Y-95062000D03*
X56134000Y-95062000D03*
X56134000Y-96012000D03*
X56134000Y-96962000D03*
D27*
X123201000Y-49958000D03*
X123201000Y-48688000D03*
X123201000Y-47418000D03*
X123201000Y-46148000D03*
X123201000Y-44878000D03*
X123201000Y-43608000D03*
X123201000Y-42338000D03*
X123201000Y-41068000D03*
X117801000Y-41068000D03*
X117801000Y-42338000D03*
X117801000Y-43608000D03*
X117801000Y-44878000D03*
X117801000Y-46148000D03*
X117801000Y-47418000D03*
X117801000Y-48688000D03*
X117801000Y-49958000D03*
D30*
X118171000Y-59263000D03*
X123431000Y-59263000D03*
X123431000Y-54263000D03*
X118171000Y-54263000D03*
D31*
X60551000Y-36788000D03*
X63051000Y-36788000D03*
X67451000Y-39443000D03*
X69951000Y-39443000D03*
X67426000Y-32113000D03*
X69926000Y-32113000D03*
X60526000Y-34638000D03*
X63026000Y-34638000D03*
X60663000Y-70224000D03*
X63163000Y-70224000D03*
X67163000Y-73054000D03*
X69663000Y-73054000D03*
X67163000Y-65204000D03*
X69663000Y-65204000D03*
X60703000Y-68014000D03*
X63203000Y-68014000D03*
D32*
X59267000Y-106426000D03*
X66717000Y-106426000D03*
D17*
X146775000Y-42950000D03*
X142775000Y-42950000D03*
D18*
X166725000Y-44350000D03*
X166725000Y-48350000D03*
X163775000Y-72150000D03*
X163775000Y-76150000D03*
X150622000Y-69056000D03*
X150622000Y-65056000D03*
X127762000Y-58261000D03*
X127762000Y-54261000D03*
D20*
X142775000Y-46225000D03*
X146775000Y-46225000D03*
X146775000Y-49425000D03*
X142775000Y-49425000D03*
D21*
X167200000Y-72100000D03*
X167200000Y-76100000D03*
D33*
X150850000Y-44260000D03*
X150850000Y-46800000D03*
X150850000Y-49340000D03*
X162350000Y-49340000D03*
X162350000Y-46800000D03*
X162350000Y-44260000D03*
D34*
X154585000Y-79075000D03*
X157125000Y-79075000D03*
X159665000Y-79075000D03*
X159665000Y-67575000D03*
X157125000Y-67575000D03*
X154585000Y-67575000D03*
D35*
X28702000Y-110744000D03*
D36*
X24952000Y-111729000D03*
X24952000Y-109759000D03*
D20*
X87598000Y-23876000D03*
X83598000Y-23876000D03*
X119316000Y-34438000D03*
X115316000Y-34438000D03*
D21*
X109220000Y-29686000D03*
X109220000Y-25686000D03*
D19*
X95537020Y-39370000D03*
X99534980Y-39370000D03*
D37*
X105025000Y-69794000D03*
X105675000Y-69794000D03*
X106325000Y-69794000D03*
X106975000Y-69794000D03*
X107625000Y-69794000D03*
X108275000Y-69794000D03*
X108925000Y-69794000D03*
X109575000Y-69794000D03*
X110225000Y-69794000D03*
X110875000Y-69794000D03*
X110875000Y-62794000D03*
X110225000Y-62794000D03*
X109575000Y-62794000D03*
X108925000Y-62794000D03*
X108275000Y-62794000D03*
X107625000Y-62794000D03*
X106975000Y-62794000D03*
X106325000Y-62794000D03*
X105675000Y-62794000D03*
X105025000Y-62794000D03*
D20*
X83598000Y-21082000D03*
X87598000Y-21082000D03*
D38*
X74066000Y-108444000D03*
X74066000Y-110744000D03*
D39*
X80366000Y-110744000D03*
D38*
X74066000Y-113044000D03*
D20*
X91218000Y-23876000D03*
X95218000Y-23876000D03*
D38*
X74066000Y-97014000D03*
X74066000Y-99314000D03*
D39*
X80366000Y-99314000D03*
D38*
X74066000Y-101614000D03*
D19*
X95537020Y-43942000D03*
X99534980Y-43942000D03*
D20*
X91218000Y-20828000D03*
X95218000Y-20828000D03*
M02*
