G04 #@! TF.GenerationSoftware,KiCad,Pcbnew,7.0.10*
G04 #@! TF.CreationDate,2024-01-29T13:32:04+01:00*
G04 #@! TF.ProjectId,smd_aio,736d645f-6169-46f2-9e6b-696361645f70,rev?*
G04 #@! TF.SameCoordinates,Original*
G04 #@! TF.FileFunction,Legend,Bot*
G04 #@! TF.FilePolarity,Positive*
%FSLAX46Y46*%
G04 Gerber Fmt 4.6, Leading zero omitted, Abs format (unit mm)*
G04 Created by KiCad (PCBNEW 7.0.10) date 2024-01-29 13:32:04*
%MOMM*%
%LPD*%
G01*
G04 APERTURE LIST*
G04 Aperture macros list*
%AMRoundRect*
0 Rectangle with rounded corners*
0 $1 Rounding radius*
0 $2 $3 $4 $5 $6 $7 $8 $9 X,Y pos of 4 corners*
0 Add a 4 corners polygon primitive as box body*
4,1,4,$2,$3,$4,$5,$6,$7,$8,$9,$2,$3,0*
0 Add four circle primitives for the rounded corners*
1,1,$1+$1,$2,$3*
1,1,$1+$1,$4,$5*
1,1,$1+$1,$6,$7*
1,1,$1+$1,$8,$9*
0 Add four rect primitives between the rounded corners*
20,1,$1+$1,$2,$3,$4,$5,0*
20,1,$1+$1,$4,$5,$6,$7,0*
20,1,$1+$1,$6,$7,$8,$9,0*
20,1,$1+$1,$8,$9,$2,$3,0*%
G04 Aperture macros list end*
%ADD10RoundRect,0.200000X0.650000X-0.650000X0.650000X0.650000X-0.650000X0.650000X-0.650000X-0.650000X0*%
%ADD11C,1.700000*%
%ADD12RoundRect,0.200000X-0.650000X-0.650000X0.650000X-0.650000X0.650000X0.650000X-0.650000X0.650000X0*%
%ADD13RoundRect,0.200000X-0.650000X0.650000X-0.650000X-0.650000X0.650000X-0.650000X0.650000X0.650000X0*%
%ADD14O,3.400000X2.700000*%
%ADD15O,4.400000X3.600000*%
%ADD16O,3.600000X4.400000*%
%ADD17C,1.800000*%
%ADD18RoundRect,0.200000X1.016000X0.863600X-1.016000X0.863600X-1.016000X-0.863600X1.016000X-0.863600X0*%
%ADD19O,2.432000X2.127200*%
%ADD20RoundRect,0.200000X-1.016000X-0.863600X1.016000X-0.863600X1.016000X0.863600X-1.016000X0.863600X0*%
%ADD21RoundRect,0.200000X-0.863600X-0.863600X0.863600X-0.863600X0.863600X0.863600X-0.863600X0.863600X0*%
%ADD22O,2.127200X2.127200*%
%ADD23RoundRect,0.200000X0.863600X0.863600X-0.863600X0.863600X-0.863600X-0.863600X0.863600X-0.863600X0*%
%ADD24RoundRect,0.200000X-1.270000X1.270000X-1.270000X-1.270000X1.270000X-1.270000X1.270000X1.270000X0*%
%ADD25C,2.940000*%
%ADD26C,2.500000*%
%ADD27C,2.000000*%
%ADD28C,1.600000*%
%ADD29C,2.400000*%
%ADD30RoundRect,0.200000X0.863600X-0.863600X0.863600X0.863600X-0.863600X0.863600X-0.863600X-0.863600X0*%
G04 APERTURE END LIST*
%LPC*%
D10*
X74422000Y-88138000D03*
D11*
X74422000Y-86138000D03*
D12*
X96401000Y-110213000D03*
D11*
X98401000Y-110213000D03*
D12*
X121158000Y-90678000D03*
D11*
X123158000Y-90678000D03*
D12*
X106680000Y-88392000D03*
D11*
X108680000Y-88392000D03*
D12*
X164601000Y-94263000D03*
D11*
X166601000Y-94263000D03*
D12*
X164051000Y-108313000D03*
D11*
X166051000Y-108313000D03*
D10*
X141626000Y-58838000D03*
D11*
X141626000Y-56838000D03*
D13*
X137551000Y-80613000D03*
D11*
X137551000Y-82613000D03*
D13*
X144201000Y-80613000D03*
D11*
X144201000Y-82613000D03*
D14*
X171601000Y-88913000D03*
D15*
X171601000Y-83913000D03*
D16*
X176101000Y-88913000D03*
D15*
X171601000Y-93913000D03*
D14*
X171626000Y-103413000D03*
D15*
X171626000Y-98413000D03*
D16*
X176126000Y-103413000D03*
D15*
X171626000Y-108413000D03*
D17*
X50626000Y-50063000D03*
X43626000Y-46463000D03*
X50651000Y-41988000D03*
X43651000Y-38388000D03*
X50670000Y-33930000D03*
X43670000Y-30330000D03*
X50670000Y-25850000D03*
X43670000Y-22250000D03*
X50688000Y-83610000D03*
X43688000Y-80010000D03*
X50744000Y-75206000D03*
X43744000Y-71606000D03*
X50744000Y-66824000D03*
X43744000Y-63224000D03*
X50744000Y-58442000D03*
X43744000Y-54842000D03*
D18*
X128778000Y-96774000D03*
D19*
X128778000Y-94234000D03*
X128778000Y-91694000D03*
X128778000Y-89154000D03*
D20*
X85090000Y-107950000D03*
D19*
X85090000Y-110490000D03*
X85090000Y-113030000D03*
D21*
X127254000Y-24892000D03*
D22*
X127254000Y-22352000D03*
X129794000Y-24892000D03*
X129794000Y-22352000D03*
X132334000Y-24892000D03*
X132334000Y-22352000D03*
X134874000Y-24892000D03*
X134874000Y-22352000D03*
X137414000Y-24892000D03*
X137414000Y-22352000D03*
D21*
X121076000Y-110438000D03*
D22*
X121076000Y-107898000D03*
X123616000Y-110438000D03*
X123616000Y-107898000D03*
X126156000Y-110438000D03*
X126156000Y-107898000D03*
X128696000Y-110438000D03*
X128696000Y-107898000D03*
X131236000Y-110438000D03*
X131236000Y-107898000D03*
X133776000Y-110438000D03*
X133776000Y-107898000D03*
X136316000Y-110438000D03*
X136316000Y-107898000D03*
X138856000Y-110438000D03*
X138856000Y-107898000D03*
D23*
X159512000Y-93980000D03*
D22*
X156972000Y-93980000D03*
X159512000Y-91440000D03*
X156972000Y-91440000D03*
X159512000Y-88900000D03*
X156972000Y-88900000D03*
X159512000Y-86360000D03*
X156972000Y-86360000D03*
D23*
X159526000Y-108438000D03*
D22*
X156986000Y-108438000D03*
X159526000Y-105898000D03*
X156986000Y-105898000D03*
X159526000Y-103358000D03*
X156986000Y-103358000D03*
X159526000Y-100818000D03*
X156986000Y-100818000D03*
D24*
X23851000Y-43173000D03*
D25*
X23851000Y-48253000D03*
D24*
X23851000Y-28573000D03*
D25*
X23851000Y-33653000D03*
D26*
X164876000Y-37663000D03*
X170876000Y-33063000D03*
X164876000Y-28463000D03*
D27*
X166976000Y-30523000D03*
X166976000Y-33063000D03*
X166976000Y-35603000D03*
D26*
X164651000Y-65163000D03*
X170651000Y-60563000D03*
X164651000Y-55963000D03*
D27*
X166751000Y-58023000D03*
X166751000Y-60563000D03*
X166751000Y-63103000D03*
D24*
X23870000Y-98110000D03*
D25*
X23870000Y-103190000D03*
D24*
X24001000Y-74003000D03*
D25*
X24001000Y-79083000D03*
D24*
X23921000Y-59713000D03*
D25*
X23921000Y-64793000D03*
D28*
X78994000Y-49784000D03*
X76454000Y-52324000D03*
X73914000Y-49784000D03*
D29*
X21375000Y-93275000D03*
X21375000Y-86775000D03*
X25875000Y-93275000D03*
X25875000Y-86775000D03*
D12*
X59944000Y-95504000D03*
D11*
X67444000Y-95504000D03*
D30*
X91694000Y-85090000D03*
D22*
X91694000Y-82550000D03*
X94234000Y-85090000D03*
X94234000Y-82550000D03*
X96774000Y-85090000D03*
X96774000Y-82550000D03*
X99314000Y-85090000D03*
X99314000Y-82550000D03*
D14*
X171450000Y-47000000D03*
D15*
X171450000Y-42000000D03*
D16*
X175950000Y-47000000D03*
D15*
X171450000Y-52000000D03*
D14*
X171450000Y-74375000D03*
D15*
X171450000Y-69375000D03*
D16*
X175950000Y-74375000D03*
D15*
X171450000Y-79375000D03*
D18*
X121920000Y-70104000D03*
D19*
X121920000Y-67564000D03*
X121920000Y-65024000D03*
D28*
X79502000Y-21082000D03*
X76962000Y-23622000D03*
X74422000Y-21082000D03*
%LPD*%
M02*
